<?xml version="1.0" standalone="no"?>
<!DOCTYPE svg PUBLIC "-//W3C//DTD SVG 20010904//EN"
 "http://www.w3.org/TR/2001/REC-SVG-20010904/DTD/svg10.dtd">
<svg version="1.0" xmlns="http://www.w3.org/2000/svg"
 width="512.000000pt" height="512.000000pt" viewBox="0 0 512.000000 512.000000"
 preserveAspectRatio="xMidYMid meet">

<g transform="translate(0.000000,512.000000) scale(0.100000,-0.100000)"
fill="#000000" stroke="none">
<path d="M2860 4899 c-106 -11 -320 -53 -407 -80 -112 -35 -384 -148 -463
-192 -87 -49 -217 -172 -274 -260 -88 -134 -148 -326 -168 -535 -12 -122 -13
-123 -44 -141 -77 -46 -109 -126 -100 -250 34 -429 169 -691 358 -691 15 0 48
7 74 16 25 8 47 14 48 12 1 -2 15 -32 30 -67 79 -187 240 -362 415 -450 l44
-23 -53 -30 c-56 -32 -127 -99 -243 -231 -70 -79 -114 -109 -176 -121 -19 -3
-43 -14 -53 -23 -30 -27 -99 -21 -154 16 -26 17 -53 31 -60 31 -7 0 -15 8 -18
18 -10 29 -86 103 -122 118 -76 32 -176 7 -226 -55 -15 -20 -73 -54 -173 -102
-128 -62 -161 -73 -222 -79 -117 -11 -176 -73 -175 -185 2 -127 143 -426 228
-482 37 -24 117 -22 152 3 47 36 74 84 68 124 -3 19 -8 60 -12 91 l-6 55 68
41 c38 22 106 60 151 83 l82 43 58 -53 c106 -96 178 -110 246 -51 37 33 99 43
284 45 97 1 112 -1 107 -14 -50 -119 -43 -198 26 -276 21 -24 30 -45 30 -69 0
-48 28 -73 90 -81 29 -4 53 -12 55 -18 32 -110 55 -239 49 -273 -6 -37 -3 -44
28 -79 38 -43 63 -100 47 -109 -5 -4 -9 -17 -9 -30 0 -18 -9 -29 -35 -41 -50
-23 -75 -69 -75 -138 0 -99 35 -138 136 -149 54 -6 169 6 237 24 53 14 103 65
112 113 5 24 0 74 -14 142 -26 129 -26 144 0 188 16 28 22 58 26 138 3 63 11
118 21 141 15 36 17 38 30 20 22 -30 150 -236 196 -318 l43 -76 -19 -82 c-12
-50 -18 -103 -15 -136 3 -47 9 -59 40 -87 71 -66 299 -93 390 -47 35 18 57 67
57 130 0 58 -27 106 -75 134 -23 14 -35 28 -35 43 0 12 -6 28 -12 35 -20 19
-27 397 -9 444 10 25 15 27 68 28 32 0 74 5 93 12 31 11 36 17 45 62 6 32 22
66 42 89 43 52 57 113 43 183 l-12 54 64 67 c140 149 138 219 -14 465 -73 118
-154 208 -221 247 l-49 28 59 35 c33 20 80 54 105 77 41 35 55 41 116 49 183
23 285 121 326 313 4 19 14 28 35 33 70 15 152 118 200 251 56 152 99 437 81
532 -14 78 -61 133 -143 167 l-37 15 0 63 c0 203 -104 526 -212 657 -120 147
-373 272 -608 301 -66 8 -106 19 -131 34 -52 34 -169 91 -209 103 -56 17 -128
21 -220 11z m1277 -1235 c-3 -3 -12 -4 -19 -1 -8 3 -5 6 6 6 11 1 17 -2 13 -5z
m-847 -73 c0 -67 -23 -141 -51 -167 -25 -22 -25 -54 1 -61 27 -7 25 -14 -16
-54 -40 -38 -76 -103 -94 -167 l-11 -43 -57 8 c-73 10 -219 10 -299 0 -59 -7
-63 -7 -63 12 0 40 -42 130 -81 174 l-40 46 47 21 c44 19 48 19 65 4 17 -15
27 -15 95 -5 193 32 361 123 449 244 22 30 43 53 48 50 4 -2 7 -30 7 -62z
m1057 -118 c-3 -10 -5 -2 -5 17 0 19 2 27 5 18 2 -10 2 -26 0 -35z m-2860 -70
c-3 -10 -5 -4 -5 12 0 17 2 24 5 18 2 -7 2 -21 0 -30z m2346 -75 c7 -54 33
-88 85 -113 23 -11 41 -27 42 -37 1 -41 -42 -251 -65 -323 -37 -113 -98 -232
-153 -301 -40 -50 -53 -59 -83 -62 l-36 -3 -7 49 c-10 78 -59 111 -197 131
-95 15 -139 2 -183 -52 -28 -35 -31 -46 -31 -107 0 -62 3 -72 29 -99 45 -47
92 -64 171 -64 75 0 130 18 165 53 12 12 27 19 33 17 7 -2 -24 -27 -68 -55
-185 -120 -445 -173 -742 -152 -542 39 -852 353 -921 932 l-8 67 50 6 c28 3
67 8 87 11 l36 5 -19 -58 c-27 -77 -21 -187 13 -258 30 -64 115 -150 176 -178
39 -18 67 -22 143 -22 84 0 102 3 152 28 97 48 176 146 196 244 8 38 9 38 72
49 86 16 171 16 267 3 79 -11 93 -19 93 -54 0 -37 48 -124 93 -169 25 -25 69
-57 99 -73 48 -25 63 -28 153 -28 95 0 103 2 163 34 74 40 124 94 160 171 22
46 26 70 27 140 0 73 -4 94 -28 145 -15 33 -42 75 -59 92 -18 18 -30 34 -27
36 8 5 94 35 105 36 6 0 14 -18 17 -41z m-1363 -9 c175 -77 221 -317 86 -452
-78 -78 -182 -104 -291 -73 -74 22 -153 97 -178 170 -44 127 3 265 112 335 84
54 178 61 271 20z m1123 -1 c106 -46 177 -170 163 -286 -12 -98 -66 -175 -160
-225 -58 -31 -184 -31 -242 0 -63 34 -97 66 -128 122 -56 104 -42 227 35 315
88 100 208 127 332 74z m402 -552 c35 -13 40 -18 37 -43 -5 -44 -40 -115 -75
-152 -35 -36 -119 -81 -153 -81 -20 0 -17 8 30 78 28 42 65 107 80 145 16 37
32 67 35 67 3 0 24 -7 46 -14z m-529 -571 c62 -26 133 -85 179 -149 70 -99
151 -241 165 -291 17 -62 -3 -114 -74 -184 l-53 -53 -33 89 c-17 48 -47 144
-66 212 -18 68 -39 130 -45 137 -15 19 -36 18 -47 -3 -9 -15 -14 -14 -54 10
-48 28 -142 124 -171 175 l-17 30 62 20 c78 25 109 26 154 7z m-947 -11 l52
-15 -21 -36 c-37 -63 -89 -120 -145 -158 -50 -35 -55 -36 -70 -21 -35 34 -51
15 -80 -95 -14 -52 -39 -135 -56 -186 l-30 -91 -52 -13 c-153 -38 -247 13
-247 132 0 58 19 82 80 99 62 17 120 59 182 133 96 113 192 202 253 234 70 38
66 37 134 17z m534 -62 c-37 -27 -125 -44 -202 -40 -71 4 -151 30 -151 48 0 4
83 7 185 6 154 -1 182 -3 168 -14z m77 -291 c6 -80 20 -194 31 -254 11 -60 18
-112 15 -114 -11 -11 -179 -33 -244 -32 -77 2 -88 -1 -79 -26 5 -12 26 -15
109 -15 57 0 131 6 166 14 66 13 72 12 72 -13 0 -12 -33 -24 -142 -50 -79 -18
-186 -47 -238 -63 -78 -24 -106 -29 -155 -24 -32 3 -63 10 -68 15 -4 4 5 53
22 108 43 146 72 328 77 493 3 80 7 150 9 157 3 8 16 8 51 -3 94 -28 256 -10
329 36 l30 19 2 -52 c2 -29 8 -117 13 -196z m-1643 109 c40 -24 73 -72 55 -78
-44 -14 -86 -92 -79 -146 9 -66 61 -92 127 -62 11 4 21 -3 33 -23 9 -16 35
-38 57 -48 46 -21 50 -40 14 -77 -43 -42 -71 -34 -162 48 -34 31 -73 58 -87
62 -28 7 -93 -21 -229 -98 -150 -84 -156 -90 -156 -151 0 -29 5 -69 11 -91 15
-54 5 -84 -37 -103 -32 -16 -38 -16 -62 -2 -58 32 -158 221 -196 371 -15 59
-15 71 -2 102 20 48 54 68 113 65 26 -1 55 1 63 5 12 5 22 -6 38 -40 21 -43
25 -46 53 -40 46 9 258 113 265 129 3 8 -4 34 -16 57 l-21 41 50 50 c44 44 54
49 93 49 25 0 56 -8 75 -20z m1934 -59 c53 -54 34 -148 -36 -171 -71 -23 -135
23 -135 97 0 62 40 103 100 103 33 0 48 -6 71 -29z m-911 -96 c0 -55 0 -55
-31 -55 -31 0 -172 20 -177 25 -2 2 2 21 9 44 l12 41 94 0 93 0 0 -55z m-844
0 c28 -22 33 -31 36 -80 1 -30 0 -55 -4 -55 -11 0 -38 43 -38 61 0 9 -9 24
-20 34 -19 17 -21 17 -54 -9 -19 -14 -39 -26 -45 -26 -20 0 -11 38 15 69 32
38 65 40 110 6z m1435 -541 c77 -23 142 -90 159 -164 8 -37 21 -62 38 -77 24
-21 25 -25 14 -56 -16 -45 -15 -103 3 -163 8 -27 15 -79 15 -116 l0 -68 -70 0
-70 0 -26 51 c-33 65 -205 348 -251 413 -25 35 -36 63 -40 101 l-6 52 74 21
c92 25 93 26 160 6z m-386 -61 c39 3 77 8 87 12 14 5 17 -3 20 -57 4 -58 1
-68 -31 -121 -33 -55 -35 -64 -39 -170 -3 -87 -9 -119 -23 -143 -10 -17 -19
-48 -19 -68 l0 -36 -85 0 c-47 0 -85 3 -85 8 0 4 11 23 24 43 36 52 35 60 -10
105 -48 48 -74 127 -74 225 0 55 5 74 40 140 l40 77 43 -10 c23 -5 74 -8 112
-5z m-137 -734 c69 -12 137 -57 117 -78 -18 -18 -165 -32 -228 -22 -31 6 -61
13 -67 16 -18 11 12 67 44 81 39 16 53 17 134 3z m871 0 c35 -12 51 -35 51
-72 0 -22 -6 -26 -41 -32 -43 -7 -127 0 -194 16 -68 17 -67 16 -53 38 27 44
169 74 237 50z"/>
<path d="M2227 3053 c-11 -11 -8 -41 6 -50 6 -4 42 -10 78 -14 44 -4 77 -13
97 -27 32 -23 56 -21 66 5 9 21 -20 52 -69 74 -40 18 -164 27 -178 12z"/>
<path d="M3434 3049 c-37 -10 -84 -52 -84 -73 0 -8 9 -20 19 -26 16 -8 28 -5
57 15 29 20 49 25 95 25 72 0 108 27 77 58 -14 14 -118 15 -164 1z"/>
<path d="M1300 1700 c-24 -24 -26 -53 -4 -74 18 -19 65 -21 82 -4 20 20 14 65
-10 82 -30 21 -44 20 -68 -4z"/>
<path d="M842 1655 c-18 -13 -20 -20 -11 -36 6 -13 18 -19 32 -17 26 4 33 27
15 51 -12 16 -15 16 -36 2z"/>
<path d="M928 1629 c-27 -15 -23 -49 5 -49 37 0 51 14 38 39 -13 24 -18 25
-43 10z"/>
<path d="M1052 1574 c-51 -35 -8 -117 50 -95 42 16 50 59 18 91 -24 24 -38 25
-68 4z"/>
<path d="M816 1567 c-15 -11 -17 -17 -7 -35 10 -19 15 -20 37 -10 17 8 24 18
22 32 -4 25 -27 31 -52 13z"/>
<path d="M894 1545 c-4 -9 -1 -27 7 -41 l13 -25 20 21 c16 16 18 24 10 38 -15
23 -43 27 -50 7z"/>
<path d="M3312 1854 c-34 -23 -27 -83 11 -104 24 -13 30 -13 55 0 37 21 44 81
10 104 -12 9 -29 16 -38 16 -9 0 -26 -7 -38 -16z"/>
</g>
</svg>
