<?xml version="1.0" standalone="no"?>
<!DOCTYPE svg PUBLIC "-//W3C//DTD SVG 20010904//EN"
 "http://www.w3.org/TR/2001/REC-SVG-20010904/DTD/svg10.dtd">
<svg version="1.0" xmlns="http://www.w3.org/2000/svg"
 width="768.000000pt" height="768.000000pt" viewBox="0 0 768.000000 768.000000"
 preserveAspectRatio="xMidYMid meet">

<g transform="translate(0.000000,768.000000) scale(0.100000,-0.100000)"
fill="#000000" stroke="none">
<path d="M1830 3840 l0 -2410 2010 0 2010 0 0 2410 0 2410 -2010 0 -2010 0 0
-2410z m3750 1700 l0 -390 -1740 0 -1740 0 0 390 0 390 1740 0 1740 0 0 -390z
m-1883 -810 c21 -13 35 -31 42 -57 17 -60 14 -436 -3 -478 -28 -67 -6 -65
-700 -65 -463 0 -632 3 -651 12 -51 23 -55 47 -55 300 1 249 4 268 51 294 19
11 150 13 654 14 607 0 631 -1 662 -20z m796 9 c55 -28 57 -35 57 -297 0 -148
-4 -251 -10 -263 -24 -44 -55 -49 -304 -49 l-236 0 -32 29 -33 29 -3 233 c-3
249 0 274 46 309 23 19 41 20 259 20 153 0 242 -4 256 -11z m808 -5 c53 -27
59 -59 59 -299 0 -319 14 -305 -321 -305 l-231 0 -35 35 -34 34 3 244 c3 229
4 246 23 267 11 12 29 26 40 31 11 4 120 8 243 8 184 1 228 -2 253 -15z
m-2390 -803 l29 -29 0 -247 c0 -150 -4 -254 -10 -266 -24 -44 -56 -49 -295
-49 -239 0 -271 5 -295 49 -6 12 -10 116 -10 266 l0 247 29 29 29 29 247 0
247 0 29 -29z m803 2 c14 -14 29 -36 32 -47 3 -12 4 -126 2 -254 l-3 -232 -28
-27 -27 -28 -238 -3 c-339 -5 -325 -16 -330 272 -5 241 0 280 38 318 l28 28
250 0 249 0 27 -27z m806 -1 c38 -38 43 -77 38 -318 -2 -170 -6 -203 -21 -225
-31 -45 -52 -49 -302 -49 l-235 0 -32 29 -33 29 -3 233 c-2 128 -1 243 2 255
3 11 18 33 32 47 l27 27 249 0 250 0 28 -28z m789 14 c47 -25 51 -48 51 -301
l0 -235 -29 -32 -29 -33 -233 -3 c-128 -2 -243 -1 -255 2 -11 3 -33 18 -47 32
l-27 27 0 249 0 250 29 29 29 29 242 0 c189 0 247 -3 269 -14z m-2398 -804
l29 -32 0 -248 c0 -238 -1 -249 -21 -271 -11 -12 -32 -26 -46 -32 -34 -13
-443 -12 -481 2 -60 21 -62 32 -62 306 1 268 1 269 56 298 24 13 68 15 262 13
l234 -3 29 -33z m774 24 c60 -26 65 -48 65 -301 0 -332 15 -317 -325 -313
l-235 3 -32 33 -33 32 0 238 c0 334 -13 321 313 322 162 0 221 -3 247 -14z
m804 1 c13 -6 34 -25 45 -40 20 -27 21 -40 21 -268 l0 -239 -33 -32 -32 -33
-235 -3 c-340 -4 -325 -19 -325 313 0 252 5 275 63 300 43 19 460 21 496 2z
m827 -15 c12 -9 27 -27 33 -39 14 -28 16 -1239 1 -1277 -5 -14 -24 -35 -42
-46 -30 -18 -51 -20 -256 -20 -244 0 -278 6 -301 56 -8 18 -11 205 -11 655 l0
631 29 29 29 29 249 0 c220 0 250 -2 269 -18z m-2426 -777 c16 -8 34 -24 40
-34 6 -12 10 -116 10 -265 0 -244 0 -245 -24 -273 l-24 -28 -257 0 -257 0 -24
28 c-24 28 -24 29 -24 273 0 148 4 253 10 264 24 44 52 49 293 50 184 0 234
-3 257 -15z m827 -18 l28 -27 0 -250 0 -250 -28 -27 -27 -28 -240 -3 c-258 -3
-284 1 -312 51 -19 32 -18 483 0 515 27 47 58 52 314 49 l238 -2 27 -28z m790
13 c18 -11 36 -32 40 -47 14 -49 10 -475 -5 -500 -28 -50 -54 -54 -312 -51
l-240 3 -27 28 -28 27 0 249 c0 235 1 250 20 271 11 12 29 26 40 31 11 4 124
8 250 8 212 1 233 -1 262 -19z"/>
<path d="M5142 5750 c-58 -35 -72 -72 -72 -184 0 -126 20 -174 84 -205 52 -26
79 -26 132 -2 69 31 88 70 93 180 4 122 -8 163 -61 201 -51 37 -124 41 -176
10z m149 -59 c28 -29 29 -32 29 -129 0 -85 -3 -103 -20 -125 -26 -32 -79 -44
-121 -27 -48 20 -61 58 -57 167 3 89 5 96 31 119 41 35 99 33 138 -5z"/>
</g>
</svg>
