<svg xmlns="http://www.w3.org/2000/svg" xmlns:xlink="http://www.w3.org/1999/xlink" viewBox="0 0 113.167 124.083" fill="#fff" fill-rule="evenodd" stroke="#000" stroke-linecap="round" stroke-linejoin="round"><use xlink:href="#A" x="2.083" y="1.042"/><symbol id="A" overflow="visible"><g stroke="none" fill-rule="nonzero"><path d="M101.388 89.848c-7.496 18.994-26.313 31.573-48.348 31.573-18.994 0-40.117-12.183-47.613-31.177l-.263-.652c-2.379-5.958-1.994-13.25-1.994-20.067l7.64-67.437 21.308 21a50.31 50.31 0 0 1 19.792-4.042h2.256c7.027 0 13.725 1.438 19.792 4.042L97.354 0l7.75 70.577c.009 6.605-1.243 13.15-3.69 19.285" fill="#f4aa41"/><path d="M53.038 121.419c22.104.712 42.404-12.508 49.9-31.5l.229-.479c2.379-5.958 1.996-14.369 1.996-21.187L97.351.002" fill="#e27022"/></g><g fill="none" stroke-width="4.167"><path d="M108.333 101.015l-19.5-10.833m10.833 21.667l-19.5-10.833M6.858 88.248a49.69 49.69 0 0 1-3.608-18.65l7.583-68.25 22.875 22.323c5.954-2.515 12.5-3.906 19.375-3.906h2.167c6.875 0 13.421 1.392 19.375 3.906L97.5 1.348l7.583 68.25c.009 6.391-1.216 12.724-3.608 18.65m-74.756 23.646c7.905 4.94 17.043 7.552 26.365 7.537h2.167c9.322.016 18.46-2.597 26.365-7.537M0 101.015l19.5-10.833M8.667 111.848l19.5-10.833M94.25 69.286c-6.5-8.667-19.5-8.667-23.833 0m-56.333 0c6.5-8.667 19.5-8.667 23.833 0"/><path d="M53.433 87.523c0 0 22.804 6.923 0 12.054 0 0 22.658 6.475 0 10.646"/></g></symbol></svg>