<svg xmlns="http://www.w3.org/2000/svg" xmlns:xlink="http://www.w3.org/1999/xlink" viewBox="0 0 122.125 106.167" fill="#fff" fill-rule="evenodd" stroke="#000" stroke-linecap="round" stroke-linejoin="round"><use xlink:href="#A" x="1.042" y="2.083"/><symbol id="A" overflow="visible"><g stroke="none" fill-rule="nonzero"><path d="M33.854 6.335l-9.375 3.646L9.375 27.689 0 50.085l4.167 10.938c2.615 7.896 7.34 14.965 15.104 20.833l5.208-6.944s7.962 16.042 22.371 18.667c0 0 21.379 4.033 32.49-1.825 7.125-3.758 9.202-9.202 9.202-9.202l7.119-7.119 3.298 4.86 4.34-.173 11.285-15.104 3.646-11.285-.348-9.375-4.86-11.458-10.069-15.452s-5.556-10.244-17.015-8.16c0 0-13.542-10.069-24.652-8.506s-9.548-2.604-27.431 5.556z" fill="#f4aa41"/><path d="M59.896 74.39l-6.423 5.035h-5.208l-.173 7.985 1.563 7.292 2.256 3.994 5.902 3.127 9.548-1.215 3.298-3.646 2.083-8.854-.521-8.333-4.167.521z" fill="#ea5a47"/><path d="M52.604 52.865l-3.298 7.813 4.515 2.604 2.604 1.042 9.027.348 6.077-4.687-3.646-6.771z" fill="#3f3f3f"/><path d="M46.366 38.677s-3.76 2.587-5.725 1.392c-1.279-.771-2.048-2.167-2.015-3.66s.862-2.855 2.174-3.568 2.905-.671 4.177.112c1.965 1.196 1.392 5.725 1.392 5.725z" fill="#000"/></g><g fill="none" stroke-width="4.167"><path d="M53.875 53.044h12.804c.836 0 1.59.5 1.917 1.269l2.412 5.675-4.542 2.387c-.603.317-1.323.32-1.928.007s-1.019-.902-1.108-1.577"/><path d="M57.313 60.871c-.112.62-.498 1.155-1.05 1.457s-1.212.339-1.794.099l-4.819-1.983 2.292-6.05c.305-.813 1.082-1.352 1.95-1.352m-5.587 27.129s-1.5 18.319 6.265 20.704c5.512 1.694 10.729 1.108 12.631-.521 1.823-1.562 5.483-9.321 3.806-20.181"/></g><path d="M77.113 38.677s3.76 2.587 5.725 1.392c1.279-.771 2.048-2.167 2.015-3.66s-.862-2.855-2.174-3.568-2.905-.671-4.177.112c-1.965 1.198-1.392 5.725-1.392 5.725z" stroke="none" fill="#000" fill-rule="nonzero"/><g fill="none" stroke-width="4.167"><path d="M38.281 65.198c-.99 7.504 4.654 11.979 8.927 14.25 2.494 1.327 5.521 1.079 7.746-.663l5.375-4.215 5.375 4.215c2.223 1.742 5.25 1.99 7.746.663 4.271-2.292 9.917-6.75 8.927-14.25M26.458 35.025c-4.827 10.75-1.058 27.135.25 32.033.252.948.158 1.955-.265 2.84l-4.142 8.758c-1.298 2.74-4.985 3.235-6.937.917-6.65-7.89-17.829-23.75-13.646-34.762C16.433 6.06 34.777 7.013 34.777 7.013c5.927-4.029 27.3-14.452 51.694 1.823 0 0 17.983-3.577 31.121 35.288 3.758 11.117-7.146 26.806-13.646 34.675-1.937 2.348-5.658 1.862-6.962-.89l-4.112-8.679c-.425-.884-.519-1.892-.265-2.84 1.308-4.896 5.075-21.283.25-32.033m1.688 38.39s-6.413 14.004-16.26 17.229M25.39 73.802s6.412 12.671 16.26 15.9"/><path d="M60.329 74.573V68.26"/></g></symbol></svg>