<?xml version="1.0" standalone="no"?>
<!DOCTYPE svg PUBLIC "-//W3C//DTD SVG 20010904//EN"
 "http://www.w3.org/TR/2001/REC-SVG-20010904/DTD/svg10.dtd">
<svg version="1.0" xmlns="http://www.w3.org/2000/svg"
 width="225.000000pt" height="225.000000pt" viewBox="0 0 225.000000 225.000000"
 preserveAspectRatio="xMidYMid meet">

<g transform="translate(0.000000,225.000000) scale(0.100000,-0.100000)"
fill="#000000" stroke="none">
<path d="M90 1826 c0 -23 78 -118 506 -616 l81 -96 -293 -329 c-238 -266 -294
-334 -294 -357 l0 -28 580 0 c319 0 580 3 580 8 0 4 16 97 35 207 19 110 35
203 35 208 0 4 -13 7 -29 7 -24 0 -31 -5 -36 -30 -3 -16 -24 -56 -45 -90 -77
-118 -127 -130 -549 -130 l-311 0 258 295 c141 163 258 299 260 304 1 4 -101
134 -227 287 l-229 279 271 3 c321 4 361 -2 417 -58 37 -37 76 -121 87 -187 5
-29 10 -33 35 -33 29 0 30 1 24 38 -3 20 -8 89 -11 152 -3 63 -8 132 -11 153
l-6 37 -564 0 -564 0 0 -24z"/>
<path d="M1457 1554 c-4 -4 -7 -40 -7 -81 l0 -73 -70 0 c-68 0 -70 -1 -70 -25
0 -24 2 -25 70 -25 l70 0 0 -74 c0 -76 6 -91 34 -80 13 5 16 22 16 80 l0 73
78 3 c71 3 77 5 80 26 3 21 1 22 -77 22 l-80 0 -3 77 c-2 61 -6 78 -18 81 -9
1 -19 0 -23 -4z"/>
<path d="M1671 1134 c-256 -396 -262 -407 -244 -426 18 -18 26 -7 285 394 263
407 279 438 233 438 -7 0 -130 -183 -274 -406z"/>
<path d="M1782 1068 c3 -23 5 -23 182 -26 182 -3 202 1 189 35 -4 10 -45 13
-190 13 l-184 0 3 -22z"/>
<path d="M1790 925 c-7 -8 -10 -22 -6 -30 8 -22 364 -22 372 0 4 8 1 22 -6 30
-18 22 -342 22 -360 0z"/>
</g>
</svg>
