<svg xmlns="http://www.w3.org/2000/svg" xmlns:xlink="http://www.w3.org/1999/xlink" viewBox="0 0 105.083 134.083" fill="#fff" fill-rule="evenodd" stroke="#000" stroke-linecap="round" stroke-linejoin="round"><use xlink:href="#A" x="1.042" y="1.042"/><symbol id="A" overflow="visible"><g stroke="none" fill-rule="nonzero"><path d="M12.052 1.329L5.129 9.75.733 36.615 5.941 61.44.733 71.931l1.006 23.725 4.654 9.375s14.44-6.944 18.256 8.16l26.879 7.985 27.533-8.854 1.49-5.083L88 102.49l7.34 1.142 5.358-12.771 1.327-13.094-3.583-13.698-1.621-2.633 3.015-9.931.454-18.631-2.006-20.465-3.571-8.05L89.212 0 78.41 13.704 66.989 27.677h-2.756l-10.75-2.937-19.112 1.208-9.896-10.496-6.823-10.765-5.625-3.354" fill="#e27022"/><path d="M0 84.198c12.588-1.365 24.979 9.462 33.313 20.837l12.521 4.683 5.535 1.583 6.358-1.758 11.896-4.342s10.59-23.437 33.158-21.125l-4.34 17.196-3.521 3.585-6.639-1.758-6.379 2.89-3.16 6.438s-7.385 9.281-26.808 9.271c-12.142-.008-25.542-2.865-28.069-9.342-1.792-4.598-7.979-10.494-7.979-10.494l-9.36.742L0 84.198z"/><path d="M36.371 117.271s-.769 7.379 2.871 10.504 13.363 3.558 13.363 3.558l12.412-3.733s3.558-3.473 1.823-10.417l-5.729 1.65-13.535.433-11.204-1.996z" fill="#d0cfce"/><path d="M96.525 5.64l-6.333 4.254-9.287 12.413-3.213 14.844.433 4.079s10.417 17.448 23.438.608l-1.215-17.881-1.91-15.104-1.91-3.212zm-90.417 0l6.337 4.254 9.288 12.413 3.212 14.844-.433 4.079s-10.417 17.448-23.437.608L2.29 23.957 4.2 8.853 6.11 5.64z"/><path d="M36.89 77.108s-6.333 3.333-9.396 2.119-4.646-4.458-3.542-7.246 4.483-4.062 7.546-2.854 5.392 7.979 5.392 7.979z" fill="#000"/></g><path d="M51.367 108.879c-3.152-.49-5.7-1.902-7.583-4.323v-1.454M11.621 11.707s16.15 12.323 11.092 28.473m2.848 71.125c-3.1-6.875-9.333-9.135-10.804-8.808l-7.34 1.142C1.871 98.092.892 82.429.892 82.429-.012 72.492 3.038 65.604 5.94 61.44l-.806-1.521c-5.221-12.887-2.121-32.625-.979-45.208.829-9.108 5.431-12.325 7.917-13.404.865-.379 1.867-.125 2.458.613 2.7 3.375 11.075 13.696 19.008 21.765 3.504 3.542 5.104 6.712 5.725 9.275" stroke-width="4.167" fill="none" stroke-miterlimit="10"/><path d="M65.869 77.108s6.333 3.333 9.396 2.119 4.646-4.458 3.542-7.246-4.483-4.062-7.546-2.854-5.392 7.979-5.392 7.979z" stroke="none" fill="#000" fill-rule="nonzero"/><path d="M51.531 118.833v-9.958c3.152-.49 5.698-1.902 7.583-4.323v-1.454m8.405-8.331l2.448 12.16s0 13.867-15.5 12.723h-6.038c-15.5 1.142-15.5-12.723-15.5-12.723l2.448-12.16m55.76-83.058s-16.15 12.323-11.092 28.473m-2.848 71.125c3.1-6.875 9.333-9.135 10.804-8.808l7.34 1.142c5.546-5.546 6.525-21.208 6.525-21.208.904-9.937-2.146-16.821-5.046-20.988l.804-1.525c5.221-12.887 2.121-32.625.979-45.208-.829-9.108-5.431-12.325-7.917-13.404-.865-.379-1.867-.125-2.458.613-2.7 3.375-11.075 13.696-19.008 21.765-3.608 3.671-5.2 6.9-5.777 9.5m-.279 93.427c-7.925 4.271-15.454 4.375-22.512 0m-3.84-98.954s12.615-6.633 28.708-.217" stroke-width="4.167" fill="none"/></symbol></svg>