<svg version="1.1" xmlns="http://www.w3.org/2000/svg" width="1024" height="1024">
<path d="M0 0 C337.92 0 675.84 0 1024 0 C1024 337.92 1024 675.84 1024 1024 C686.08 1024 348.16 1024 0 1024 C0 686.08 0 348.16 0 0 Z " fill="#FEFDF4" transform="translate(0,0)"/>
<path d="M0 0 C2.299 0.031 4.597 0.041 6.896 0.047 C43.581 0.236 77.546 14.108 104.439 39.203 C106.488 41.112 108.59 42.917 110.732 44.719 C167.666 94.72 189.791 189.502 199.061 261.738 C199.611 266.015 200.367 270.233 201.17 274.469 C202.527 281.786 203.442 289.139 204.295 296.531 C204.418 297.596 204.541 298.661 204.668 299.759 C205.857 310.396 206.693 321.002 206.961 331.704 C207.398 348.985 208.929 366.092 210.67 383.281 C210.837 385.014 211.003 386.747 211.17 388.48 C212.052 397.179 213.664 405.638 215.572 414.16 C216.359 417.695 217.026 421.24 217.658 424.805 C219.3 433.977 221.584 442.88 224.107 451.844 C224.687 453.926 225.264 456.008 225.841 458.09 C226.224 459.47 226.609 460.848 226.995 462.227 C228.249 466.71 229.423 471.209 230.58 475.719 C232.838 484.213 235.719 492.446 238.67 500.719 C239.24 502.331 239.811 503.942 240.381 505.554 C245.128 518.933 250.079 532.234 255.111 545.508 C261.829 563.261 261.829 563.261 264.17 571.969 C264.377 572.728 264.584 573.488 264.798 574.271 C271.878 600.41 271.878 600.41 271.67 612.281 C272.483 612.522 273.297 612.763 274.135 613.012 C319.026 629.133 354.437 664.832 374.545 707.156 C377.423 713.379 379.658 719.733 381.67 726.281 C382.165 727.783 382.665 729.283 383.17 730.781 C383.393 731.456 383.617 732.13 383.847 732.825 C384.414 734.518 384.994 736.206 385.584 737.891 C388.124 745.249 390.076 752.616 391.732 760.219 C392.118 761.969 392.118 761.969 392.51 763.756 C396.084 780.396 398.762 797.481 398.982 814.531 C399.011 815.294 399.04 816.058 399.07 816.844 C399.13 822.135 398.19 825.096 394.67 829.281 C391.507 831.39 390.79 831.529 387.183 831.515 C386.26 831.516 385.337 831.518 384.386 831.519 C383.372 831.51 382.359 831.501 381.315 831.492 C379.707 831.49 379.707 831.49 378.067 831.488 C375.716 831.484 373.366 831.475 371.015 831.462 C367.188 831.441 363.361 831.432 359.534 831.426 C351.953 831.411 344.373 831.382 336.792 831.352 C325.492 831.307 314.192 831.277 302.893 831.254 C302.222 831.252 301.551 831.251 300.86 831.25 C282.769 831.213 264.681 831.271 246.591 831.498 C245.73 831.509 244.868 831.52 243.981 831.531 C240.398 831.576 236.815 831.622 233.231 831.668 C183.127 832.309 133.028 832.431 82.92 832.417 C74.881 832.414 66.842 832.414 58.803 832.415 C57.053 832.415 57.053 832.415 55.267 832.416 C52.894 832.416 50.521 832.416 48.148 832.417 C26.269 832.419 4.391 832.416 -17.488 832.411 C-36.235 832.406 -54.982 832.407 -73.729 832.412 C-95.699 832.417 -117.669 832.419 -139.639 832.416 C-141.973 832.416 -144.306 832.415 -146.64 832.415 C-147.788 832.415 -148.935 832.415 -150.117 832.415 C-158.188 832.414 -166.258 832.415 -174.328 832.418 C-184.097 832.42 -193.865 832.42 -203.634 832.414 C-208.611 832.412 -213.588 832.411 -218.564 832.414 C-223.109 832.417 -227.653 832.415 -232.197 832.41 C-233.847 832.409 -235.497 832.409 -237.147 832.412 C-239.373 832.415 -241.6 832.412 -243.827 832.407 C-245.067 832.407 -246.308 832.407 -247.587 832.407 C-250.33 832.281 -250.33 832.281 -251.33 831.281 C-252.979 831.194 -254.632 831.177 -256.283 831.188 C-257.892 831.195 -257.892 831.195 -259.533 831.201 C-260.72 831.211 -261.907 831.221 -263.13 831.231 C-264.372 831.237 -265.614 831.244 -266.894 831.25 C-269.602 831.264 -272.311 831.28 -275.019 831.298 C-279.3 831.326 -283.582 831.343 -287.863 831.357 C-289.328 831.362 -290.793 831.368 -292.257 831.373 C-292.991 831.375 -293.724 831.378 -294.48 831.381 C-304.452 831.417 -314.424 831.462 -324.396 831.528 C-331.117 831.573 -337.837 831.603 -344.558 831.617 C-348.117 831.625 -351.674 831.641 -355.233 831.674 C-359.202 831.71 -363.172 831.716 -367.142 831.719 C-368.323 831.735 -369.504 831.751 -370.72 831.768 C-371.802 831.764 -372.883 831.76 -373.996 831.756 C-374.935 831.761 -375.874 831.766 -376.842 831.771 C-380.084 831.133 -381.257 829.794 -383.33 827.281 C-384.866 824.21 -384.555 820.975 -384.604 817.602 C-384.616 816.814 -384.628 816.027 -384.641 815.215 C-385.009 786.221 -382.996 757.139 -374.33 729.281 C-374.091 728.495 -373.852 727.71 -373.605 726.9 C-367.464 707.091 -358.736 687.957 -346.33 671.281 C-345.892 670.685 -345.454 670.089 -345.002 669.475 C-321.992 638.41 -288.765 620.221 -253.33 606.281 C-253.255 605.358 -253.181 604.435 -253.104 603.484 C-250.205 574.731 -236.839 547.743 -225.391 521.572 C-219.453 507.977 -213.988 494.368 -209.33 480.281 C-208.796 478.676 -208.262 477.071 -207.728 475.466 C-207.493 474.758 -207.258 474.051 -207.016 473.322 C-206.338 471.306 -205.639 469.299 -204.936 467.293 C-201.173 456.058 -198.992 444.694 -197.08 433.031 C-196.955 432.273 -196.831 431.515 -196.702 430.734 C-193.128 408.782 -191.196 387.263 -191.191 365.01 C-191.188 359.181 -191.164 353.352 -191.142 347.522 C-191.136 345.695 -191.136 345.695 -191.129 343.831 C-190.913 286.977 -189.16 231.595 -178.75 175.563 C-178.215 172.653 -177.703 169.739 -177.192 166.825 C-171.343 133.635 -163.348 98.107 -143.33 70.281 C-142.889 69.664 -142.448 69.047 -141.994 68.411 C-136.32 60.516 -130.68 52.714 -123.33 46.281 C-122.122 45.214 -122.122 45.214 -120.889 44.125 C-104.438 30.141 -83.696 17.42 -61.643 16.969 C-54.923 16.801 -51.092 15.481 -45.904 11.191 C-42.811 8.896 -39.572 7.442 -36.018 6.031 C-34.291 5.343 -34.291 5.343 -32.529 4.641 C-21.618 0.931 -11.422 -0.156 0 0 Z " fill="#070505" transform="translate(502.330078125,142.71875)"/>
<path d="M0 0 C5.588 3.357 10.035 7.906 14.52 12.586 C28.18 25.74 48.851 30.948 67 34 C68.065 34.183 69.13 34.366 70.227 34.555 C100.557 38.134 134.372 31.773 159 13 C161.684 10.75 164.28 8.457 166.816 6.043 C171.415 1.74 174.458 -1 181 -1 C186.081 1.59 189.472 5.042 192.086 10.102 C193.342 14.084 193.382 17.783 193.375 21.938 C193.375 22.808 193.375 23.678 193.375 24.575 C193.199 34.932 191.058 44.885 189 55 C187.286 63.815 186.757 72.475 186.625 81.438 C186.599 82.469 186.573 83.501 186.546 84.564 C186.528 92.478 187.966 96.517 193.219 102.547 C193.972 103.274 194.724 104.001 195.5 104.75 C196.253 105.487 197.006 106.225 197.781 106.984 C199.864 109.018 199.864 109.018 202.075 110.206 C204.875 112.816 204.707 114.95 205.012 118.715 C205.07 119.367 205.129 120.019 205.189 120.691 C205.373 122.772 205.531 124.854 205.688 126.938 C205.86 129.016 206.038 131.095 206.218 133.173 C206.379 135.061 206.527 136.95 206.675 138.84 C206.934 141.358 207.301 143.581 208 146 C208.841 149.604 209.015 152.41 208 156 C204.574 160.102 200.381 163.011 196 166 C195.352 166.45 194.704 166.9 194.037 167.364 C163.183 188.634 127.613 202.741 89.812 202.438 C89.004 202.434 88.195 202.431 87.362 202.428 C74.552 202.357 62.385 201.504 50 198 C49.19 197.775 48.38 197.55 47.545 197.318 C41.961 195.734 36.468 193.945 31 192 C30.338 191.766 29.676 191.531 28.994 191.29 C7.258 183.44 -11.747 171.211 -29 156 C-30.158 155.025 -30.158 155.025 -31.34 154.031 C-35.437 150.571 -38.987 146.881 -42.465 142.801 C-44.215 140.748 -45.982 138.794 -48 137 C-48.66 137 -49.32 137 -50 137 C-49.724 143.63 -47.255 147.048 -43 152 C-42.325 152.797 -41.649 153.593 -40.953 154.414 C-12.178 187.373 32.082 207.218 75.328 210.827 C88.848 211.702 102.607 211.631 115.983 209.342 C117.385 209.104 118.79 208.883 120.196 208.674 C141.312 205.516 161.334 197.195 180 187 C181.013 186.462 182.026 185.925 183.07 185.371 C190.061 181.503 196.358 176.887 202.658 171.999 C203.634 171.245 203.634 171.245 204.629 170.477 C205.207 170.024 205.785 169.571 206.381 169.104 C208 168 208 168 211 167 C211.233 168.084 211.467 169.168 211.707 170.285 C217.148 194.275 226.464 217.049 235.925 239.681 C241.054 251.972 245.688 264.398 250 277 C250.427 278.204 250.853 279.408 251.293 280.648 C252.333 283.748 253.206 286.828 254 290 C254.179 290.715 254.358 291.429 254.542 292.166 C261.374 320.602 259.393 348.825 249 376 C250.65 376 252.3 376 254 376 C254 376.33 254 376.66 254 377 C199.875 377.023 145.749 377.04 91.624 377.051 C85.241 377.052 78.858 377.054 72.475 377.055 C70.569 377.055 70.569 377.055 68.625 377.056 C48.02 377.06 27.415 377.068 6.81 377.077 C-14.316 377.086 -35.441 377.092 -56.567 377.094 C-69.614 377.095 -82.661 377.1 -95.708 377.108 C-104.641 377.113 -113.575 377.115 -122.509 377.114 C-127.671 377.113 -132.834 377.114 -137.996 377.119 C-142.714 377.124 -147.432 377.124 -152.15 377.121 C-153.865 377.12 -155.58 377.122 -157.294 377.125 C-159.609 377.129 -161.924 377.127 -164.24 377.123 C-166.176 377.124 -166.176 377.124 -168.151 377.124 C-171 377 -171 377 -172 376 C-173.556 375.892 -175.116 375.853 -176.676 375.842 C-177.687 375.832 -178.698 375.822 -179.74 375.812 C-181.418 375.803 -181.418 375.803 -183.129 375.795 C-184.3 375.785 -185.47 375.775 -186.676 375.765 C-189.895 375.738 -193.114 375.717 -196.333 375.697 C-199.694 375.675 -203.054 375.647 -206.415 375.621 C-212.782 375.571 -219.15 375.526 -225.518 375.483 C-232.766 375.433 -240.013 375.378 -247.261 375.323 C-262.174 375.209 -277.087 375.102 -292 375 C-291.34 374.67 -290.68 374.34 -290 374 C-290.021 372.733 -290.042 371.467 -290.063 370.162 C-290.436 345.46 -290.615 321.361 -286 297 C-285.85 296.176 -285.701 295.353 -285.547 294.504 C-277.866 253.469 -256.865 213.068 -222 189 C-217.13 185.772 -212.11 182.829 -207 180 C-206.41 179.673 -205.82 179.346 -205.211 179.01 C-179.716 165.14 -151.493 156.441 -124.198 146.899 C-117.182 144.437 -110.213 141.871 -103.266 139.22 C-101.189 138.444 -99.098 137.701 -96.993 137.002 C-49.142 121.114 -49.142 121.114 -12 89 C-10.776 75.998 -13.356 63.593 -16.09 50.961 C-17.981 42.009 -19.38 33.359 -19.438 24.188 C-19.447 23.382 -19.457 22.577 -19.468 21.747 C-19.346 13.434 -16.838 6.981 -11 1 C-7.364 -1.787 -4.299 -1.146 0 0 Z " fill="#3E67A9" transform="translate(423,598)"/>
<path d="M0 0 C1.789 0.01 1.789 0.01 3.614 0.021 C44.587 0.502 81.404 20.521 109.847 48.973 C138.537 78.47 155.191 118.341 166.688 157.25 C166.908 157.992 167.129 158.734 167.356 159.499 C171.454 173.333 174.99 187.259 178.25 201.312 C178.608 202.846 178.608 202.846 178.972 204.411 C182.741 220.616 186.171 236.798 188.688 253.25 C188.831 254.162 188.974 255.074 189.122 256.013 C192.812 279.785 194.624 303.737 195.688 327.75 C197.184 361.189 200.725 394.039 208.122 426.743 C208.768 429.606 209.395 432.473 210.023 435.34 C217.757 470.19 229.876 503.312 242.688 536.562 C248.264 551.036 253.48 565.464 257.562 580.438 C257.778 581.217 257.994 581.996 258.217 582.799 C259.428 587.424 259.903 591.469 259.688 596.25 C255.337 595.588 251.527 594.094 247.562 592.25 C246.942 591.996 246.322 591.742 245.684 591.48 C243.044 590.237 241.052 589.063 239.834 586.348 C239.622 585.617 239.409 584.886 239.19 584.133 C237.797 579.59 236.183 575.183 234.465 570.754 C234.012 569.58 234.012 569.58 233.551 568.382 C232.577 565.858 231.601 563.335 230.625 560.812 C229.948 559.057 229.271 557.302 228.594 555.546 C226.627 550.446 224.658 545.348 222.688 540.25 C212.901 514.92 212.901 514.92 208.812 503.812 C208.531 503.047 208.249 502.281 207.958 501.492 C206.762 498.227 205.586 494.959 204.441 491.676 C203.914 490.166 203.914 490.166 203.375 488.625 C203.09 487.787 202.805 486.949 202.512 486.086 C201.835 484.06 201.835 484.06 199.688 483.25 C205.15 509.648 214.578 535.084 223.551 560.445 C223.964 561.613 223.964 561.613 224.385 562.804 C226.216 567.963 228.098 573.099 230.048 578.214 C230.688 580.25 230.688 580.25 230.688 583.25 C228.379 582.746 228.379 582.746 225.688 581.25 C224.415 578.547 223.487 576.142 222.625 573.312 C222.111 571.746 221.597 570.18 221.082 568.613 C220.84 567.855 220.599 567.096 220.35 566.315 C219.561 563.855 218.702 561.426 217.812 559 C217.502 558.138 217.191 557.275 216.871 556.387 C215.921 553.87 214.93 551.383 213.91 548.895 C208.037 534.344 204.203 519.524 200.688 504.25 C200.411 503.114 200.411 503.114 200.129 501.956 C198.586 495.459 197.682 488.873 196.743 482.266 C196.21 478.527 195.662 474.789 195.117 471.051 C195.003 470.264 194.888 469.478 194.77 468.668 C193.518 460.065 192.248 451.466 190.948 442.87 C190.694 441.183 190.442 439.496 190.193 437.808 C188.859 428.785 187.424 419.98 184.688 411.25 C184.054 456.79 189.159 502.458 204.697 545.489 C205.707 548.304 206.68 551.13 207.645 553.961 C208.263 555.766 208.881 557.57 209.5 559.375 C209.778 560.187 210.056 560.999 210.342 561.835 C211.53 565.235 212.76 568.393 214.387 571.617 C215.688 574.25 215.688 574.25 215.688 577.25 C190.361 569.252 190.361 569.252 185.652 562.203 C184.937 559.124 184.768 556.404 184.688 553.25 C184.207 551.334 183.725 549.418 183.218 547.508 C182.193 543.145 181.731 538.694 181.188 534.25 C180.996 532.729 180.996 532.729 180.801 531.178 C180.546 529.142 180.292 527.106 180.04 525.07 C179.734 522.618 179.414 520.168 179.086 517.719 C177.336 504.566 176.486 491.519 176.688 478.25 C176.027 478.25 175.368 478.25 174.688 478.25 C171.692 499.724 171.488 521.639 174.405 543.134 C174.694 545.302 174.949 547.472 175.195 549.645 C176.005 556.628 177.085 563.408 178.688 570.25 C179.006 571.636 179.006 571.636 179.331 573.05 C180.044 576.14 180.771 579.226 181.5 582.312 C181.735 583.33 181.971 584.348 182.213 585.396 C184.101 593.358 186.442 601.135 188.941 608.92 C189.75 611.445 190.552 613.972 191.352 616.5 C192.858 621.255 194.369 626.008 195.881 630.761 C196.819 633.707 197.755 636.653 198.691 639.6 C199.297 641.503 199.902 643.406 200.508 645.309 C200.783 646.174 201.058 647.04 201.341 647.932 C203.523 654.781 205.769 661.605 208.117 668.398 C222.5 710.247 233.049 765.332 213.688 807.25 C212.336 809.921 210.927 812.557 209.5 815.188 C208.242 817.518 206.984 819.849 205.688 822.25 C195.457 822.25 185.227 822.25 174.688 822.25 C176.997 818.29 179.308 814.33 181.688 810.25 C183.226 806.645 183.226 806.645 184.062 803.438 C184.359 802.42 184.655 801.403 184.961 800.355 C190.963 774.699 186.196 746.118 178.688 721.25 C178.44 720.419 178.192 719.588 177.937 718.731 C173.05 702.618 166.752 687.068 160.411 671.486 C156.611 662.14 152.994 652.784 149.688 643.25 C149.147 641.751 148.606 640.252 148.062 638.754 C140.679 617.872 137.437 596.155 134.688 574.25 C134.507 572.863 134.507 572.863 134.324 571.447 C130.391 540.386 132.263 508.145 137.953 477.395 C138.633 473.7 139.13 469.997 139.609 466.272 C141.627 450.796 144.971 435.568 148.244 420.319 C148.669 418.337 149.092 416.355 149.514 414.372 C154.094 392.966 154.094 392.966 157.125 382.438 C165.644 352.734 174.947 319.39 173.702 288.301 C173.498 282.106 174.452 277.782 177.309 272.191 C182.993 260.066 185.193 244.4 180.719 231.66 C176.515 221.836 171.524 216.658 162 211.91 C159.067 209.805 158.88 208.631 158.25 205.125 C157.13 199.93 155.707 195.002 153.938 190 C153.685 189.284 153.433 188.568 153.174 187.83 C151.569 183.388 149.749 179.098 147.767 174.813 C143.679 165.975 142.697 159.954 144.688 150.25 C146.292 152.657 147.324 154.578 148.387 157.215 C148.705 158.005 149.024 158.795 149.352 159.609 C149.69 160.46 150.027 161.311 150.375 162.188 C150.727 163.071 151.08 163.955 151.443 164.865 C154.223 171.914 156.773 179.03 159.237 186.194 C161.561 192.945 164.058 199.611 166.688 206.25 C166.937 200.572 166.063 195.731 164.625 190.25 C164.405 189.394 164.186 188.538 163.959 187.657 C162.158 180.771 160.178 173.94 158.125 167.125 C157.704 165.723 157.704 165.723 157.275 164.293 C155.665 159.054 153.833 153.981 151.752 148.912 C150.563 145.94 149.472 142.942 148.391 139.93 C144.241 128.397 140.068 117.11 134.281 106.289 C132.896 103.647 131.733 101.041 130.688 98.25 C130.027 98.25 129.368 98.25 128.688 98.25 C129.787 101.439 130.893 104.626 132 107.812 C132.463 109.155 132.463 109.155 132.936 110.525 C134.283 114.399 135.62 118.181 137.406 121.875 C138.971 125.996 139.03 129.335 138.875 133.688 C138.861 134.419 138.848 135.151 138.834 135.904 C138.799 137.687 138.745 139.468 138.688 141.25 C138.027 141.25 137.368 141.25 136.688 141.25 C136.498 140.643 136.308 140.037 136.112 139.412 C127.472 112.074 116.827 84.82 98.688 62.25 C98.028 61.92 97.368 61.59 96.688 61.25 C97.059 61.942 97.431 62.634 97.814 63.348 C111.407 88.783 123.096 114.844 130.688 142.75 C130.908 143.546 131.128 144.342 131.355 145.161 C132.331 148.923 132.841 151.538 131.688 155.25 C131.021 154.174 130.355 153.097 129.668 151.988 C123.653 142.406 117.301 133.617 109.688 125.25 C109.07 124.55 108.453 123.85 107.816 123.129 C102.894 117.855 97.123 113.699 91.383 109.372 C74.142 96.327 57.83 81.481 44.688 64.25 C53.09 83.248 70.192 98.809 86.062 111.625 C103.318 125.632 117.126 140.931 126.688 161.25 C111.23 159.012 102.641 150.666 93.312 138.688 C87.319 131.147 79.203 124.769 70.688 120.25 C69.697 120.25 68.707 120.25 67.688 120.25 C74.989 127.643 82.751 134.548 90.688 141.25 C87.688 142.25 87.688 142.25 85.841 141.573 C84.814 141.013 84.814 141.013 83.766 140.441 C82.995 140.028 82.224 139.615 81.43 139.189 C80.608 138.735 79.785 138.281 78.938 137.812 C77.211 136.876 75.484 135.94 73.758 135.004 C72.9 134.535 72.041 134.066 71.157 133.583 C68.972 132.404 66.774 131.266 64.555 130.152 C55.794 125.727 48.234 120.518 40.688 114.25 C39.865 113.581 39.043 112.912 38.195 112.223 C32.239 107.183 27.434 101.423 22.688 95.25 C22.018 94.385 21.349 93.52 20.66 92.629 C11.013 79.773 3.532 65.505 -4.172 51.441 C-4.793 50.312 -5.415 49.183 -6.055 48.02 C-6.61 47.005 -7.166 45.99 -7.738 44.945 C-9.129 42.564 -10.604 40.41 -12.312 38.25 C-10.735 45.28 -8.455 51.393 -5.102 57.762 C-3.752 60.394 -2.49 63.015 -1.273 65.707 C5.101 79.764 12.759 92.375 22.688 104.25 C23.664 105.428 23.664 105.428 24.66 106.629 C41.744 126.441 65.706 140.834 90.877 147.755 C92.495 148.204 94.094 148.721 95.688 149.25 C96.018 149.91 96.347 150.57 96.688 151.25 C95.975 151.108 95.262 150.966 94.528 150.819 C86.76 149.382 79.325 148.975 71.438 149.062 C70.319 149.063 69.2 149.064 68.047 149.064 C63.35 149.089 58.89 149.146 54.273 150.043 C50.373 150.268 49.007 149.65 46.072 147.136 C45.574 146.679 45.076 146.221 44.562 145.75 C37.135 139.49 28.479 133.73 18.688 132.25 C22.482 136.337 26.489 139.273 31.188 142.25 C35.886 145.227 39.893 148.163 43.688 152.25 C42.928 152.721 42.169 153.191 41.387 153.676 C39.896 154.61 39.896 154.61 38.375 155.562 C37.389 156.177 36.403 156.792 35.387 157.426 C32.725 159.032 32.725 159.032 31.309 160.961 C28.59 163.123 25.382 162.647 22.062 162.562 C21.342 162.549 20.621 162.536 19.879 162.522 C11.357 162.283 5.076 161.678 -1.289 155.527 C-28.581 124.81 -34.466 82.43 -39.312 43.25 C-39.642 43.25 -39.972 43.25 -40.312 43.25 C-41.304 84.189 -37.387 121.883 -10.965 155.125 C-9.312 157.25 -9.312 157.25 -9.312 158.25 C-20.686 157.516 -28.774 153.749 -37.312 146.25 C-37.918 145.738 -38.524 145.226 -39.148 144.699 C-54.508 130.694 -60.667 108.516 -61.598 88.384 C-61.747 83.401 -61.732 78.422 -61.688 73.438 C-61.685 72.568 -61.682 71.699 -61.678 70.803 C-61.562 41.999 -61.562 41.999 -57.312 29.25 C-62.33 32.656 -64.963 36.926 -68.062 42 C-68.587 42.848 -69.111 43.697 -69.652 44.571 C-71.219 47.123 -72.768 49.684 -74.312 52.25 C-74.736 52.948 -75.16 53.645 -75.597 54.364 C-95.862 87.951 -105.853 125.325 -107.312 164.25 C-111.41 165.953 -115.517 167.635 -119.625 169.312 C-120.792 169.798 -121.959 170.283 -123.162 170.783 C-124.28 171.238 -125.399 171.692 -126.551 172.16 C-127.582 172.584 -128.614 173.009 -129.677 173.446 C-132.312 174.25 -132.312 174.25 -135.312 173.25 C-136.814 170.807 -138.113 168.437 -139.375 165.875 C-139.902 164.875 -139.902 164.875 -140.439 163.855 C-145.053 154.628 -145.684 144.924 -145.625 134.75 C-145.619 133.708 -145.614 132.667 -145.608 131.593 C-145.365 115.842 -142.293 101.87 -136.956 87.109 C-136.168 84.832 -135.58 82.525 -135 80.188 C-132.947 73.008 -128.82 66.48 -125.205 59.992 C-124.175 58.09 -124.175 58.09 -123.312 55.25 C-124.303 55.25 -125.293 55.25 -126.312 55.25 C-111.464 34.452 -89.134 22.446 -64.688 16.625 C-62.086 16.214 -59.632 16.152 -57 16.188 C-55.675 16.201 -55.675 16.201 -54.324 16.215 C-53.328 16.232 -53.328 16.232 -52.312 16.25 C-51.945 15.335 -51.945 15.335 -51.57 14.402 C-48.07 8.413 -38.685 6.573 -32.375 4.562 C-31.744 4.36 -31.113 4.158 -30.462 3.949 C-20.343 0.872 -10.555 -0.086 0 0 Z " fill="#F77E2A" transform="translate(503.3125,151.75)"/>
<path d="M0 0 C1.898 1.098 1.898 1.098 3.312 2.812 C4.009 6.064 4.129 9.118 4.195 12.441 C4.688 26.607 13.603 40.519 23.625 50 C29.641 55.091 36.091 58.701 43.312 61.812 C44.077 62.154 44.841 62.496 45.629 62.848 C59.867 68.171 77.341 65.208 90.812 59.27 C107.319 50.921 115.947 38.973 121.698 21.812 C122.713 18.511 123.516 15.172 124.312 11.812 C124.642 11.812 124.973 11.812 125.312 11.812 C125.823 23.867 125.072 35.553 123.438 47.5 C123.264 48.776 123.09 50.051 122.911 51.366 C121.976 57.929 120.841 64.365 119.312 70.812 C118.95 72.498 118.591 74.184 118.234 75.871 C110.691 110.831 97.154 141.745 72.312 167.812 C71.313 168.891 71.313 168.891 70.293 169.992 C60.18 180.595 48.211 188.091 35.312 194.812 C33.692 195.681 33.692 195.681 32.039 196.566 C12.476 206.397 -10.339 207.901 -31.18 201.43 C-38.395 198.963 -45.049 195.529 -51.688 191.812 C-52.756 191.234 -53.825 190.655 -54.926 190.059 C-65.395 184.206 -74.663 176.988 -83.453 168.855 C-85.337 167.133 -87.259 165.531 -89.25 163.938 C-94.067 159.831 -97.797 154.772 -101.688 149.812 C-102.404 148.907 -103.121 148.002 -103.86 147.069 C-109.31 140.017 -113.722 132.815 -117.75 124.875 C-118.349 123.705 -118.949 122.535 -119.566 121.329 C-124.743 111.103 -129.062 100.68 -132.688 89.812 C-133.069 88.683 -133.451 87.554 -133.844 86.391 C-139.963 66.551 -145.01 44.678 -144.688 23.812 C-142.143 26.357 -141.181 28.972 -139.688 32.25 C-131.883 48.45 -118.16 58.031 -101.551 63.926 C-88.801 66.852 -73.656 66.207 -61.688 60.812 C-60.752 60.4 -59.816 59.988 -58.852 59.562 C-44.713 52.592 -34.955 41.256 -29.875 26.438 C-27.756 19.641 -26.486 12.879 -25.688 5.812 C-23.544 7.524 -22.752 8.392 -22.327 11.147 C-22.333 12.064 -22.34 12.982 -22.347 13.927 C-22.347 14.967 -22.347 16.008 -22.348 17.081 C-22.363 18.203 -22.379 19.325 -22.395 20.48 C-22.399 21.63 -22.403 22.78 -22.407 23.965 C-22.424 27.644 -22.462 31.322 -22.5 35 C-22.515 37.492 -22.529 39.983 -22.541 42.475 C-22.574 48.587 -22.624 54.7 -22.688 60.812 C-21.368 60.812 -20.048 60.812 -18.688 60.812 C-17.629 57.637 -17.485 55.183 -17.371 51.844 C-17.329 50.641 -17.287 49.438 -17.243 48.199 C-17.204 46.916 -17.165 45.634 -17.125 44.312 C-17.084 43.01 -17.043 41.707 -17.001 40.365 C-16.776 32.828 -16.567 25.291 -16.5 17.75 C-16.481 16.611 -16.481 16.611 -16.461 15.449 C-16.454 11.751 -16.54 8.903 -18.688 5.812 C-20.721 4.078 -20.721 4.078 -22.688 2.812 C-16.318 -2.849 -7.874 -2.681 0 0 Z " fill="#FBD0B5" transform="translate(515.6875,374.1875)"/>
<path d="M0 0 C1.113 0.537 2.225 1.075 3.372 1.628 C14.927 7.173 26.605 12.37 38.38 17.427 C103.631 45.486 103.631 45.486 124 61 C124.802 61.599 125.604 62.199 126.43 62.816 C156.733 86.181 173.409 121.739 183 158 C183.356 159.257 183.712 160.514 184.078 161.809 C189.986 182.991 192.886 204.833 193.586 226.789 C193.627 227.972 193.669 229.155 193.712 230.374 C193.812 233.249 193.908 236.125 194 239 C179.452 239.133 164.903 239.264 150.354 239.391 C143.592 239.45 136.829 239.51 130.067 239.573 C93.043 239.913 56.025 240.073 19 240 C19.404 239.464 19.808 238.928 20.225 238.375 C21.026 237.31 21.026 237.31 21.844 236.223 C22.636 235.171 22.636 235.171 23.443 234.098 C35.58 217.741 40.109 197.935 40.203 177.824 C40.212 176.377 40.212 176.377 40.22 174.901 C40.23 172.863 40.236 170.825 40.24 168.787 C40.25 165.735 40.281 162.683 40.312 159.631 C40.38 147.131 39.471 135.256 37 123 C36.785 121.927 36.57 120.855 36.349 119.749 C35.797 117.174 35.198 114.618 34.562 112.062 C34.348 111.18 34.133 110.298 33.912 109.39 C32.528 103.813 30.927 98.368 29.008 92.949 C28.063 90.185 27.241 87.403 26.449 84.592 C23.902 75.581 20.925 66.726 17.875 57.875 C17.657 57.24 17.439 56.606 17.215 55.952 C15.007 49.531 12.73 43.215 10 37 C9.488 35.448 9.005 33.886 8.562 32.312 C7.467 28.526 6.271 24.794 5 21.062 C0 6.159 0 6.159 0 0 Z " fill="#3E67A9" transform="translate(694,734)"/>
<path d="M0 0 C1.264 3.792 0.473 4.355 -1 8 C-1.536 10.389 -1.98 12.789 -2.434 15.195 C-3.028 18.139 -3.749 21.03 -4.5 23.938 C-5.002 25.958 -5.502 27.979 -6 30 C-6.315 31.205 -6.315 31.205 -6.637 32.434 C-8.092 38.884 -8.002 45.057 -7.875 51.625 C-7.718 60.385 -8.762 68.016 -11.043 76.445 C-13.406 85.224 -13.116 93.957 -13 103 C-12.186 99.438 -11.374 95.875 -10.562 92.312 C-10.332 91.305 -10.102 90.298 -9.865 89.26 C-9.532 87.795 -9.532 87.795 -9.191 86.301 C-8.987 85.405 -8.783 84.51 -8.573 83.587 C-8.014 81.064 -7.498 78.536 -7 76 C-6.34 76 -5.68 76 -5 76 C-3.128 81.85 -3.894 86.846 -5.379 92.656 C-6.635 97.952 -7.479 103.171 -8.105 108.566 C-8.287 110.055 -8.469 111.544 -8.65 113.033 C-8.927 115.316 -9.191 117.598 -9.425 119.886 C-10.773 132.814 -10.773 132.814 -13.845 135.784 C-15.879 136.752 -17.84 137.381 -20 138 C-26.805 144.356 -30.571 153.839 -31 163 C-31.13 164.33 -31.13 164.33 -31.262 165.688 C-32.097 180.24 -25.969 194.051 -20.253 207.139 C-18.586 211.099 -17.649 214.335 -17.562 218.688 C-17.158 232.72 -8.993 247.202 -3.648 260.016 C8.775 289.908 17.803 321.765 21 354 C21.096 354.946 21.191 355.892 21.29 356.866 C21.53 359.244 21.766 361.622 22 364 C23.081 360.756 23.129 358.38 23.133 354.969 C23.134 353.765 23.135 352.561 23.137 351.32 C23.133 350.06 23.129 348.799 23.125 347.5 C23.129 346.27 23.133 345.04 23.137 343.773 C23.367 331.219 23.367 331.219 21 319 C20.794 316.247 20.627 313.507 20.5 310.75 C20.43 309.265 20.357 307.781 20.281 306.297 C20.251 305.64 20.221 304.984 20.189 304.308 C20.035 302.421 19.776 300.542 19.489 298.671 C19.007 295.051 18.886 291.622 18.902 287.973 C18.907 286.044 18.907 286.044 18.912 284.076 C18.92 282.738 18.929 281.4 18.938 280.062 C18.943 278.697 18.947 277.332 18.951 275.967 C18.963 272.644 18.979 269.322 19 266 C22.369 266.602 24.488 267.663 27 270 C28.109 272.239 28.109 272.239 28.965 274.883 C29.288 275.873 29.61 276.863 29.943 277.883 C30.271 278.953 30.599 280.023 30.938 281.125 C31.284 282.234 31.631 283.342 31.989 284.484 C35.262 295.272 37.529 306.172 39.496 317.263 C39.937 319.657 40.432 322.025 40.969 324.398 C42.894 333.212 43.361 341.922 43.5 350.938 C43.531 352.076 43.561 353.214 43.593 354.386 C43.595 361.182 42.669 365.915 39.174 371.783 C36.959 375.965 36.873 380.088 36.867 384.746 C36.865 386.373 36.865 386.373 36.863 388.033 C36.867 389.157 36.871 390.28 36.875 391.438 C36.871 392.557 36.867 393.677 36.863 394.83 C36.865 395.916 36.866 397.002 36.867 398.121 C36.869 399.597 36.869 399.597 36.871 401.103 C37.006 404.139 37.468 407.011 38 410 C38.554 418.897 37.948 426.601 35 435 C34.748 435.719 34.495 436.438 34.235 437.179 C32.52 442.031 30.784 446.876 28.91 451.669 C28.292 453.251 27.702 454.844 27.137 456.446 C25.269 461.323 23.655 463.972 18.88 466.227 C18.218 466.503 17.557 466.779 16.875 467.062 C16.162 467.386 15.449 467.71 14.714 468.044 C13.215 468.721 11.71 469.386 10.2 470.038 C8.179 470.922 6.195 471.856 4.211 472.82 C-6.564 477.959 -17.784 481.948 -29 486 C-29.822 486.297 -30.644 486.595 -31.491 486.901 C-33.847 487.751 -36.204 488.596 -38.562 489.438 C-39.643 489.826 -39.643 489.826 -40.744 490.222 C-45.766 492 -45.766 492 -48 492 C-45.208 483.398 -42.059 474.932 -38.912 466.455 C-31.79 447.638 -31.79 447.638 -26.812 428.188 C-26.661 427.433 -26.51 426.678 -26.354 425.9 C-26.048 424.372 -25.747 422.843 -25.451 421.313 C-25.149 419.762 -24.837 418.213 -24.515 416.665 C-23.084 409.748 -21.98 402.798 -20.938 395.812 C-20.764 394.696 -20.591 393.579 -20.412 392.428 C-18.023 376.458 -17.866 360.668 -17.938 344.562 C-17.943 342.559 -17.947 340.556 -17.951 338.553 C-17.962 333.702 -17.979 328.851 -18 324 C-19.386 328.724 -20.435 333.239 -21.062 338.125 C-21.188 339.099 -21.188 339.099 -21.316 340.094 C-21.967 345.306 -22.36 350.519 -22.719 355.758 C-23.105 360.215 -23.785 364.612 -24.5 369.027 C-24.987 372.385 -25.149 375.727 -25.328 379.113 C-25.935 388.01 -27.559 396.686 -29.219 405.439 C-29.746 408.229 -30.257 411.023 -30.766 413.816 C-33.674 429.522 -37.435 444.785 -43.25 459.688 C-43.633 460.677 -44.016 461.667 -44.41 462.687 C-45.207 464.746 -46.005 466.805 -46.806 468.863 C-48.023 472.06 -49.168 475.276 -50.301 478.504 C-51.055 480.586 -51.808 482.668 -52.562 484.75 C-53.053 486.205 -53.053 486.205 -53.554 487.69 C-55.3 492.401 -56.578 495.275 -61.152 497.641 C-63.285 498.516 -64.694 499 -67 499 C-64.89 491.067 -61.883 483.564 -58.732 476 C-42.299 437.617 -42.299 437.617 -34 397 C-34.66 397 -35.32 397 -36 397 C-36.037 397.568 -36.075 398.137 -36.113 398.723 C-36.569 404.072 -37.714 408.088 -40 413 C-40.616 414.643 -41.216 416.292 -41.805 417.945 C-48.717 437.114 -56.547 455.899 -64.697 474.568 C-64.999 475.265 -65.302 475.962 -65.614 476.681 C-66.214 478.062 -66.818 479.442 -67.425 480.82 C-68.945 484.321 -70.297 487.806 -71.444 491.448 C-74.806 501.964 -74.806 501.964 -78.184 504.895 C-80.664 506.089 -82.948 506.813 -85.625 507.438 C-86.471 507.691 -87.316 507.944 -88.188 508.205 C-90.448 508.87 -92.709 509.453 -95 510 C-96.333 510.333 -97.667 510.666 -99 511 C-97.721 502.223 -95.283 494.008 -92.438 485.625 C-92.216 484.966 -91.994 484.307 -91.766 483.628 C-88.117 472.808 -83.98 462.293 -79.294 451.88 C-76.68 446.061 -74.115 440.221 -71.562 434.375 C-71.286 433.742 -71.009 433.109 -70.724 432.456 C-65.346 420.117 -60.576 407.597 -56.047 394.92 C-55.015 392.041 -53.957 389.173 -52.898 386.305 C-47.345 370.994 -44.117 355.245 -41.25 339.25 C-41.027 338.038 -41.027 338.038 -40.8 336.802 C-36.128 311.205 -35.68 285.498 -35.48 259.561 C-35.438 254.206 -35.381 248.851 -35.322 243.496 C-35.174 230.135 -35.038 216.773 -34.928 203.412 C-34.7 176.648 -34.169 150.472 -30 124 C-29.684 121.834 -29.37 119.667 -29.059 117.5 C-28.284 112.195 -27.448 106.902 -26.586 101.611 C-26.164 99.008 -25.747 96.404 -25.336 93.799 C-20.257 61.61 -14.884 29.373 0 0 Z " fill="#F77E2A" transform="translate(357,234)"/>
<path d="M0 0 C1.444 1.011 2.882 2.031 4.312 3.062 C5.344 3.784 6.375 4.506 7.438 5.25 C11.785 9.031 14.516 14.1 17.312 19.062 C18.082 20.337 18.082 20.337 18.867 21.637 C22.428 28.528 22.769 35.076 22.812 42.688 C22.819 43.653 22.825 44.619 22.832 45.614 C22.599 58.779 17.686 71.771 8.562 81.438 C-4.738 93.538 -18.887 97.115 -36.5 96.5 C-43.019 96.08 -48.113 94.487 -53.688 91.062 C-54.796 90.384 -55.905 89.706 -57.047 89.008 C-70.317 80.512 -78.483 69.4 -82.219 53.902 C-84.574 39.636 -81.496 25.203 -73.688 13.062 C-67.985 5.429 -61.425 -0.921 -52.688 -4.938 C-51.81 -5.347 -50.932 -5.757 -50.027 -6.18 C-33.534 -12.759 -14.575 -9.497 0 0 Z " fill="#FBD0B5" transform="translate(609.6875,335.9375)"/>
<path d="M0 0 C1 -0.021 1.999 -0.041 3.029 -0.062 C16.843 -0.134 28.455 4.77 38.625 14.125 C49.953 26.004 54.458 40.312 54.184 56.473 C53.218 71.294 46.61 83.114 35.938 93.25 C24.173 103.334 10.109 106.127 -5.048 105.429 C-18.268 104.253 -30.238 95.639 -39.062 86.25 C-48.584 74.246 -52.645 60.599 -51.349 45.453 C-49.558 31.685 -42.514 19.312 -32.027 10.328 C-22.105 3.373 -12.026 0.06 0 0 Z " fill="#FBD0B5" transform="translate(428.0625,327.75)"/>
<path d="M0 0 C1.002 3.29 1.064 6.166 0.957 9.594 C0.335 37.803 5.153 66.47 25.453 87.75 C43.455 103.654 66.196 106.253 89.188 106.456 C91.242 106.478 93.294 106.517 95.348 106.559 C96.554 106.572 97.761 106.586 99.004 106.599 C102.315 107.042 102.889 107.593 105 110 C110.289 109.74 115.135 108.151 120.125 106.5 C129.305 103.497 137.361 102.814 146.982 102.815 C149.229 102.813 151.476 102.794 153.723 102.775 C161.079 102.747 167.857 103.046 175 105 C178.016 105.174 180.355 105.184 183.254 104.355 C189.118 103.596 194.449 106.503 199 110 C200.911 114.315 201.016 118.324 201 123 C201.027 124.085 201.054 125.171 201.082 126.289 C201.119 128.866 201.093 131.425 201 134 C197.855 131.713 195.412 129.326 193 126.312 C185.679 117.798 175.778 111.934 165 109 C164.215 108.777 163.43 108.554 162.621 108.324 C145.668 104.219 129.667 107.353 114.84 115.856 C102.773 123.358 94.445 135.665 90 149 C83.381 148.109 83.381 148.109 81.184 147.48 C72.608 145.594 64.007 146.687 56 150 C55.504 148.949 55.007 147.899 54.496 146.816 C50.707 138.929 47.019 131.463 41 125 C40.455 124.402 39.909 123.804 39.348 123.188 C28.588 112.64 13.466 107.64 -1.25 107.688 C-2.223 107.671 -3.196 107.655 -4.199 107.639 C-19.35 107.629 -33.981 113.517 -45 124 C-49.274 128.799 -53.146 133.862 -57 139 C-57 132.07 -57 125.14 -57 118 C-26.029 106.703 -2.348 99.217 30 110 C32.723 110.232 35.25 110.131 38 110 C40.183 108.239 40.183 108.239 40.195 106.055 C40.172 105.335 40.149 104.616 40.125 103.875 C40.084 102.596 40.043 101.317 40 100 C19.726 88.879 -0.551 85.475 -23 92 C-24.663 92.35 -26.329 92.688 -28 93 C-28.292 85.582 -27.497 78.759 -26 71.5 C-25.779 70.423 -25.558 69.345 -25.331 68.235 C-20.267 44.548 -12.473 20.886 0 0 Z " fill="#FBD0B5" transform="translate(432,213)"/>
<path d="M0 0 C-0.513 8.478 -2.449 16.413 -4.579 24.596 C-5.622 28.608 -6.639 32.626 -7.656 36.645 C-7.86 37.447 -8.063 38.249 -8.273 39.075 C-10.578 48.215 -12.599 57.413 -14.598 66.625 C-15.538 70.95 -16.527 75.259 -17.559 79.562 C-20.642 92.45 -23.147 105.284 -25.125 118.387 C-25.844 123.124 -26.703 127.812 -27.688 132.5 C-28.767 137.67 -29.539 142.74 -30 148 C-44.208 126.689 -38.487 74.596 -33.846 50.714 C-33.279 48.128 -32.655 45.565 -32 43 C-31.764 42.05 -31.529 41.099 -31.286 40.12 C-30.085 35.342 -28.804 30.605 -27.387 25.887 C-26.503 22.925 -25.802 20.082 -25.395 17.02 C-24.751 13.268 -24.248 11.09 -22 8 C-15.861 3.955 -7.442 0 0 0 Z " fill="#F77E2A" transform="translate(662,488)"/>
<path d="M0 0 C3.63 1.98 7.26 3.96 11 6 C31.081 16.673 51.874 20.307 74.328 15.184 C83.83 12.121 92.373 6.93 101 2 C101 10.58 101 19.16 101 28 C67.508 40.057 33.316 40.326 0 27 C0 18.09 0 9.18 0 0 Z " fill="#FBD0B5" transform="translate(459,586)"/>
<path d="M0 0 C7.418 4.005 10.605 9.261 13.238 17.047 C17.791 34.697 8.097 55.328 -0.605 70.397 C-10.503 87.102 -10.503 87.102 -17 91 C-20.051 91.376 -22.946 91.305 -26 91 C-25.475 85.119 -24.579 79.363 -23.5 73.562 C-23.369 72.852 -23.239 72.142 -23.104 71.41 C-22.125 66.25 -22.125 66.25 -21 64 C-20.589 60.455 -20.238 56.911 -19.926 53.355 C-19.48 48.871 -18.701 44.688 -17.516 40.336 C-15.343 32.048 -14.936 23.596 -14.359 15.074 C-14.254 13.833 -14.148 12.591 -14.039 11.312 C-13.959 10.195 -13.878 9.077 -13.795 7.926 C-12.774 4.17 -11.208 3.09 -8 1 C-5.134 -0.433 -3.187 -0.306 0 0 Z " fill="#FBD0B5" transform="translate(665,372)"/>
<path d="M0 0 C3.32 1.327 5.173 2.917 7 6 C7.58 9.449 7.634 12.781 7.703 16.277 C7.932 22.093 9.181 27.693 10.375 33.375 C10.716 35.006 10.716 35.006 11.063 36.671 C11.51 38.809 11.957 40.946 12.405 43.084 C13.187 46.918 13.857 50.766 14.5 54.625 C15.846 62.618 17.592 70.518 19.375 78.424 C19.585 79.365 19.795 80.305 20.012 81.273 C20.202 82.113 20.392 82.953 20.589 83.818 C21 86 21 86 21 89 C14.174 89.719 14.174 89.719 11.227 87.915 C6.973 84.159 3.683 80.23 0.562 75.5 C0.094 74.799 -0.375 74.099 -0.858 73.377 C-2.257 71.263 -3.634 69.136 -5 67 C-5.389 66.396 -5.778 65.791 -6.179 65.168 C-14.021 52.797 -19.482 40.296 -19.625 25.5 C-19.636 24.688 -19.647 23.875 -19.658 23.039 C-19.466 14.964 -16.557 7.916 -11 2 C-7.254 -0.497 -4.33 -0.831 0 0 Z " fill="#FBD0B5" transform="translate(353,376)"/>
<path d="M0 0 C6.728 4.891 13.293 11.117 16.617 18.902 C16.805 22.152 16.805 22.152 16.617 24.902 C17.112 25.892 17.112 25.892 17.617 26.902 C18.974 29.617 18.753 31.913 18.617 34.902 C15.386 34.639 14.59 33.871 12.434 31.355 C11.318 29.77 11.318 29.77 10.18 28.152 C7.234 23.993 4.292 20.403 0.617 16.902 C1.112 18.387 1.112 18.387 1.617 19.902 C2.204 25.168 2.585 30.249 -0.383 34.84 C-4.064 39.13 -8.33 41.445 -13.91 42.281 C-19.57 42.545 -23.007 41.757 -27.383 37.902 C-31.539 33.297 -32.532 30.101 -32.57 23.965 C-32.584 22.925 -32.599 21.884 -32.613 20.812 C-32.387 17.952 -31.86 16.326 -30.383 13.902 C-38.257 17.256 -44.231 22.415 -50.027 28.68 C-51.383 29.902 -51.383 29.902 -53.758 29.902 C-57.194 28.593 -58.933 26.61 -61.383 23.902 C-62.002 23.428 -62.62 22.954 -63.258 22.465 C-64.383 20.902 -64.383 20.902 -64.07 17.715 C-63.843 16.787 -63.617 15.859 -63.383 14.902 C-59.267 15.377 -56.019 15.923 -52.383 17.902 C-51.612 17.253 -50.841 16.603 -50.047 15.934 C-49.044 15.098 -48.041 14.263 -47.008 13.402 C-46.01 12.567 -45.012 11.732 -43.984 10.871 C-41.383 8.902 -41.383 8.902 -39.383 8.902 C-40.043 8.119 -40.703 7.335 -41.383 6.527 C-43.383 3.902 -43.383 3.902 -43.383 1.902 C-40.945 2.715 -40.945 2.715 -38.383 3.902 C-38.053 4.892 -37.723 5.882 -37.383 6.902 C-36.656 6.614 -35.929 6.325 -35.18 6.027 C-23.005 1.532 -12.372 1.609 -0.383 6.902 C2.859 8.999 5.777 11.29 8.617 13.902 C3.803 7.73 -2.268 1.189 -10.383 -0.098 C-19.085 -0.449 -27.733 -0.105 -36.383 0.902 C-28.631 -8.572 -9.107 -5.361 0 0 Z " fill="#070505" transform="translate(454.3828125,348.09765625)"/>
<path d="M0 0 C0.769 -0.016 1.538 -0.032 2.33 -0.049 C7.92 -0.054 12.057 1.095 17.188 3.312 C17.188 3.973 17.188 4.632 17.188 5.312 C10.438 5.438 10.438 5.438 8.188 4.312 C-3.433 3.493 -11.909 4.034 -21.125 11.75 C-23.985 14.399 -26.514 17.152 -28.812 20.312 C-28.388 19.854 -27.964 19.395 -27.527 18.922 C-21.372 12.483 -14.845 7.969 -5.727 6.977 C1.946 6.885 8.585 7.831 15.857 10.153 C18.008 10.838 18.008 10.838 21.188 11.312 C23.647 10.084 23.647 10.084 25.188 8.312 C25.847 8.642 26.508 8.973 27.188 9.312 C26.692 9.931 26.197 10.55 25.688 11.188 C23.995 13.151 23.995 13.151 24.188 15.312 C26.147 17.027 28.146 18.697 30.188 20.312 C32.623 19.365 34.937 18.461 37.188 17.125 C39.83 16.051 41.49 16.563 44.188 17.312 C44.683 19.788 44.683 19.788 45.188 22.312 C40.438 26.188 40.438 26.188 38.188 27.312 C38.229 28.261 38.27 29.21 38.312 30.188 C38.188 33.312 38.188 33.312 36.188 35.312 C33.836 35.73 33.836 35.73 31.188 35.312 C28.977 33.301 28.977 33.301 26.812 30.625 C23.22 26.382 19.86 23.295 15.188 20.312 C15.188 21.962 15.188 23.613 15.188 25.312 C14.197 25.642 13.207 25.973 12.188 26.312 C12.188 26.973 12.188 27.632 12.188 28.312 C13.178 28.642 14.168 28.973 15.188 29.312 C15.343 33.601 15.246 37.024 12.445 40.434 C6.972 45.255 2.958 46.685 -4.312 46.59 C-9.407 46.025 -12.394 42.93 -15.625 39.25 C-19.229 34.411 -19.251 30.135 -18.812 24.312 C-17.812 21.25 -17.812 21.25 -16.812 19.312 C-22.756 23.836 -26.478 28.505 -30.074 35.055 C-31.812 37.312 -31.812 37.312 -34.52 38.133 C-35.655 38.222 -35.655 38.222 -36.812 38.312 C-36.219 33.467 -35.198 28.989 -33.812 24.312 C-33.708 23.518 -33.604 22.724 -33.496 21.906 C-31.412 13.999 -22.623 8.073 -16.172 3.688 C-10.656 0.473 -6.273 -0.026 0 0 Z " fill="#070505" transform="translate(571.8125,342.6875)"/>
<path d="M0 0 C1.264 3.792 0.473 4.355 -1 8 C-1.536 10.389 -1.98 12.789 -2.434 15.195 C-3.028 18.139 -3.749 21.03 -4.5 23.938 C-5.002 25.958 -5.502 27.979 -6 30 C-6.21 30.803 -6.42 31.606 -6.637 32.434 C-8.092 38.884 -8.002 45.057 -7.875 51.625 C-7.718 60.385 -8.762 68.016 -11.043 76.445 C-13.406 85.224 -13.116 93.957 -13 103 C-12.186 99.438 -11.374 95.875 -10.562 92.312 C-10.332 91.305 -10.102 90.298 -9.865 89.26 C-9.643 88.283 -9.421 87.307 -9.191 86.301 C-8.987 85.405 -8.783 84.51 -8.573 83.587 C-8.014 81.064 -7.498 78.536 -7 76 C-6.34 76 -5.68 76 -5 76 C-3.128 81.85 -3.894 86.846 -5.379 92.656 C-6.635 97.952 -7.479 103.171 -8.105 108.566 C-8.287 110.055 -8.469 111.544 -8.65 113.033 C-8.927 115.316 -9.191 117.598 -9.425 119.886 C-10.773 132.814 -10.773 132.814 -13.845 135.784 C-15.879 136.752 -17.84 137.381 -20 138 C-25.77 143.389 -29.826 151.601 -30.562 159.438 C-30.707 160.613 -30.851 161.789 -31 163 C-32.485 163.99 -32.485 163.99 -34 165 C-33.549 150.845 -31.943 137.055 -29.812 123.062 C-29.496 120.946 -29.18 118.83 -28.864 116.714 C-27.926 110.474 -26.967 104.236 -26 98 C-25.861 97.102 -25.723 96.205 -25.58 95.28 C-20.53 62.616 -15.093 29.785 0 0 Z " fill="#F77E2A" transform="translate(357,234)"/>
<path d="M0 0 C2.062 0.438 2.062 0.438 4 1 C3.332 6.213 1.424 7.977 -2.477 11.258 C-5.269 13.186 -8.081 14.455 -11.188 15.812 C-16.814 18.449 -18.569 20.893 -20.875 26.539 C-23.953 33.273 -30.618 37.642 -37 41 C-42.933 42.978 -47.428 42.556 -53 39.938 C-60.254 35.95 -65.185 31.647 -69.312 24.438 C-72.512 19.073 -75.847 16.929 -81.402 14.262 C-84.897 12.564 -87.288 10.783 -90 8 C-90.875 5.188 -90.875 5.188 -91 3 C-89.309 2.266 -89.309 2.266 -87 2 C-84.598 3.547 -84.598 3.547 -82.062 5.75 C-68.2 17.663 -50.458 16.984 -33 16 C-19.146 14.801 -9.805 9.805 0 0 Z " fill="#F57372" transform="translate(553,479)"/>
<path d="M0 0 C0.66 0 1.32 0 2 0 C6.327 8.277 10.391 16.338 13.148 25.293 C13.945 27.824 14.862 30.237 15.875 32.688 C20.307 43.567 24.011 54.684 27.244 65.973 C28.412 70.045 29.672 74.059 31.062 78.062 C34.99 89.766 37.769 100.532 37 113 C34.25 113.312 34.25 113.312 31 113 C27.428 109.578 25.394 105.219 23.25 100.812 C22.91 100.122 22.57 99.431 22.22 98.72 C7.028 67.566 7.028 67.566 6 56 C9.032 58.79 10.923 61.366 12.727 65.062 C13.201 66.024 13.675 66.986 14.164 67.977 C14.646 68.974 15.128 69.972 15.625 71 C16.115 71.998 16.605 72.995 17.109 74.023 C18.019 75.877 18.925 77.732 19.827 79.59 C20.87 81.734 21.929 83.869 23 86 C18.465 70.775 18.465 70.775 13.5 55.688 C10.08 45.607 7.503 35.279 4.796 24.99 C4.106 22.399 3.395 19.817 2.664 17.238 C2.379 16.22 2.379 16.22 2.088 15.182 C1.607 13.47 1.118 11.76 0.629 10.051 C-0.075 6.634 -0.109 3.479 0 0 Z " fill="#070505" transform="translate(221,862)"/>
<path d="M0 0 C0.66 0 1.32 0 2 0 C1.328 17.444 -4.31 33.47 -9.939 49.809 C-13.469 60.099 -16.376 70.44 -19 81 C-18.718 80.385 -18.436 79.77 -18.146 79.136 C-16.856 76.336 -15.553 73.543 -14.25 70.75 C-13.807 69.782 -13.363 68.814 -12.906 67.816 C-12.468 66.882 -12.03 65.947 -11.578 64.984 C-11.18 64.126 -10.782 63.267 -10.372 62.382 C-8.886 59.802 -7.185 58.006 -5 56 C-5.53 62.083 -6.877 67.113 -9.188 72.75 C-9.523 73.582 -9.859 74.414 -10.205 75.271 C-23.669 107.669 -23.669 107.669 -29 113 C-31 113.041 -33 113.043 -35 113 C-35.315 104.946 -34.7 97.933 -32.5 90.188 C-32.21 89.136 -31.921 88.084 -31.622 87 C-26.912 70.521 -21.142 54.343 -15.547 38.148 C-15.078 36.792 -15.078 36.792 -14.6 35.408 C-11.904 27.643 -9.023 19.956 -6 12.312 C-5.753 11.675 -5.505 11.038 -5.25 10.381 C-3.794 6.706 -2.28 3.241 0 0 Z " fill="#070505" transform="translate(798,861)"/>
<path d="M0 0 C1.677 -0.279 3.343 -0.623 5 -1 C11.547 -1.691 16.577 -0.867 22 3 C24.004 4.907 25.403 6.704 27 9 C27 9.66 27 10.32 27 11 C27.99 11.33 28.98 11.66 30 12 C10.823 17.303 -9.945 18.669 -29 12 C-28.34 11.67 -27.68 11.34 -27 11 C-26.871 10.394 -26.742 9.788 -26.609 9.164 C-25.247 4.325 -19.689 0.971 -15.5 -1.438 C-9.732 -2.735 -5.438 -2.204 0 0 Z " fill="#F57372" transform="translate(508,480)"/>
<path d="M0 0 C4.866 4.314 5.779 10.235 6.282 16.515 C6.409 20.637 6.441 24.751 6.441 28.875 C6.453 30.409 6.467 31.944 6.481 33.478 C6.517 37.502 6.538 41.526 6.553 45.55 C6.581 52.721 6.627 59.892 6.691 67.062 C6.698 67.824 6.704 68.586 6.711 69.371 C6.803 79.171 7.167 88.82 8.566 98.535 C9.294 104.349 9.169 110.147 9 116 C8.01 115.67 7.02 115.34 6 115 C5.121 112.848 5.121 112.848 4.438 110.062 C4.191 109.063 3.945 108.064 3.691 107.035 C3.463 106.034 3.235 105.032 3 104 C2.803 103.153 2.606 102.306 2.402 101.434 C-0.299 88.968 -0.136 76.452 -0.098 63.77 C-0.096 61.924 -0.094 60.079 -0.093 58.234 C-0.09 53.412 -0.08 48.591 -0.069 43.769 C-0.058 38.835 -0.054 33.901 -0.049 28.967 C-0.038 19.311 -0.021 9.656 0 0 Z " fill="#070505" transform="translate(554,643)"/>
<path d="M0 0 C0.66 0.33 1.32 0.66 2 1 C2.07 10.025 2.123 19.05 2.155 28.075 C2.171 32.268 2.192 36.461 2.226 40.654 C2.681 97.479 2.681 97.479 -7 112 C-7.66 112 -8.32 112 -9 112 C-9.442 103.798 -8.553 96.082 -7.155 88.028 C-5.387 77.813 -4.843 67.797 -4.754 57.434 C-4.721 54.818 -4.688 52.203 -4.654 49.588 C-4.606 45.504 -4.562 41.421 -4.523 37.337 C-4.485 33.369 -4.432 29.401 -4.379 25.434 C-4.37 24.221 -4.362 23.008 -4.353 21.759 C-4.128 6.192 -4.128 6.192 0 0 Z " fill="#070505" transform="translate(459,641)"/>
<path d="M0 0 C0.99 0.33 1.98 0.66 3 1 C3.07 8.434 3.123 15.867 3.155 23.301 C3.171 26.754 3.192 30.208 3.226 33.661 C3.508 62.745 3.508 62.745 0 75 C-0.277 76.08 -0.553 77.16 -0.839 78.272 C-1.653 81.387 -2.532 84.474 -3.438 87.562 C-3.724 88.589 -4.011 89.616 -4.307 90.674 C-5.877 96.077 -7.373 100.643 -11 105 C-11.66 105 -12.32 105 -13 105 C-12.388 97.749 -10.893 90.972 -9.062 83.938 C-8.798 82.9 -8.533 81.863 -8.26 80.795 C-7.763 78.852 -7.264 76.91 -6.762 74.969 C-6.511 73.989 -6.259 73.009 -6 72 C-5.646 70.825 -5.292 69.65 -4.927 68.44 C-3.523 62.776 -3.702 57.052 -3.691 51.25 C-3.666 48.76 -3.641 46.271 -3.615 43.781 C-3.586 39.884 -3.562 35.987 -3.544 32.09 C-3.522 28.31 -3.483 24.53 -3.441 20.75 C-3.441 19.591 -3.441 18.433 -3.441 17.239 C-3.362 10.784 -2.705 5.884 0 0 Z " fill="#080C16" transform="translate(432,632)"/>
<path d="M0 0 C2.212 0.011 4.423 0 6.634 -0.013 C13.921 -0.019 20.64 0.341 27.716 2.261 C30.733 2.435 33.072 2.445 35.97 1.616 C41.834 0.857 47.166 3.764 51.716 7.261 C53.627 11.575 53.732 15.584 53.716 20.261 C53.743 21.346 53.77 22.432 53.798 23.55 C53.835 26.127 53.809 28.685 53.716 31.261 C50.571 28.974 48.129 26.587 45.716 23.573 C38.396 15.059 28.494 9.194 17.716 6.261 C16.931 6.038 16.146 5.815 15.337 5.585 C4.765 3.025 -6.583 3.851 -17.284 5.261 C-17.284 4.601 -17.284 3.941 -17.284 3.261 C-18.274 3.591 -19.264 3.921 -20.284 4.261 C-21.274 3.601 -22.264 2.941 -23.284 2.261 C-15.528 0.06 -7.993 -0.046 0 0 Z " fill="#FBD0B5" transform="translate(579.28369140625,315.7392578125)"/>
<path d="M0 0 C0.66 0 1.32 0 2 0 C5.629 6.578 5.377 12.655 5.301 20.043 C5.306 21.998 5.312 23.953 5.32 25.908 C5.335 30.675 5.319 35.443 5.285 40.21 C5.177 60.44 6.555 79.666 13 99 C13.069 100.895 13.085 102.792 13.062 104.688 C13.053 105.681 13.044 106.675 13.035 107.699 C13.024 108.458 13.012 109.218 13 110 C11.129 109.367 11.129 109.367 9 108 C7.84 105.383 7.84 105.383 6.938 102.125 C6.609 100.955 6.28 99.784 5.941 98.578 C5.631 97.397 5.32 96.217 5 95 C4.58 93.445 4.58 93.445 4.152 91.859 C3.385 88.912 2.653 85.976 2 83 C1.835 82.297 1.67 81.593 1.5 80.869 C-0.308 72.307 -0.256 63.873 -0.195 55.176 C-0.192 53.577 -0.189 51.979 -0.187 50.38 C-0.179 46.209 -0.16 42.039 -0.137 37.868 C-0.117 33.598 -0.108 29.327 -0.098 25.057 C-0.076 16.704 -0.042 8.352 0 0 Z " fill="#070505" transform="translate(582,630)"/>
<path d="M0 0 C2.062 0.438 2.062 0.438 4 1 C3.323 6.153 1.551 7.946 -2.359 11.16 C-15.035 19.992 -26.995 22.361 -42.119 22.316 C-44.298 22.313 -46.475 22.336 -48.654 22.361 C-63.4 22.43 -75.697 19.441 -87.625 10.438 C-90.141 7.856 -90.797 6.553 -91 3 C-89.309 2.266 -89.309 2.266 -87 2 C-84.598 3.547 -84.598 3.547 -82.062 5.75 C-68.2 17.663 -50.458 16.984 -33 16 C-19.146 14.801 -9.805 9.805 0 0 Z " fill="#070505" transform="translate(553,479)"/>
<path d="M0 0 C0.66 0.33 1.32 0.66 2 1 C-1.284 17.436 -6.656 32.867 -12.657 48.464 C-13.887 51.703 -15.06 54.955 -16.211 58.223 C-16.869 60.024 -17.528 61.825 -18.188 63.625 C-18.459 64.429 -18.731 65.234 -19.011 66.063 C-20.622 70.31 -22.016 72.4 -26.113 74.523 C-28.266 75.453 -29.654 76 -32 76 C-29.89 68.065 -26.881 60.56 -23.73 52.993 C-17.694 38.483 -12.151 23.851 -7 9 C-5.333 9 -3.667 9 -2 9 C-1.34 6.03 -0.68 3.06 0 0 Z " fill="#E7751F" transform="translate(322,657)"/>
<path d="M0 0 C-0.66 1.32 -1.32 2.64 -2 4 C-2.713 3.662 -3.426 3.325 -4.16 2.977 C-5.118 2.531 -6.076 2.085 -7.062 1.625 C-8.472 0.964 -8.472 0.964 -9.91 0.289 C-17.166 -2.738 -23.483 -3.338 -31.25 -3.312 C-32.223 -3.329 -33.196 -3.345 -34.199 -3.361 C-49.35 -3.371 -63.981 2.517 -75 13 C-79.274 17.799 -83.146 22.862 -87 28 C-87 21.07 -87 14.14 -87 7 C-23.981 -15.987 -23.981 -15.987 0 0 Z " fill="#DAB79A" transform="translate(462,324)"/>
<path d="M0 0 C1.941 3.426 2.748 6.798 3.625 10.625 C8.904 32.454 16.536 53.61 24.047 74.746 C24.304 75.469 24.561 76.193 24.826 76.938 C26.613 81.951 28.452 86.943 30.345 91.918 C31 94 31 94 31 97 C28.691 96.496 28.691 96.496 26 95 C24.728 92.297 23.799 89.892 22.938 87.062 C22.423 85.496 21.909 83.93 21.395 82.363 C21.032 81.226 21.032 81.226 20.663 80.065 C19.873 77.605 19.015 75.176 18.125 72.75 C17.814 71.888 17.504 71.025 17.184 70.137 C16.234 67.62 15.242 65.133 14.223 62.645 C8.35 48.096 4.505 33.275 1 18 C0.792 17.113 0.583 16.226 0.369 15.312 C0.187 14.522 0.004 13.732 -0.184 12.918 C-0.339 12.248 -0.494 11.578 -0.654 10.887 C-1.338 7.156 -1.719 3.438 0 0 Z " fill="#D1691C" transform="translate(703,638)"/>
<path d="M0 0 C4.602 1.453 4.602 1.453 6.152 3.582 C7.359 7.024 7.249 10.337 7.188 13.938 C7.18 14.74 7.172 15.543 7.164 16.369 C7.126 19.247 7.065 22.123 7 25 C6.975 26.209 6.951 27.418 6.925 28.664 C6.839 32.589 6.735 36.513 6.625 40.438 C6.594 41.712 6.564 42.986 6.532 44.299 C6.493 45.498 6.454 46.698 6.414 47.934 C6.383 49.007 6.351 50.08 6.319 51.185 C6.007 53.939 5.416 55.645 4 58 C2.35 57.67 0.7 57.34 -1 57 C-1.023 49.716 -1.041 42.432 -1.052 35.147 C-1.057 31.765 -1.064 28.383 -1.075 25.001 C-1.088 21.117 -1.093 17.232 -1.098 13.348 C-1.103 12.128 -1.108 10.908 -1.113 9.651 C-1.113 8.53 -1.113 7.409 -1.114 6.254 C-1.116 5.262 -1.118 4.269 -1.12 3.246 C-1 1 -1 1 0 0 Z " fill="#080C16" transform="translate(493,378)"/>
<path d="M0 0 C1.605 2.407 2.636 4.328 3.699 6.965 C4.018 7.755 4.336 8.545 4.665 9.359 C5.002 10.21 5.34 11.061 5.688 11.938 C6.04 12.821 6.392 13.705 6.755 14.615 C9.536 21.664 12.085 28.78 14.55 35.944 C16.874 42.695 19.371 49.361 22 56 C22.66 55.34 23.32 54.68 24 54 C24 56.64 24 59.28 24 62 C22.312 62.688 22.312 62.688 20 63 C16.96 61.619 15.336 60.834 14.066 57.68 C13.9 56.754 13.734 55.829 13.562 54.875 C12.442 49.68 11.019 44.752 9.25 39.75 C8.998 39.034 8.746 38.318 8.486 37.58 C6.881 33.138 5.062 28.848 3.079 24.563 C-1.008 15.725 -1.991 9.704 0 0 Z " fill="#E7751F" transform="translate(648,302)"/>
<path d="M0 0 C0.33 0 0.66 0 1 0 C0.264 17.111 -3.327 34.117 -8.251 50.476 C-9.129 53.436 -9.968 56.407 -10.805 59.379 C-11.432 61.586 -12.059 63.793 -12.688 66 C-13.134 67.587 -13.134 67.587 -13.589 69.207 C-13.873 70.19 -14.157 71.174 -14.449 72.188 C-14.826 73.508 -14.826 73.508 -15.21 74.855 C-16 77 -16 77 -18 79 C-18.575 62.321 -14.259 45.674 -9.211 29.883 C-7.129 23.314 -5.278 16.671 -3.374 10.049 C-2.935 8.534 -2.935 8.534 -2.488 6.988 C-2.226 6.076 -1.963 5.164 -1.693 4.224 C-1 2 -1 2 0 0 Z " fill="#FEFDF4" transform="translate(674,519)"/>
<path d="M0 0 C3.958 0.565 6.76 1.635 10 4 C12.333 7.222 12.177 10.11 12 14 C11.01 13.67 10.02 13.34 9 13 C9 12.34 9 11.68 9 11 C8.34 11 7.68 11 7 11 C9.999 19.961 9.999 19.961 14.812 28 C17.069 31.094 17.563 32.282 17 36 C14.312 35.921 12.532 35.456 10.473 33.691 C6.459 29.269 4.188 24.508 2 19 C1.67 18.34 1.34 17.68 1 17 C0.904 15.002 0.87 13 0.875 11 C0.872 9.928 0.87 8.855 0.867 7.75 C1 5 1 5 2 3 C1.01 3 0.02 3 -1 3 C-0.67 2.01 -0.34 1.02 0 0 Z " fill="#070505" transform="translate(348,399)"/>
<path d="M0 0 C1.021 0.433 1.021 0.433 2.062 0.875 C1.732 2.195 1.403 3.515 1.062 4.875 C0.403 4.875 -0.258 4.875 -0.938 4.875 C-0.607 5.535 -0.278 6.195 0.062 6.875 C1.172 17.513 -1.934 25.038 -8.41 33.344 C-9.938 34.875 -9.938 34.875 -12.812 35.875 C-13.514 35.875 -14.215 35.875 -14.938 35.875 C-14.661 31.447 -14.039 28.729 -11.5 25.062 C-8.474 20.611 -7.661 16.144 -6.938 10.875 C-8.258 10.875 -9.577 10.875 -10.938 10.875 C-10.855 8.062 -10.319 6.323 -8.488 4.172 C-3.82 -0.163 -3.82 -0.163 0 0 Z " fill="#080C16" transform="translate(661.9375,396.125)"/>
<path d="M0 0 C-0.24 0.808 -0.24 0.808 -0.484 1.633 C-2.021 8.688 -1.907 15.813 2 22 C2 22.66 2 23.32 2 24 C-3.482 24.483 -5.754 22.306 -9.84 18.957 C-12.564 16.489 -14.785 13.929 -17 11 C-15.609 9.724 -14.212 8.454 -12.812 7.188 C-12.035 6.48 -11.258 5.772 -10.457 5.043 C-4.392 0 -4.392 0 0 0 Z " fill="#FEFDF4" transform="translate(424,362)"/>
<path d="M0 0 C0 0.66 0 1.32 0 2 C-1.434 3.121 -1.434 3.121 -3.438 4.438 C-10.272 9.363 -14.992 16.323 -20 23 C-20 16.07 -20 9.14 -20 2 C-6.776 -3.388 -6.776 -3.388 0 0 Z " fill="#EBC6AA" transform="translate(395,329)"/>
<path d="M0 0 C-0.165 0.639 -0.33 1.279 -0.5 1.938 C-1.595 8.647 -1.797 14.093 2 20 C2.557 20.557 3.114 21.114 3.688 21.688 C4.121 22.121 4.554 22.554 5 23 C5 23.99 5 24.98 5 26 C-1.192 25.682 -5.142 22.489 -10 19 C-10.99 18.34 -11.98 17.68 -13 17 C-12.345 11.43 -6.545 0 0 0 Z " fill="#FEFDF4" transform="translate(555,362)"/>
<path d="M0 0 C0.715 -0.001 1.43 -0.001 2.166 -0.002 C7.486 0.051 12.241 0.721 17.375 2.188 C17.375 2.848 17.375 3.507 17.375 4.188 C19.355 4.517 21.335 4.848 23.375 5.188 C22.715 6.507 22.055 7.827 21.375 9.188 C20.382 8.899 19.39 8.61 18.367 8.312 C6.926 5.125 -4.943 2.544 -16.234 7.703 C-20.102 10.105 -23.329 13.105 -26.594 16.262 C-28.625 18.188 -28.625 18.188 -30.625 19.188 C-27.691 12.222 -20.869 5.985 -14.188 2.625 C-9.224 0.622 -5.297 -0.005 0 0 Z " fill="#E69F7C" transform="translate(571.625,345.8125)"/>
<path d="M0 0 C6.651 4.834 13.454 11.121 16.617 18.902 C16.43 21.902 16.43 21.902 15.617 23.902 C12.863 21.542 11.268 19.352 9.805 16.09 C6.364 8.873 0.68 4.367 -6.383 0.902 C-15.326 -2.105 -27.194 -0.167 -36.383 0.902 C-28.631 -8.572 -9.107 -5.361 0 0 Z " fill="#16110E" transform="translate(454.3828125,348.09765625)"/>
<path d="M0 0 C7.54 6.521 7.54 6.521 9.371 10.938 C8.826 10.551 8.281 10.164 7.719 9.766 C-3.089 2.302 -12.401 -1.004 -25.629 -0.062 C-29.697 0.73 -33.658 1.755 -37.629 2.938 C-37.959 1.947 -38.289 0.957 -38.629 -0.062 C-36.629 -3.062 -36.629 -3.062 -34.555 -3.793 C-22.826 -5.844 -9.854 -7.731 0 0 Z " fill="#D79672" transform="translate(454.62890625,352.0625)"/>
<path d="M0 0 C7.903 11.855 11.417 24.906 10 39 C9.34 39 8.68 39 8 39 C7.768 38.299 7.536 37.598 7.297 36.876 C6.241 33.688 5.183 30.5 4.125 27.312 C3.76 26.21 3.395 25.107 3.02 23.971 C2.665 22.904 2.311 21.837 1.945 20.738 C1.621 19.759 1.296 18.78 0.961 17.771 C0.323 15.93 -0.368 14.107 -1.11 12.305 C-2.567 8.532 -2.264 5.791 -1 2 C-0.67 1.34 -0.34 0.68 0 0 Z " fill="#F77E2A" transform="translate(632,254)"/>
<path d="M0 0 C0.769 -0.016 1.538 -0.032 2.33 -0.049 C7.92 -0.054 12.057 1.095 17.188 3.312 C17.188 3.973 17.188 4.632 17.188 5.312 C10.438 5.438 10.438 5.438 8.188 4.312 C-3.396 3.496 -11.913 3.99 -21.062 11.75 C-22.321 12.928 -23.572 14.115 -24.812 15.312 C-25.761 16.158 -26.71 17.004 -27.688 17.875 C-30.054 20.59 -30.926 22.848 -31.812 26.312 C-32.472 25.652 -33.133 24.993 -33.812 24.312 C-33.447 17.731 -28.31 13.629 -23.812 9.312 C-16.006 3.017 -10.011 -0.041 0 0 Z " fill="#2F1F19" transform="translate(571.8125,342.6875)"/>
<path d="M0 0 C0.495 1.485 0.495 1.485 1 3 C-0.521 5.626 -2.094 8.071 -3.812 10.562 C-14.903 27.21 -23.512 44.912 -32 63 C-34.925 54.226 -23.657 37.76 -19.755 29.941 C-14.228 19.155 -7.646 9.398 0 0 Z " fill="#16110E" transform="translate(422,196)"/>
<path d="M0 0 C2.048 3.779 3.046 7.617 4.121 11.758 C4.885 14.337 4.885 14.337 8 16 C9.167 18.474 9.167 18.474 10.262 21.559 C10.856 23.221 10.856 23.221 11.463 24.916 C12.069 26.659 12.069 26.659 12.688 28.438 C13.103 29.596 13.519 30.754 13.947 31.947 C17 40.574 17 40.574 17 44 C14.691 43.496 14.691 43.496 12 42 C10.728 39.297 9.799 36.892 8.938 34.062 C8.43 32.513 7.922 30.963 7.414 29.414 C7.173 28.658 6.933 27.901 6.685 27.122 C5.796 24.368 4.814 21.652 3.812 18.938 C3.504 18.088 3.196 17.239 2.879 16.363 C2.302 14.812 1.706 13.267 1.09 11.73 C-0.382 8.041 -1.485 4.998 -1 1 C-0.67 0.67 -0.34 0.34 0 0 Z " fill="#E7751F" transform="translate(717,691)"/>
<path d="M0 0 C2.267 0.011 4.532 0 6.799 -0.013 C8.249 -0.011 9.699 -0.009 11.149 -0.005 C12.453 -0.003 13.757 -0 15.101 0.002 C18.18 0.24 19.874 0.626 22.442 2.261 C20.462 3.251 20.462 3.251 18.442 4.261 C18.442 4.591 18.442 4.921 18.442 5.261 C17.822 5.189 17.202 5.116 16.563 5.042 C5.188 3.85 -6.209 3.765 -17.558 5.261 C-17.558 4.601 -17.558 3.941 -17.558 3.261 C-18.548 3.591 -19.538 3.921 -20.558 4.261 C-21.548 3.601 -22.538 2.941 -23.558 2.261 C-15.723 0.024 -8.078 -0.046 0 0 Z " fill="#DAB79A" transform="translate(579.558349609375,315.7392578125)"/>
<path d="M0 0 C0.66 0 1.32 0 2 0 C4.283 7.135 2.529 13.437 0.801 20.488 C-0.444 25.945 -1.229 31.46 -2 37 C-2.33 37 -2.66 37 -3 37 C-3.33 35.35 -3.66 33.7 -4 32 C-4.66 32.99 -5.32 33.98 -6 35 C-6.66 35 -7.32 35 -8 35 C-8 30.05 -8 25.1 -8 20 C-7.67 20 -7.34 20 -7 20 C-6.67 22.31 -6.34 24.62 -6 27 C-5.186 23.438 -4.374 19.875 -3.562 16.312 C-3.217 14.801 -3.217 14.801 -2.865 13.26 C-2.643 12.283 -2.421 11.307 -2.191 10.301 C-1.987 9.405 -1.783 8.51 -1.573 7.587 C-1.014 5.064 -0.498 2.536 0 0 Z " fill="#E7751F" transform="translate(350,310)"/>
<path d="M0 0 C0.784 0.041 1.567 0.083 2.375 0.125 C3.183 7.529 0.967 11.391 -3.625 17.125 C-4.285 17.785 -4.945 18.445 -5.625 19.125 C-7.75 18.75 -7.75 18.75 -9.625 18.125 C-6.633 0.316 -6.633 0.316 0 0 Z " fill="#FEFDF4" transform="translate(372.625,233.875)"/>
<path d="M0 0 C6.717 1.81 12.672 4.433 18 9 C18.33 9.99 18.66 10.98 19 12 C16.247 11.772 13.5 11.518 10.75 11.25 C9.973 11.188 9.195 11.126 8.395 11.062 C4.646 10.678 2.517 10.386 -0.559 8.09 C-2 6 -2 6 -1.812 3.312 C-1 1 -1 1 0 0 Z " fill="#080C16" transform="translate(483,437)"/>
<path d="M0 0 C0.33 0 0.66 0 1 0 C1.701 3.581 2.384 7.165 3.062 10.75 C3.262 11.766 3.461 12.782 3.666 13.828 C3.85 14.808 4.033 15.788 4.223 16.797 C4.395 17.698 4.568 18.598 4.746 19.526 C5.005 22.052 4.99 23.663 4 26 C3.01 26.33 2.02 26.66 1 27 C-6 16.233 -6 16.233 -6 10 C-4 10 -4 10 -2.375 11.5 C-1.921 11.995 -1.467 12.49 -1 13 C-1.206 11.783 -1.413 10.566 -1.625 9.312 C-2.1 5.652 -1.766 3.324 0 0 Z " fill="#DAB79A" transform="translate(361,400)"/>
<path d="M0 0 C1.32 0 2.64 0 4 0 C4.601 7.214 2.084 11.681 -1.688 17.688 C-3.084 20.148 -3.602 22.214 -4 25 C-3.01 25.33 -2.02 25.66 -1 26 C-2.32 26 -3.64 26 -5 26 C-6.184 20.16 -5.665 15.385 -4.562 9.562 C-4.415 8.736 -4.267 7.909 -4.115 7.057 C-3.753 5.036 -3.378 3.018 -3 1 C-2.34 1.33 -1.68 1.66 -1 2 C-0.67 1.34 -0.34 0.68 0 0 Z " fill="#EBC6AA" transform="translate(651,407)"/>
<path d="M0 0 C4.145 -0.493 5.78 -0.139 9.375 2.125 C12 5 12 5 12.562 8.188 C12.377 9.116 12.191 10.044 12 11 C9 13 9 13 7.02 12.828 C3.343 11.321 1.033 8.342 -1 5 C-0.875 2.062 -0.875 2.062 0 0 Z " fill="#FEFDF4" transform="translate(573,221)"/>
<path d="M0 0 C2.589 0.273 4.516 0.706 6.75 2.062 C8.816 5.264 8.82 8.211 9 12 C7 14 7 14 3.875 14.125 C2.926 14.084 1.978 14.042 1 14 C-0.442 9.493 -1.342 5.791 -1 1 C-0.67 0.67 -0.34 0.34 0 0 Z " fill="#FEFDF4" transform="translate(479,232)"/>
<path d="M0 0 C2.562 0.25 2.562 0.25 5 1 C6.239 3.478 6.167 5.237 6.188 8 C6.202 8.887 6.216 9.774 6.23 10.688 C6 13 6 13 4 15 C1.438 14.75 1.438 14.75 -1 14 C-2.239 11.522 -2.167 9.763 -2.188 7 C-2.202 6.113 -2.216 5.226 -2.23 4.312 C-2 2 -2 2 0 0 Z " fill="#FEFDF4" transform="translate(449,235)"/>
<path d="M0 0 C8.58 0 17.16 0 26 0 C21.412 4.588 19.512 5.753 13.188 6.375 C8.584 6.27 4.777 4.581 1 2 C0.67 1.34 0.34 0.68 0 0 Z " fill="#472B2C" transform="translate(496,515)"/>
<path d="M0 0 C13.478 -0.474 20.666 0.385 30.898 9.746 C32.806 11.791 33.938 13.438 35 16 C34.455 15.613 33.909 15.227 33.348 14.828 C26.823 10.322 20.017 6.034 12 5 C12.33 4.01 12.66 3.02 13 2 C8.71 1.67 4.42 1.34 0 1 C0 0.67 0 0.34 0 0 Z " fill="#CC8A69" transform="translate(429,347)"/>
<path d="M0 0 C-0.33 1.65 -0.66 3.3 -1 5 C-1.785 4.662 -2.57 4.325 -3.379 3.977 C-4.429 3.531 -5.48 3.085 -6.562 2.625 C-7.595 2.184 -8.628 1.743 -9.691 1.289 C-16.546 -1.381 -22.654 -2.359 -29.938 -2.625 C-30.812 -2.664 -31.687 -2.702 -32.588 -2.742 C-34.725 -2.836 -36.862 -2.919 -39 -3 C-39 -3.33 -39 -3.66 -39 -4 C-24.826 -5.228 -13.597 -4.212 0 0 Z " fill="#DAB79A" transform="translate(462,323)"/>
<path d="M0 0 C3.118 1.342 4.845 2.674 6.812 5.438 C7.252 6.034 7.692 6.631 8.145 7.246 C9 9 9 9 8 12 C7.34 11.67 6.68 11.34 6 11 C5.732 11.598 5.464 12.196 5.188 12.812 C4.015 14.972 2.806 16.358 1 18 C0.01 17.67 -0.98 17.34 -2 17 C-1.01 15.515 -1.01 15.515 0 14 C0.243 10.567 0.243 10.567 0.125 6.812 C0.107 5.54 0.089 4.268 0.07 2.957 C0.047 1.981 0.024 1.005 0 0 Z " fill="#EFDDC8" transform="translate(455,365)"/>
<path d="M0 0 C0.815 -0.008 1.629 -0.015 2.469 -0.023 C8.497 -0.003 8.497 -0.003 10.75 2.25 C8.724 4.276 4.668 3.62 1.875 3.75 C-4.851 4.1 -11.548 4.57 -18.25 5.25 C-13.611 -0.42 -6.715 -0.065 0 0 Z " fill="#16110E" transform="translate(436.25,343.75)"/>
<path d="M0 0 C0.66 0.33 1.32 0.66 2 1 C2 24.76 2 48.52 2 73 C1.67 73 1.34 73 1 73 C0.67 50.23 0.34 27.46 0 4 C-0.99 4.495 -0.99 4.495 -2 5 C-1.34 3.35 -0.68 1.7 0 0 Z " fill="#0B1224" transform="translate(459,641)"/>
<path d="M0 0 C1.264 3.792 0.473 4.355 -1 8 C-1.533 10.375 -1.975 12.761 -2.426 15.152 C-3.433 20.146 -4.729 25.069 -6 30 C-6.66 28.68 -7.32 27.36 -8 26 C-8.66 26 -9.32 26 -10 26 C-7.702 16.895 -3.86 8.523 0 0 Z " fill="#E7751F" transform="translate(357,234)"/>
<path d="M0 0 C0.33 0 0.66 0 1 0 C1.029 3.229 1.047 6.458 1.062 9.688 C1.071 10.6 1.079 11.512 1.088 12.451 C1.091 13.337 1.094 14.224 1.098 15.137 C1.103 15.948 1.108 16.76 1.114 17.596 C0.993 20.149 0.56 22.51 0 25 C-0.66 24.01 -1.32 23.02 -2 22 C-2.548 21.524 -3.095 21.049 -3.659 20.559 C-4.323 19.787 -4.323 19.787 -5 19 C-4.583 15.995 -4.041 13.342 -3.25 10.438 C-3.054 9.657 -2.858 8.876 -2.656 8.072 C-1.216 2.431 -1.216 2.431 0 0 Z " fill="#DAB79A" transform="translate(640,386)"/>
<path d="M0 0 C0.33 1.32 0.66 2.64 1 4 C-2.345 5.932 -5.448 6.546 -9.25 7.125 C-10.328 7.293 -11.405 7.46 -12.516 7.633 C-13.335 7.754 -14.155 7.875 -15 8 C-13.393 4.251 -11.522 2.701 -7.887 0.75 C-5.206 -0.316 -2.841 -0.277 0 0 Z " fill="#16110E" transform="translate(529,440)"/>
<path d="M0 0 C0 0.66 0 1.32 0 2 C-6.75 2.125 -6.75 2.125 -9 1 C-11.879 0.767 -14.741 0.58 -17.625 0.438 C-18.427 0.394 -19.229 0.351 -20.055 0.307 C-22.036 0.2 -24.018 0.1 -26 0 C-22.353 -7.295 -5.842 -2.804 0 0 Z " fill="#16110E" transform="translate(589,346)"/>
<path d="M0 0 C-0.598 0.268 -1.196 0.536 -1.812 0.812 C-4.018 1.862 -4.018 1.862 -5.414 3.504 C-7 5 -7 5 -10.562 6.125 C-15.676 7.871 -19.052 11.359 -22.898 15.039 C-25 17 -25 17 -27 18 C-24.066 11.035 -17.244 4.797 -10.562 1.438 C-3.957 -1.228 -3.957 -1.228 0 0 Z " fill="#CC8A69" transform="translate(568,347)"/>
<path d="M0 0 C1.495 3.956 0.522 7.151 -0.375 11.188 C-1.581 16.787 -2.499 22.292 -3 28 C-5.425 24.363 -5.387 22.143 -5.625 17.812 C-5.7 16.54 -5.775 15.268 -5.852 13.957 C-5.901 12.981 -5.95 12.005 -6 11 C-4.35 10.67 -2.7 10.34 -1 10 C-1.33 7.69 -1.66 5.38 -2 3 C-1.34 3 -0.68 3 0 3 C0 2.01 0 1.02 0 0 Z " fill="#D1691C" transform="translate(635,608)"/>
<path d="M0 0 C3.955 4.987 4.133 8.988 4.062 15.188 C4.058 15.937 4.053 16.687 4.049 17.459 C4.037 19.306 4.019 21.153 4 23 C3.34 23 2.68 23 2 23 C0.226 17.685 -0.258 13.144 -0.125 7.562 C-0.116 6.831 -0.107 6.099 -0.098 5.346 C-0.074 3.564 -0.039 1.782 0 0 Z " fill="#E1710E" transform="translate(638,270)"/>
<path d="M0 0 C2.715 4.072 3.792 8.338 5.188 13 C5.473 13.915 5.759 14.83 6.053 15.773 C6.318 16.653 6.583 17.532 6.855 18.438 C7.099 19.241 7.343 20.044 7.594 20.871 C8 23 8 23 7 26 C5.494 22.878 3.996 19.752 2.5 16.625 C2.071 15.736 1.641 14.846 1.199 13.93 C0.59 12.654 0.59 12.654 -0.031 11.352 C-0.408 10.566 -0.785 9.781 -1.174 8.971 C-2 7 -2 7 -2 5 C-1.34 5 -0.68 5 0 5 C0 3.35 0 1.7 0 0 Z " fill="#315D94" transform="translate(237,925)"/>
<path d="M0 0 C0.33 0 0.66 0 1 0 C1 14.52 1 29.04 1 44 C0.67 44 0.34 44 0 44 C-0.495 26.675 -0.495 26.675 -1 9 C-1.66 9.99 -2.32 10.98 -3 12 C-2.401 7.805 -1.425 3.99 0 0 Z " fill="#4E250D" transform="translate(339,557)"/>
<path d="M0 0 C1.98 1.32 3.96 2.64 6 4 C5.01 4.33 4.02 4.66 3 5 C3 9.29 3 13.58 3 18 C2.34 18.33 1.68 18.66 1 19 C1 16.03 1 13.06 1 10 C-0.32 9.67 -1.64 9.34 -3 9 C-2.67 8.01 -2.34 7.02 -2 6 C-1.01 6 -0.02 6 1 6 C0.67 4.02 0.34 2.04 0 0 Z " fill="#F4EAD9" transform="translate(586,362)"/>
<path d="M0 0 C0.66 0 1.32 0 2 0 C3.39 4.344 3.702 8.895 2.25 13.25 C0.765 15.329 -0.883 16.589 -3 18 C-2.324 11.918 -1.264 5.987 0 0 Z " fill="#CA6E0F" transform="translate(350,310)"/>
<path d="M0 0 C0.66 0.66 1.32 1.32 2 2 C-1.3 9.59 -4.6 17.18 -8 25 C-9.08 20.68 -8.53 19.21 -6.891 15.223 C-5.97 12.926 -5.232 10.613 -4.5 8.25 C-3.447 5.024 -2.324 2.545 0 0 Z " fill="#E7751F" transform="translate(301,682)"/>
<path d="M0 0 C0.879 0.005 1.758 0.009 2.664 0.014 C4.818 0.025 6.971 0.043 9.125 0.062 C9.125 0.723 9.125 1.382 9.125 2.062 C-3.25 2.558 -3.25 2.558 -15.875 3.062 C-15.875 2.402 -15.875 1.743 -15.875 1.062 C-10.546 -0.047 -5.412 -0.053 0 0 Z " fill="#C9AB98" transform="translate(428.875,316.9375)"/>
<path d="M0 0 C0.66 0 1.32 0 2 0 C2.66 1.32 3.32 2.64 4 4 C4.99 4 5.98 4 7 4 C7.865 6.434 8.717 8.871 9.562 11.312 C9.809 12.003 10.056 12.693 10.311 13.404 C12.113 18.66 12.113 18.66 11 22 C8.364 19.364 7.923 16.938 6.875 13.375 C6.522 12.186 6.169 10.998 5.805 9.773 C5.539 8.858 5.274 7.943 5 7 C4.34 7.66 3.68 8.32 3 9 C2.01 6.03 1.02 3.06 0 0 Z " fill="#D1691C" transform="translate(712,685)"/>
<path d="M0 0 C0.66 0.33 1.32 0.66 2 1 C0.178 7.612 -2.052 13.805 -5 20 C-7 17 -7 17 -6.645 14.73 C-2.712 2.712 -2.712 2.712 0 0 Z " fill="#E7751F" transform="translate(316,643)"/>
<path d="M0 0 C0.33 0 0.66 0 1 0 C1.029 4.479 1.047 8.958 1.062 13.438 C1.071 14.698 1.079 15.958 1.088 17.256 C1.105 23.929 0.914 30.388 0 37 C-0.33 37 -0.66 37 -1 37 C-2.036 31.95 -2.103 27.126 -2 22 C-1.67 22 -1.34 22 -1 22 C-0.67 14.74 -0.34 7.48 0 0 Z " fill="#2F1F19" transform="translate(380,567)"/>
<path d="M0 0 C4.637 3.275 8.685 6.304 12 11 C8.506 10.276 5.48 8.937 2.25 7.438 C1.265 6.982 0.28 6.527 -0.734 6.059 C-1.482 5.709 -2.23 5.36 -3 5 C-2.34 4.67 -1.68 4.34 -1 4 C-0.348 1.975 -0.348 1.975 0 0 Z " fill="#C65F13" transform="translate(582,283)"/>
<path d="M0 0 C0.66 0.99 1.32 1.98 2 3 C0.379 5.628 -1.247 8.252 -2.875 10.875 C-3.335 11.621 -3.795 12.368 -4.27 13.137 C-4.714 13.852 -5.159 14.568 -5.617 15.305 C-6.23 16.294 -6.23 16.294 -6.855 17.304 C-8 19 -8 19 -10 21 C-10.479 16.978 -10.345 15.443 -7.812 12.188 C-7.361 11.704 -6.91 11.221 -6.445 10.723 C-3.746 7.506 -1.936 3.708 0 0 Z " fill="#E7751F" transform="translate(434,190)"/>
<path d="M0 0 C1.794 2.691 2.973 5.086 4.188 8.062 C4.552 8.94 4.917 9.818 5.293 10.723 C6 13 6 13 5 15 C3 14 3 14 1 11 C0.34 11.66 -0.32 12.32 -1 13 C-2.253 4.506 -2.253 4.506 0 0 Z " fill="#E1661B" transform="translate(632,254)"/>
<path d="M0 0 C0.33 0.99 0.66 1.98 1 3 C-0.73 5.672 -0.73 5.672 -3.188 8.75 C-6.523 13.006 -9.492 17.203 -12 22 C-12.727 20.367 -12.727 20.367 -13 18 C-11.523 15.195 -11.523 15.195 -9.375 12.125 C-8.64 11.071 -7.905 10.016 -7.148 8.93 C-4.875 5.829 -2.553 2.873 0 0 Z " fill="#E8E8E6" transform="translate(160,806)"/>
<path d="M0 0 C0.66 0.99 1.32 1.98 2 3 C1.309 5.268 1.309 5.268 0.008 7.887 C-0.45 8.825 -0.907 9.762 -1.379 10.729 C-1.873 11.705 -2.366 12.681 -2.875 13.688 C-3.361 14.676 -3.847 15.664 -4.348 16.682 C-5.553 19.127 -6.771 21.566 -8 24 C-9.359 19.923 -7.846 17.454 -6.25 13.688 C-5.984 13.036 -5.719 12.384 -5.445 11.713 C-3.797 7.717 -1.979 3.845 0 0 Z " fill="#381A0A" transform="translate(398,235)"/>
<path d="M0 0 C2.107 0.424 4.211 0.865 6.312 1.312 C7.484 1.556 8.656 1.8 9.863 2.051 C12.881 2.964 14.106 3.559 16 6 C15.031 5.801 15.031 5.801 14.043 5.598 C4.402 3.791 -5.222 3.389 -15 3 C-15 2.67 -15 2.34 -15 2 C-10.05 2 -5.1 2 0 2 C0 1.34 0 0.68 0 0 Z " fill="#B44E15" transform="translate(584,297)"/>
<path d="M0 0 C2.059 3.808 3.098 7.694 4.219 11.855 C4.787 14.18 4.787 14.18 7 15 C6.67 16.32 6.34 17.64 6 19 C5.34 19 4.68 19 4 19 C3.156 16.942 2.325 14.878 1.5 12.812 C1.036 11.664 0.572 10.515 0.094 9.332 C-0.911 6.271 -1.325 4.178 -1 1 C-0.67 0.67 -0.34 0.34 0 0 Z " fill="#E7751F" transform="translate(717,691)"/>
<path d="M0 0 C7.429 1 7.429 1 11 2 C10.34 3.32 9.68 4.64 9 6 C4.545 5.01 4.545 5.01 0 4 C0 2.68 0 1.36 0 0 Z " fill="#E8B291" transform="translate(584,349)"/>
<path d="M0 0 C0.33 0 0.66 0 1 0 C2.466 6.022 3.325 10.904 2 17 C-0.01 13.985 -0.726 11.785 -1.625 8.312 C-1.885 7.319 -2.146 6.325 -2.414 5.301 C-2.607 4.542 -2.801 3.782 -3 3 C-2.01 3 -1.02 3 0 3 C0 2.01 0 1.02 0 0 Z " fill="#D1691C" transform="translate(686,377)"/>
<path d="M0 0 C-1.98 0.99 -1.98 0.99 -4 2 C-3.01 2.66 -2.02 3.32 -1 4 C-4.3 4.33 -7.6 4.66 -11 5 C-11 4.34 -11 3.68 -11 3 C-11.99 3.33 -12.98 3.66 -14 4 C-14.99 3.34 -15.98 2.68 -17 2 C-11.192 0.494 -6.002 -0.218 0 0 Z " fill="#C5A087" transform="translate(573,316)"/>
<path d="M0 0 C2.085 3.128 3.055 5.802 4.188 9.375 C4.552 10.496 4.917 11.618 5.293 12.773 C6.001 16.004 5.922 17.864 5 21 C3.142 17.865 2.799 15.625 3 12 C2.34 12 1.68 12 1 12 C0.638 10.377 0.285 8.751 -0.062 7.125 C-0.26 6.22 -0.457 5.315 -0.66 4.383 C-1 2 -1 2 0 0 Z " fill="#E7751F" transform="translate(664,293)"/>
<path d="M0 0 C-6.565 4.377 -6.565 4.377 -10.062 6.188 C-10.755 6.552 -11.447 6.917 -12.16 7.293 C-12.767 7.526 -13.374 7.76 -14 8 C-14.66 7.67 -15.32 7.34 -16 7 C-12.012 2.529 -6.424 -2.827 0 0 Z " fill="#16110E" transform="translate(567,344)"/>
<path d="M0 0 C0.33 0 0.66 0 1 0 C1.33 2.31 1.66 4.62 2 7 C2.99 7.33 3.98 7.66 5 8 C6.478 10.957 6.06 13.742 6 17 C5.67 17 5.34 17 5 17 C4.67 15.35 4.34 13.7 4 12 C3.01 13.485 3.01 13.485 2 15 C1.34 15 0.68 15 0 15 C0 10.05 0 5.1 0 0 Z " fill="#B44E15" transform="translate(342,330)"/>
<path d="M0 0 C0.66 0 1.32 0 2 0 C2.231 4.744 1.398 8.478 0 13 C-0.354 14.662 -0.696 16.328 -1 18 C-1.66 18 -2.32 18 -3 18 C-3.33 18.99 -3.66 19.98 -4 21 C-3.354 16.127 -2.49 11.369 -1.438 6.562 C-1.033 4.708 -1.033 4.708 -0.621 2.816 C-0.314 1.422 -0.314 1.422 0 0 Z " fill="#D1691C" transform="translate(342,274)"/>
<path d="M0 0 C2.375 -0.054 4.749 -0.094 7.125 -0.125 C7.79 -0.142 8.455 -0.159 9.141 -0.176 C13.495 -0.218 16.956 0.4 21 2 C20.01 2.33 19.02 2.66 18 3 C18.33 3.99 18.66 4.98 19 6 C16.69 5.67 14.38 5.34 12 5 C12.33 4.01 12.66 3.02 13 2 C8.71 1.67 4.42 1.34 0 1 C0 0.67 0 0.34 0 0 Z " fill="#B67A5D" transform="translate(429,347)"/>
<path d="M0 0 C2.413 4.137 4.508 9.455 3.551 14.25 C3.369 14.827 3.187 15.405 3 16 C2.133 14.738 1.282 13.465 0.438 12.188 C-0.276 11.126 -0.276 11.126 -1.004 10.043 C-2 8 -2 8 -1 5 C-0.652 3.336 -0.316 1.67 0 0 Z " fill="#D1691C" transform="translate(632,291)"/>
<path d="M0 0 C0.846 0.144 1.691 0.289 2.562 0.438 C6.036 1.006 9.514 1.512 13 2 C13 2.99 13 3.98 13 5 C7.307 5.455 4.457 4.588 0 1 C0 0.67 0 0.34 0 0 Z " fill="#16110E" transform="translate(496,515)"/>
<path d="M0 0 C0.99 0.33 1.98 0.66 3 1 C1.24 6.92 -1.397 12.416 -4 18 C-5.218 14.249 -4.518 12.448 -2.836 8.883 C-1.557 6.002 -0.807 3.044 0 0 Z " fill="#214A87" transform="translate(782,928)"/>
<path d="M0 0 C-2.831 2.831 -5.056 2.475 -9 2.75 C-10.258 2.848 -11.516 2.946 -12.812 3.047 C-16 3 -16 3 -18 1 C-12.033 -0.326 -6.074 -0.088 0 0 Z " fill="#FBD0B5" transform="translate(585,316)"/>
<path d="M0 0 C2.694 2.514 4.448 4.672 6 8 C4.562 7.885 3.124 7.758 1.688 7.625 C0.887 7.555 0.086 7.486 -0.738 7.414 C-3 7 -3 7 -6 5 C-3 4 -3 4 0 4 C0 2.68 0 1.36 0 0 Z " fill="#D1691C" transform="translate(488,302)"/>
<path d="M0 0 C0.66 0.33 1.32 0.66 2 1 C2.633 3.066 2.633 3.066 3.125 5.562 C3.293 6.389 3.46 7.215 3.633 8.066 C3.754 8.704 3.875 9.343 4 10 C1.562 9.312 1.562 9.312 -1 8 C-1.812 5.375 -1.812 5.375 -2 3 C-1.34 3 -0.68 3 0 3 C0 2.01 0 1.02 0 0 Z " fill="#D1691C" transform="translate(730,725)"/>
<path d="M0 0 C0.66 0 1.32 0 2 0 C2.701 1.745 3.385 3.496 4.062 5.25 C4.445 6.225 4.828 7.199 5.223 8.203 C6.011 11.04 6.024 12.294 5 15 C2.828 12.828 2.321 11.5 1.375 8.625 C1.115 7.854 0.854 7.083 0.586 6.289 C0 4 0 4 0 0 Z " fill="#E7751F" transform="translate(658,279)"/>
<path d="M0 0 C0.33 0 0.66 0 1 0 C1 6.6 1 13.2 1 20 C0.67 20 0.34 20 0 20 C0 17.03 0 14.06 0 11 C-0.66 11 -1.32 11 -2 11 C-1.859 9.541 -1.712 8.083 -1.562 6.625 C-1.481 5.813 -1.4 5.001 -1.316 4.164 C-1 2 -1 2 0 0 Z " fill="#C5A087" transform="translate(640,386)"/>
<path d="M0 0 C1.264 3.792 0.473 4.355 -1 8 C-1.758 11.317 -2.389 14.653 -3 18 C-3.99 17.01 -4.98 16.02 -6 15 C-4.401 9.804 -2.259 4.934 0 0 Z " fill="#A5621D" transform="translate(357,234)"/>
<path d="M0 0 C4.178 2.089 4.924 3.055 7 7 C5.35 7 3.7 7 2 7 C1.67 8.32 1.34 9.64 1 11 C0.67 7.37 0.34 3.74 0 0 Z " fill="#D4D3D1" transform="translate(455,365)"/>
<path d="M0 0 C8.571 -0.286 8.571 -0.286 12 2 C10.02 2.99 10.02 2.99 8 4 C8 4.33 8 4.66 8 5 C6.02 5 4.04 5 2 5 C2 4.01 2 3.02 2 2 C1.34 1.34 0.68 0.68 0 0 Z " fill="#C5A087" transform="translate(590,316)"/>
<path d="M0 0 C2 1 2 1 2.633 2.848 C2.795 3.579 2.958 4.309 3.125 5.062 C3.293 5.796 3.46 6.529 3.633 7.285 C3.754 7.851 3.875 8.417 4 9 C3.01 9 2.02 9 1 9 C0.67 7.68 0.34 6.36 0 5 C-0.66 5 -1.32 5 -2 5 C-2 4.01 -2 3.02 -2 2 C-1.34 2 -0.68 2 0 2 C0 1.34 0 0.68 0 0 Z " fill="#E7751F" transform="translate(714,680)"/>
<path d="M0 0 C0.66 0 1.32 0 2 0 C2.054 1.437 2.093 2.875 2.125 4.312 C2.148 5.113 2.171 5.914 2.195 6.738 C2 9 2 9 0 12 C-0.99 12 -1.98 12 -3 12 C-2.01 8.04 -1.02 4.08 0 0 Z " fill="#381A0A" transform="translate(321,631)"/>
<path d="M0 0 C2.493 3.74 2.06 5.291 1.625 9.688 C1.514 10.867 1.403 12.046 1.289 13.262 C1.194 14.165 1.098 15.069 1 16 C0.34 15.67 -0.32 15.34 -1 15 C-1.103 9.874 -1.036 5.05 0 0 Z " fill="#E1710E" transform="translate(648,302)"/>
<path d="M0 0 C-1.557 4.671 -4.084 8.087 -7 12 C-8 9 -8 9 -6.75 6 C-3.25 0 -3.25 0 0 0 Z " fill="#E7751F" transform="translate(415,205)"/>
<path d="M0 0 C2.391 3.825 2.56 7.597 3 12 C2.01 12.33 1.02 12.66 0 13 C-1.326 8.855 -1.984 3.968 0 0 Z " fill="#C65F13" transform="translate(703,638)"/>
<path d="M0 0 C0.33 0 0.66 0 1 0 C0.94 1.959 0.851 3.918 0.75 5.875 C0.704 6.966 0.657 8.056 0.609 9.18 C0 12 0 12 -2.047 13.383 C-2.691 13.586 -3.336 13.79 -4 14 C-3.524 12.041 -3.044 10.083 -2.562 8.125 C-2.296 7.034 -2.029 5.944 -1.754 4.82 C-1 2 -1 2 0 0 Z " fill="#F4EAD9" transform="translate(674,519)"/>
<path d="M0 0 C3.205 6.195 3.205 6.195 2.062 10.688 C1.712 11.781 1.361 12.874 1 14 C1.99 14.33 2.98 14.66 4 15 C2.68 15 1.36 15 0 15 C-1.002 9.654 -0.849 5.376 0 0 Z " fill="#C5A087" transform="translate(646,418)"/>
<path d="M0 0 C-0.99 0.33 -1.98 0.66 -3 1 C-2.67 1.66 -2.34 2.32 -2 3 C-5.63 3.33 -9.26 3.66 -13 4 C-9.192 0.192 -5.339 -2.054 0 0 Z " fill="#2F1F19" transform="translate(431,345)"/>
<path d="M0 0 C1.98 0.66 3.96 1.32 6 2 C6.33 3.98 6.66 5.96 7 8 C6.01 8 5.02 8 4 8 C0 2.743 0 2.743 0 0 Z " fill="#624F3A" transform="translate(464,363)"/>
<path d="M0 0 C1.484 0.423 2.962 0.864 4.438 1.312 C5.673 1.678 5.673 1.678 6.934 2.051 C7.616 2.364 8.297 2.677 9 3 C9.33 3.99 9.66 4.98 10 6 C7.69 6 5.38 6 3 6 C3.33 5.01 3.66 4.02 4 3 C2.68 2.67 1.36 2.34 0 2 C0 1.34 0 0.68 0 0 Z " fill="#F26E11" transform="translate(574,293)"/>
<path d="M0 0 C2.97 0.33 5.94 0.66 9 1 C9 1.33 9 1.66 9 2 C7.35 2 5.7 2 4 2 C4 2.99 4 3.98 4 5 C1.69 4.67 -0.62 4.34 -3 4 C-2.34 3.67 -1.68 3.34 -1 3 C-0.67 2.01 -0.34 1.02 0 0 Z " fill="#CC8A69" transform="translate(580,347)"/>
<path d="M0 0 C1.212 0.014 1.212 0.014 2.449 0.027 C3.372 0.045 3.372 0.045 4.312 0.062 C4.643 0.723 4.972 1.382 5.312 2.062 C0.692 2.392 -3.928 2.723 -8.688 3.062 C-6.883 -0.546 -3.602 -0.052 0 0 Z " fill="#070505" transform="translate(571.6875,342.9375)"/>
<path d="M0 0 C0.66 0 1.32 0 2 0 C3.176 3.674 3.074 7.169 3 11 C2.01 11.495 2.01 11.495 1 12 C-0.327 8.019 -0.069 4.15 0 0 Z " fill="#CA6E0F" transform="translate(350,310)"/>
<path d="M0 0 C1.268 3.654 0.757 6.491 0.062 10.25 C-0.132 11.328 -0.327 12.405 -0.527 13.516 C-0.683 14.335 -0.839 15.155 -1 16 C-1.66 16 -2.32 16 -3 16 C-3.33 14.35 -3.66 12.7 -4 11 C-3.01 10.67 -2.02 10.34 -1 10 C-1.33 7.69 -1.66 5.38 -2 3 C-1.34 3 -0.68 3 0 3 C0 2.01 0 1.02 0 0 Z " fill="#B44E15" transform="translate(635,608)"/>
<path d="M0 0 C2.398 2.398 2.343 3.333 2.625 6.625 C2.7 7.442 2.775 8.26 2.852 9.102 C2.925 10.041 2.925 10.041 3 11 C2.67 10.34 2.34 9.68 2 9 C1.34 9 0.68 9 0 9 C-2 6 -2 6 -1.688 3.938 C-1 2 -1 2 0 0 Z " fill="#E7751F" transform="translate(325,410)"/>
<path d="M0 0 C0.99 0.33 1.98 0.66 3 1 C-2.94 6.445 -2.94 6.445 -9 12 C-9 9 -9 9 -7.031 6.738 C-5.778 5.538 -5.778 5.538 -4.5 4.312 C-3.665 3.504 -2.829 2.696 -1.969 1.863 C-1.319 1.248 -0.669 0.634 0 0 Z " fill="#C5A087" transform="translate(551,353)"/>
<path d="M0 0 C1.887 0.031 1.887 0.031 3.812 0.062 C4.142 0.723 4.473 1.382 4.812 2.062 C-1.623 2.558 -1.623 2.558 -8.188 3.062 C-6.457 -0.398 -3.474 -0.057 0 0 Z " fill="#070505" transform="translate(435.1875,343.9375)"/>
<path d="M0 0 C0.66 0.33 1.32 0.66 2 1 C1.5 3.875 1.5 3.875 0 7 C-2.683 8.183 -5.068 8.527 -8 9 C-8 8.34 -8 7.68 -8 7 C-7.051 6.587 -6.103 6.175 -5.125 5.75 C-1.993 3.996 -1.135 3.291 0 0 Z " fill="#E7751F" transform="translate(281,730)"/>
<path d="M0 0 C5.4 0.318 7.523 3.2 11 7 C10.67 7.66 10.34 8.32 10 9 C8.33 7.691 6.664 6.378 5 5.062 C4.072 4.332 3.144 3.601 2.188 2.848 C1.466 2.238 0.744 1.628 0 1 C0 0.67 0 0.34 0 0 Z " fill="#D79672" transform="translate(453,354)"/>
<path d="M0 0 C3 3 3 3 3.074 5.043 C2.716 7.029 2.358 9.014 2 11 C1.34 11 0.68 11 0 11 C0 7.37 0 3.74 0 0 Z " fill="#ECD3B3" transform="translate(490,380)"/>
<path d="M0 0 C1.65 0 3.3 0 5 0 C3.557 3.366 1.667 5.51 -1 8 C-0.67 5.36 -0.34 2.72 0 0 Z " fill="#FEFDF4" transform="translate(457,372)"/>
<path d="M0 0 C0.99 0 1.98 0 3 0 C3.33 2.97 3.66 5.94 4 9 C3.67 8.34 3.34 7.68 3 7 C2.34 7 1.68 7 1 7 C0.67 4.69 0.34 2.38 0 0 Z " fill="#E7751F" transform="translate(709,671)"/>
<path d="M0 0 C2.503 5.006 2.052 6.651 1 12 C0.01 12.495 0.01 12.495 -1 13 C-0.67 8.71 -0.34 4.42 0 0 Z " fill="#E7751F" transform="translate(331,332)"/>
<path d="M0 0 C0 0.99 0 1.98 0 3 C-2.906 4.257 -4.796 5 -8 5 C-7.67 4.01 -7.34 3.02 -7 2 C-4.567 0.815 -2.72 0 0 0 Z " fill="#EBC6AA" transform="translate(562,330)"/>
<path d="M0 0 C2 2 2 2 2.047 4.094 C1.949 4.888 1.851 5.682 1.75 6.5 C1.662 7.294 1.575 8.088 1.484 8.906 C1 11 1 11 -1 13 C-2.128 9.617 -1.818 8.232 -1.062 4.812 C-0.868 3.911 -0.673 3.01 -0.473 2.082 C-0.239 1.051 -0.239 1.051 0 0 Z " fill="#E7751F" transform="translate(636,595)"/>
<path d="M0 0 C0.66 0 1.32 0 2 0 C1.25 7.75 1.25 7.75 -1 10 C-1.027 8.521 -1.046 7.042 -1.062 5.562 C-1.074 4.739 -1.086 3.915 -1.098 3.066 C-1 1 -1 1 0 0 Z " fill="#F47F10" transform="translate(326,381)"/>
<path d="M0 0 C1.32 0 2.64 0 4 0 C4 2.64 4 5.28 4 8 C3.67 6.68 3.34 5.36 3 4 C1.68 3.67 0.36 3.34 -1 3 C-0.67 2.01 -0.34 1.02 0 0 Z " fill="#D4D3D1" transform="translate(584,368)"/>
<path d="M0 0 C-0.33 1.65 -0.66 3.3 -1 5 C-1.99 5 -2.98 5 -4 5 C-6.188 6.938 -6.188 6.938 -8 9 C-8.66 8.67 -9.32 8.34 -10 8 C-8.715 6.661 -7.421 5.329 -6.125 4 C-5.046 2.886 -5.046 2.886 -3.945 1.75 C-2 0 -2 0 0 0 Z " fill="#C3C0BD" transform="translate(555,362)"/>
<path d="M0 0 C0.66 0.33 1.32 0.66 2 1 C1.01 4.3 0.02 7.6 -1 11 C-1.33 11 -1.66 11 -2 11 C-2.054 9.542 -2.093 8.084 -2.125 6.625 C-2.16 5.407 -2.16 5.407 -2.195 4.164 C-2 2 -2 2 0 0 Z " fill="#D1691C" transform="translate(316,643)"/>
<path d="M0 0 C0 1.98 0 3.96 0 6 C-0.33 5.34 -0.66 4.68 -1 4 C-4.029 3.342 -4.029 3.342 -7 3 C-3.375 0 -3.375 0 0 0 Z " fill="#D1691C" transform="translate(662,488)"/>
<path d="M0 0 C0.66 0 1.32 0 2 0 C1.01 2.97 0.02 5.94 -1 9 C-1.66 8.34 -2.32 7.68 -3 7 C-2.67 3.703 -2.377 2.377 0 0 Z " fill="#2F1F19" transform="translate(541,360)"/>
<path d="M0 0 C4.677 1.477 4.677 1.477 6.312 4.125 C6.539 4.744 6.766 5.363 7 6 C6.01 6.33 5.02 6.66 4 7 C0 2.25 0 2.25 0 0 Z " fill="#322925" transform="translate(411,350)"/>
<path d="M0 0 C3.083 1.199 6.063 2.477 9 4 C8.67 4.99 8.34 5.98 8 7 C6.661 6.217 5.329 5.423 4 4.625 C3.258 4.184 2.515 3.743 1.75 3.289 C1.173 2.864 0.595 2.438 0 2 C0 1.34 0 0.68 0 0 Z " fill="#E8E8E6" transform="translate(583,163)"/>
<path d="M0 0 C0.66 0 1.32 0 2 0 C1.328 3.806 0.273 7.352 -1 11 C-2.238 7.423 -1.813 4.658 -1 1 C-0.67 0.67 -0.34 0.34 0 0 Z " fill="#E7751F" transform="translate(308,663)"/>
<path d="M0 0 C-6 4 -6 4 -8 4 C-8.33 3.01 -8.66 2.02 -9 1 C-5.574 -0.618 -3.619 -1.341 0 0 Z " fill="#2F1F19" transform="translate(567,344)"/>
<path d="M0 0 C2.011 2.56 3.628 5.046 5 8 C2.03 7.505 2.03 7.505 -1 7 C-0.67 4.69 -0.34 2.38 0 0 Z " fill="#D1691C" transform="translate(625,305)"/>
<path d="M0 0 C1.32 0.66 2.64 1.32 4 2 C1.826 4.5 0.27 5.436 -3 6 C-3 5.34 -3 4.68 -3 4 C-2.34 3.67 -1.68 3.34 -1 3 C-0.67 2.01 -0.34 1.02 0 0 Z " fill="#E7751F" transform="translate(543,301)"/>
<path d="M0 0 C2.024 3.035 2.321 4.194 2.625 7.688 C2.7 8.496 2.775 9.304 2.852 10.137 C2.901 10.752 2.95 11.366 3 12 C0.894 10.292 0.062 9.479 -0.293 6.738 C-0.258 5.938 -0.223 5.137 -0.188 4.312 C-0.16 3.504 -0.133 2.696 -0.105 1.863 C-0.071 1.248 -0.036 0.634 0 0 Z " fill="#B44E15" transform="translate(633,295)"/>
<path d="M0 0 C1.945 2.918 2.453 4.625 3 8 C1.68 7.67 0.36 7.34 -1 7 C-0.67 4.69 -0.34 2.38 0 0 Z " fill="#C65F13" transform="translate(716,721)"/>
<path d="M0 0 C0.66 0 1.32 0 2 0 C2.33 2.64 2.66 5.28 3 8 C2.01 7.67 1.02 7.34 0 7 C0 4.69 0 2.38 0 0 Z " fill="#D1691C" transform="translate(693,648)"/>
<path d="M0 0 C0.99 0.33 1.98 0.66 3 1 C3.33 2.65 3.66 4.3 4 6 C3.01 6.33 2.02 6.66 1 7 C0.67 4.69 0.34 2.38 0 0 Z " fill="#16110E" transform="translate(703,635)"/>
<path d="M0 0 C2.686 2.686 3.06 5.376 4 9 C3.01 9 2.02 9 1 9 C0.67 6.03 0.34 3.06 0 0 Z " fill="#DAC1A6" transform="translate(371,398)"/>
<path d="M0 0 C0.99 0.66 1.98 1.32 3 2 C3 2.99 3 3.98 3 5 C1.68 5.33 0.36 5.66 -1 6 C-1.33 5.01 -1.66 4.02 -2 3 C-1.34 2.01 -0.68 1.02 0 0 Z " fill="#E69F7C" transform="translate(418,349)"/>
<path d="M0 0 C1.709 1.623 3.374 3.293 5 5 C5 5.66 5 6.32 5 7 C4.01 7.33 3.02 7.66 2 8 C0.743 5.094 0 3.204 0 0 Z " fill="#27150C" transform="translate(490,189)"/>
<path d="M0 0 C0.66 0.66 1.32 1.32 2 2 C-0.97 3.65 -3.94 5.3 -7 7 C-5.667 3 -3.504 2.162 0 0 Z " fill="#E8E8E6" transform="translate(400,171)"/>
<path d="M0 0 C0.66 0.33 1.32 0.66 2 1 C2.625 4.062 2.625 4.062 3 7 C2.01 7.495 2.01 7.495 1 8 C0.269 6.023 -0.394 4.019 -1 2 C-0.67 1.34 -0.34 0.68 0 0 Z " fill="#E7751F" transform="translate(724,713)"/>
<path d="M0 0 C0.66 0.66 1.32 1.32 2 2 C1.67 2.99 1.34 3.98 1 5 C-1.31 4.67 -3.62 4.34 -6 4 C-2.25 2 -2.25 2 0 2 C0 1.34 0 0.68 0 0 Z " fill="#DAB79A" transform="translate(521,357)"/>
<path d="M0 0 C0.33 0.99 0.66 1.98 1 3 C-0.438 5.188 -0.438 5.188 -2 7 C-2.99 6.67 -3.98 6.34 -5 6 C-3.35 4.02 -1.7 2.04 0 0 Z " fill="#381A0A" transform="translate(422,196)"/>
</svg>