<svg version="1.1" xmlns="http://www.w3.org/2000/svg" width="1024" height="1024">
<path d="M0 0 C337.92 0 675.84 0 1024 0 C1024 337.92 1024 675.84 1024 1024 C686.08 1024 348.16 1024 0 1024 C0 686.08 0 348.16 0 0 Z " fill="#FEFEFE" transform="translate(0,0)"/>
<path d="M0 0 C11.702 10.302 19.314 22.11 24 37 C24 37.66 24 38.32 24 39 C24.66 38.67 25.32 38.34 26 38 C36.568 36.72 46.021 38.892 54.687 45.235 C70.244 57.768 81.551 76.644 83.815 96.655 C85.799 121.768 83.597 146.932 67 167 C66.419 167.705 65.837 168.41 65.238 169.137 C59.872 175.044 53.26 178.822 46 182 C45.01 182 44.02 182 43 182 C43.146 182.761 43.292 183.522 43.443 184.306 C46.806 202.226 48.628 219.624 48.834 237.858 C48.858 239.795 48.897 241.732 48.937 243.668 C48.974 245.644 48.987 247.62 48.944 249.595 C48.907 251.947 48.907 251.947 50 255 C52.541 257.002 55.298 258.066 58.312 259.188 C67.859 262.938 67.859 262.938 71 268 C72.221 271.663 72.432 275.181 72 279 C71.665 279.566 71.33 280.131 70.985 280.714 C69.651 283.809 69.877 286.249 70.016 289.609 C70.054 290.914 70.092 292.219 70.131 293.563 C70.162 294.59 70.162 294.59 70.194 295.638 C70.669 313.517 67.828 326.175 57 341 C56.67 341.33 56.34 341.66 56 342 C55.865 344.225 55.796 346.455 55.754 348.684 C55.723 350.091 55.691 351.499 55.659 352.906 C55.644 353.646 55.629 354.386 55.613 355.149 C55.048 380.793 53.256 406.054 41.453 429.381 C40.063 432.18 39 434.416 39 437.574 C40.378 440.916 42.306 443.733 44.438 446.625 C44.883 447.24 45.329 447.854 45.789 448.488 C49.419 453.403 53.401 457.907 57.57 462.375 C68.438 474.116 79.465 487.82 85 503 C85.316 503.797 85.632 504.593 85.957 505.414 C90.216 517.977 89.317 533.609 85 546 C84.671 547.007 84.343 548.014 84.004 549.051 C79.126 562.874 71.746 575.086 62 586 C61.258 586.862 60.515 587.725 59.75 588.613 C44.43 606.141 23.346 621.591 -0.555 623.246 C-14.457 623.708 -25.472 619.412 -36 610.262 C-46.009 599.828 -49.748 585.461 -53 571.812 C-55.492 562.311 -58.174 553.031 -66.586 547.211 C-71.682 544.265 -76.098 542.262 -82 542 C-81.897 542.887 -81.794 543.774 -81.688 544.688 C-82 548 -82 548 -83.875 550.625 C-92.087 556.866 -100.248 557.59 -110.312 557.375 C-112.013 557.373 -112.013 557.373 -113.748 557.371 C-125.336 557.252 -136.403 555.338 -147.625 552.562 C-148.532 552.342 -149.438 552.121 -150.372 551.893 C-152.917 551.269 -155.459 550.636 -158 550 C-159.136 549.719 -160.271 549.438 -161.441 549.148 C-167.508 547.578 -173.239 545.462 -179 543 C-179.206 543.763 -179.413 544.526 -179.625 545.312 C-184.918 559.508 -194.577 571.953 -206.379 581.361 C-208.057 582.702 -208.057 582.702 -210 585 C-210.1 589.263 -207.987 591.659 -205.312 594.812 C-201.733 599.115 -198.321 603.496 -195 608 C-193.395 604.388 -192.68 601.231 -192.25 597.312 C-190.274 583.8 -185.536 571.371 -178 560 C-176.35 560.33 -174.7 560.66 -173 561 C-173.571 564.546 -174.497 567.19 -176.25 570.312 C-182.685 582.941 -184.988 596.252 -186.69 610.191 C-187 612 -187 612 -188 614 C-188.747 619.854 -187.068 623.581 -184.387 628.766 C-180.779 637.18 -179.487 645.199 -179.625 654.312 C-179.645 655.825 -179.645 655.825 -179.665 657.368 C-180.132 677.754 -188.084 695.14 -202 710 C-202.66 710.75 -203.32 711.5 -204 712.273 C-219.523 729.031 -245.321 742.945 -268.365 744.121 C-295.016 744.965 -317.646 739.23 -337.613 720.613 C-344.579 712.986 -349.811 703.813 -353 694 C-353.413 692.763 -353.825 691.525 -354.25 690.25 C-354.99 687.044 -355.16 684.277 -355 681 C-356.943 682.866 -358.797 684.753 -360.508 686.836 C-368.022 695.957 -378.103 702.523 -390 704 C-416.979 705.843 -439.919 693.999 -459.922 676.627 C-476.632 661.754 -491.747 641.873 -493.133 618.787 C-494.125 597.978 -487.658 581.783 -475.836 564.853 C-474.822 563.02 -474.822 563.02 -475.217 560.924 C-476.483 557.813 -479.017 555.86 -481.438 553.625 C-500.48 535.298 -515.423 507.197 -516.301 480.414 C-516.32 478.484 -516.323 476.555 -516.312 474.625 C-516.309 473.613 -516.306 472.602 -516.302 471.56 C-516.196 464.319 -515.336 457.875 -513 451 C-512.797 450.268 -512.594 449.537 -512.385 448.783 C-510.683 442.692 -508.421 437.258 -505.438 431.688 C-504.779 430.453 -504.779 430.453 -504.107 429.193 C-498.197 418.392 -490.596 409.477 -482.202 400.54 C-474.975 392.832 -469.384 386.319 -469.595 375.296 C-470.434 368.471 -473.037 362.057 -475.375 355.625 C-484.201 331.129 -486.364 308.169 -475 284 C-467.162 269.544 -455.304 257.682 -444.059 245.848 C-427.225 228.784 -427.225 228.784 -419.688 206.625 C-418.694 200.287 -417.382 194.153 -415.562 188 C-415.273 187.015 -415.273 187.015 -414.977 186.01 C-413.299 180.546 -411.174 175.283 -409 170 C-408.69 169.237 -408.381 168.474 -408.062 167.688 C-392.628 129.901 -372.977 90.454 -348 58 C-347.158 56.874 -346.317 55.748 -345.477 54.621 C-325.363 28.022 -300.206 7.557 -270.188 -6.875 C-269.423 -7.245 -268.659 -7.614 -267.872 -7.995 C-263.138 -10.209 -258.424 -11.863 -253.398 -13.286 C-251.197 -13.941 -249.101 -14.706 -246.969 -15.555 C-242.577 -17.246 -238.106 -18.201 -233.5 -19.125 C-232.697 -19.294 -231.894 -19.463 -231.066 -19.637 C-212.953 -23.365 -192.882 -24.162 -175 -19 C-174.056 -18.735 -174.056 -18.735 -173.093 -18.464 C-164.076 -15.883 -154.772 -12.772 -148 -6 C-144.448 -6.481 -141.704 -8.22 -138.622 -9.984 C-128.51 -15.72 -118.283 -19.304 -107 -22 C-106.262 -22.178 -105.523 -22.356 -104.762 -22.539 C-68.261 -30.839 -28.909 -24.422 0 0 Z " fill="#262325" transform="translate(664,168)"/>
<path d="M0 0 C8.088 4.796 13.61 11.541 18.648 19.355 C19.239 20.045 19.829 20.735 20.438 21.445 C21.757 21.445 23.077 21.445 24.438 21.445 C25.097 20.455 25.757 19.465 26.438 18.445 C32.567 19.384 38.605 20.448 44.625 21.945 C52.477 23.827 60.419 24.629 68.438 25.445 C68.441 26.557 68.441 26.557 68.445 27.691 C69.163 47.224 78.244 65.212 92.438 78.445 C107.064 90.878 121.552 95.628 140.438 94.445 C154.938 92.239 168.011 84.161 176.688 72.383 C182.961 62.082 186.116 51.288 186.593 39.297 C186.723 37.113 186.723 37.113 187.438 33.445 C190.204 31.13 191.881 30.526 195.438 30.008 C199.375 30.582 200.764 31.483 203.438 34.445 C204.778 37.351 205.588 40.366 206.438 43.445 C207.729 47.792 209.073 52.121 210.438 56.445 C210.801 57.614 210.801 57.614 211.172 58.807 C214.892 70.629 218.639 79.988 227.09 89.258 C230.412 92.939 230.412 92.939 230.551 95.73 C228.792 100.02 225.296 101.927 221.562 104.508 C220.103 105.535 218.647 106.567 217.195 107.605 C216.547 108.055 215.899 108.505 215.231 108.969 C213.231 110.615 211.847 112.276 210.438 114.445 C210.438 115.105 210.438 115.765 210.438 116.445 C213.5 115.835 215.596 114.862 218.152 113.082 C218.839 112.607 219.525 112.132 220.232 111.643 C220.939 111.144 221.647 110.646 222.375 110.133 C223.078 109.646 223.781 109.16 224.506 108.658 C231.391 104.395 231.391 104.395 236.438 98.445 C236.951 95.365 236.933 93.275 235.309 90.555 C233.737 88.47 232.105 86.454 230.438 84.445 C226.394 79.351 223.022 74.442 220.438 68.445 C220.767 67.785 221.098 67.125 221.438 66.445 C221.96 66.965 222.482 67.484 223.02 68.02 C228.687 73.389 234.156 76.683 241.438 79.445 C242.531 79.878 243.624 80.312 244.75 80.758 C258.408 83.304 268.534 80.577 280.68 74.688 C283.438 73.445 283.438 73.445 285.438 73.445 C286.504 122.486 269.177 161.332 243.118 201.833 C241.928 203.683 240.742 205.536 239.558 207.39 C237.588 210.476 235.608 213.555 233.625 216.633 C233.015 217.589 232.405 218.545 231.776 219.53 C223.373 232.494 214.679 241.259 199.438 245.445 C194.743 246.227 190.237 246.574 185.48 246.578 C184.204 246.579 182.927 246.581 181.611 246.582 C180.296 246.578 178.98 246.574 177.625 246.57 C176.277 246.574 174.928 246.578 173.58 246.582 C171.675 246.58 171.675 246.58 169.73 246.578 C168.571 246.577 167.411 246.576 166.216 246.575 C163.438 246.445 163.438 246.445 161.438 245.445 C159.607 245.172 157.773 244.927 155.938 244.695 C126.508 240.215 98.524 226.589 74.438 209.445 C73.826 209.022 73.214 208.599 72.583 208.163 C70.768 206.904 68.976 205.617 67.188 204.32 C66.151 203.575 65.115 202.83 64.047 202.062 C60.868 198.874 59.887 195.595 58.438 191.445 C57.818 189.77 57.196 188.096 56.572 186.423 C38.954 138.789 38.954 138.789 33.169 114.484 C32.007 109.658 30.718 104.866 29.438 100.07 C29.041 98.563 28.645 97.055 28.25 95.547 C27.848 94.012 27.848 94.012 27.438 92.445 C26.793 92.436 26.149 92.427 25.485 92.417 C22.51 92.363 19.537 92.279 16.562 92.195 C15.043 92.174 15.043 92.174 13.492 92.152 C-1.065 91.686 -11.884 84.693 -21.812 74.258 C-34.691 58.776 -39.013 41.587 -37.786 21.703 C-36.874 12.482 -31.783 5.997 -24.977 0.062 C-17.735 -4.989 -7.613 -3.489 0 0 Z " fill="#FDBA93" transform="translate(426.5625,445.5546875)"/>
<path d="M0 0 C0.801 0.005 1.601 0.01 2.426 0.015 C10.876 0.182 17.203 2.305 24.75 6 C30.019 8.467 34.485 9.282 40.25 8.312 C43.652 6.948 43.652 6.948 46.25 5.312 C46.91 5.312 47.57 5.312 48.25 5.312 C48.853 7.089 48.853 7.089 49.469 8.902 C51.006 12.997 53.181 16.358 55.75 19.875 C74.012 46.215 85.779 81.815 85.312 114 C85.303 114.829 85.294 115.658 85.285 116.512 C85.268 117.403 85.268 117.403 85.25 118.312 C84.571 118.037 83.891 117.761 83.191 117.477 C67.504 111.268 51.022 107.593 34.68 114.098 C28.501 117.138 28.501 117.138 24.25 122.312 C23.873 127.718 23.873 127.718 25.312 132.812 C28.305 135.129 30.523 134.61 34.25 134.312 C36.399 133.6 38.431 132.731 40.504 131.822 C53.565 126.113 68.382 124.459 82.062 129.25 C85.881 130.944 85.881 130.944 87.25 132.312 C87.337 133.947 87.357 135.586 87.348 137.223 C87.344 138.212 87.341 139.201 87.338 140.221 C87.33 141.262 87.321 142.303 87.312 143.375 C87.308 144.42 87.303 145.465 87.299 146.541 C87.287 149.132 87.271 151.722 87.25 154.312 C86.362 154.005 86.362 154.005 85.457 153.691 C71.825 149.044 56.401 147.703 43 153.84 C28.46 161.626 18.529 172.187 13.379 187.984 C12.927 189.743 12.572 191.526 12.25 193.312 C11.59 193.148 10.93 192.982 10.25 192.812 C3.432 191.676 -0.729 191.872 -6.75 195.312 C-7.41 195.312 -8.07 195.312 -8.75 195.312 C-9.151 194.418 -9.552 193.523 -9.965 192.602 C-17.57 176.201 -29.326 164.969 -46.23 158.34 C-61.037 153.524 -78.759 155.519 -92.5 162.438 C-99.189 166.303 -106.073 171.065 -110.254 177.699 C-111.962 180.366 -112.969 181.737 -115.75 183.312 C-122.074 184.021 -128.474 183.115 -134.75 182.312 C-134.75 181.653 -134.75 180.993 -134.75 180.312 C-133.913 179.923 -133.077 179.534 -132.215 179.133 C-111.312 169.087 -93.921 154.947 -79.637 136.598 C-77.75 134.312 -77.75 134.312 -75.75 133.312 C-65.818 132.65 -56.837 133.167 -47.256 135.876 C-41.423 137.503 -35.33 138.808 -29.562 136.398 C-27.188 134.976 -26.623 133.933 -25.75 131.312 C-25.278 127.615 -25.34 125.928 -27.426 122.797 C-32.674 117.187 -40.142 115.314 -47.617 114.965 C-54.415 114.853 -61.06 115.002 -67.75 116.312 C-67.335 115.348 -67.335 115.348 -66.911 114.363 C-58.89 95.675 -58.89 95.675 -52.75 76.312 C-52.519 75.436 -52.287 74.56 -52.049 73.658 C-49.479 63.759 -47.108 53.867 -45.504 43.762 C-45.201 41.883 -45.201 41.883 -44.893 39.966 C-44.515 37.548 -44.162 35.127 -43.838 32.702 C-42.64 24.979 -40.574 20.55 -34.75 15.312 C-33.919 14.535 -33.087 13.758 -32.23 12.957 C-22.471 5.16 -12.658 -0.092 0 0 Z " fill="#FDBA93" transform="translate(617.75,263.6875)"/>
<path d="M0 0 C10.82 8.414 18.878 20.688 21.188 34.312 C21.675 38.779 21.231 41.436 19.184 45.324 C16.67 50.804 16.8 55.752 16.875 61.688 C16.73 70.91 15.852 77.422 9.188 84.312 C8.614 84.918 8.04 85.524 7.449 86.148 C3.558 89.816 -0.905 92.257 -5.812 94.312 C-6.383 94.565 -6.953 94.817 -7.541 95.077 C-12.632 97.191 -17.071 97.826 -22.562 97.75 C-23.35 97.741 -24.138 97.732 -24.95 97.723 C-38.922 97.312 -51.91 90.549 -62.137 81.109 C-74.875 67.451 -81.439 51.816 -81.121 33.168 C-80.303 22.952 -77.295 15.293 -69.812 8.312 C-69.069 7.562 -68.325 6.812 -67.559 6.039 C-48.988 -11.906 -21.36 -14.366 0 0 Z " fill="#FDBA93" transform="translate(583.8125,435.6875)"/>
<path d="M0 0 C0.009 0.558 0.019 1.117 0.028 1.692 C0.354 17.644 1.732 33.34 3.628 49.17 C4.553 57.086 5.208 64.945 5.309 72.918 C5.335 74.05 5.335 74.05 5.363 75.204 C5.36 78.392 5.24 80.593 3.602 83.37 C1.833 85.032 0.195 85.975 -2 87 C-2.648 87.379 -3.297 87.758 -3.965 88.148 C-12.814 93.09 -22.918 94.634 -32.828 92.348 C-42.701 89.061 -53.597 83.252 -59 74 C-59.528 71.743 -59.686 69.662 -59.777 67.348 C-60.27 62.154 -62.715 57.143 -65.375 52.707 C-70.323 44.315 -70.374 35.202 -68.301 25.844 C-64.166 13.421 -55.945 3.668 -44.586 -2.711 C-29.189 -10.386 -14.813 -7.439 0 0 Z " fill="#FDBA93" transform="translate(706,427)"/>
<path d="M0 0 C0.536 0.248 1.072 0.495 1.625 0.75 C1.303 1.269 0.98 1.789 0.648 2.324 C-1.673 7.827 -1.425 15.469 0.383 21.117 C2.21 24.469 4.417 26.752 7.625 28.75 C13.436 29.728 18.72 29.137 23.625 25.75 C27.489 21.468 28.725 18.807 29.188 13.125 C29.271 12.122 29.355 11.119 29.441 10.086 C29.532 8.93 29.532 8.93 29.625 7.75 C32.265 8.08 34.905 8.41 37.625 8.75 C38.615 7.43 39.605 6.11 40.625 4.75 C46.624 10.749 45.244 41.066 45.252 49.469 C45.076 53.424 44.544 55.886 41.625 58.625 C39.684 59.789 39.684 59.789 37.625 60.75 C36.977 61.129 36.328 61.508 35.66 61.898 C26.811 66.84 16.707 68.384 6.797 66.098 C-3.076 62.811 -13.972 57.002 -19.375 47.75 C-19.902 45.494 -20.061 43.418 -20.148 41.105 C-20.719 35.173 -23.877 29.64 -26.625 24.438 C-28.194 21.416 -28.808 19.214 -28.375 15.75 C-26.375 14.75 -26.375 14.75 -23.625 15.543 C-20.162 16.129 -20.162 16.129 -17.375 13.363 C-16.357 12.28 -15.357 11.179 -14.375 10.062 C-4.752 -0.5 -4.752 -0.5 0 0 Z " fill="#FDBA93" transform="translate(666.375,453.25)"/>
<path d="M0 0 C3.491 1.347 6.251 2.756 9.25 5 C30.653 20.238 56.165 32.786 82 38 C81.67 43.94 81.34 49.88 81 56 C57.012 65.595 21.312 53.986 -2 46 C-1.859 44.375 -1.712 42.75 -1.562 41.125 C-1.481 40.22 -1.4 39.315 -1.316 38.383 C-1 36 -1 36 0 34 C0.087 31.446 0.116 28.92 0.098 26.367 C0.096 25.615 0.095 24.864 0.093 24.089 C0.088 21.684 0.075 19.28 0.062 16.875 C0.057 15.246 0.053 13.617 0.049 11.988 C0.038 7.992 0.021 3.996 0 0 Z " fill="#FDBA93" transform="translate(491,658)"/>
<path d="M0 0 C6.852 3.935 14.19 9.345 18.211 16.27 C17.898 18.52 17.898 18.52 17.211 20.27 C14.717 19.066 12.53 17.815 10.211 16.27 C10.706 17.26 10.706 17.26 11.211 18.27 C11.875 23.803 10.758 27.006 7.711 31.473 C4.795 34.965 1.47 36.85 -2.789 38.27 C-7.987 38.703 -11.654 38.641 -16.18 35.641 C-20.347 32.09 -22.466 28.565 -23.234 23.105 C-23.469 16.302 -22.872 11.756 -18.789 6.27 C-29.574 6.473 -37.347 13.351 -44.621 20.766 C-47.518 22.775 -49.332 22.668 -52.789 22.27 C-56.164 20.395 -56.164 20.395 -58.789 18.27 C-58.789 17.61 -58.789 16.95 -58.789 16.27 C-58.195 16.241 -57.601 16.213 -56.988 16.184 C-49.422 15.313 -45.798 11.974 -40.461 6.75 C-29.659 -3.278 -13.514 -6.353 0 0 Z " fill="#262325" transform="translate(568.7890625,453.73046875)"/>
<path d="M0 0 C6.361 3.592 12.103 8.16 17.871 12.621 C17.541 13.941 17.211 15.261 16.871 16.621 C13.155 16.822 12.099 16.773 8.871 14.621 C8.918 15.346 8.964 16.07 9.012 16.816 C9.242 22.987 9.197 26.827 4.871 31.621 C-0.119 36.125 -4.045 37.042 -10.621 36.965 C-14.827 36.388 -16.314 34.779 -19.129 31.621 C-21.848 27.089 -22.515 23.759 -22.441 18.496 C-22.438 17.297 -22.434 16.098 -22.43 14.863 C-22.151 11.857 -21.707 10.148 -20.129 7.621 C-28.156 9.18 -33.755 16.116 -38.953 21.961 C-41.129 23.621 -41.129 23.621 -43.898 23.375 C-44.634 23.126 -45.371 22.877 -46.129 22.621 C-40.763 11.34 -31.814 2.845 -20.109 -1.531 C-12.976 -3.56 -6.777 -2.96 0 0 Z " fill="#262325" transform="translate(687.12890625,446.37890625)"/>
<path d="M0 0 C0.99 0.33 1.98 0.66 3 1 C2.742 4.488 1.735 5.242 -0.938 7.688 C-4 10 -4 10 -6 11 C-5.918 12.155 -5.835 13.31 -5.75 14.5 C-5.802 19.443 -6.906 23.104 -10 27 C-15.861 32.198 -21.369 33.776 -29.113 33.32 C-30.066 33.215 -31.019 33.109 -32 33 C-32.819 32.915 -33.637 32.83 -34.48 32.742 C-41.84 31.551 -46.914 27.675 -51.438 21.875 C-53 19 -53 19 -53.23 16.953 C-53.858 14.699 -53.858 14.699 -56.617 13.805 C-57.692 13.498 -58.767 13.191 -59.875 12.875 C-63.421 11.841 -65.908 11.061 -69 9 C-68.67 7.68 -68.34 6.36 -68 5 C-62.962 5.899 -58.212 7.485 -53.352 9.062 C-46.764 10.905 -40.351 11.182 -33.562 11.188 C-32.351 11.206 -32.351 11.206 -31.115 11.225 C-20.873 11.249 -11.34 8.414 -3.125 2.188 C-2.094 1.466 -1.062 0.744 0 0 Z " fill="#FD6053" transform="translate(651,593)"/>
<path d="M0 0 C0.33 0 0.66 0 1 0 C1.111 0.65 1.221 1.299 1.335 1.969 C1.846 4.959 2.361 7.948 2.875 10.938 C3.049 11.959 3.223 12.981 3.402 14.033 C4.178 18.528 4.97 22.999 6.008 27.441 C13.455 60.379 9.391 92.422 -8.172 121.219 C-13.227 128.909 -18.903 135.951 -24.938 142.875 C-32.834 151.96 -39.669 161.604 -45.938 171.875 C-46.303 172.469 -46.669 173.063 -47.046 173.676 C-49.598 177.963 -51.349 182.291 -53 187 C-53.33 187 -53.66 187 -54 187 C-55.885 171.289 -42.785 155.93 -33.672 144.312 C-31.475 141.556 -29.196 138.883 -26.885 136.223 C-4.435 110.321 5.312 81.338 3 47 C2.348 41.867 1.402 36.798 0.434 31.717 C-1.363 21.945 -3.205 9.614 0 0 Z " fill="#F0EFEF" transform="translate(367,472)"/>
<path d="M0 0 C0 0.33 0 0.66 0 1 C-1.007 1.02 -2.014 1.04 -3.051 1.06 C-6.868 1.137 -10.685 1.226 -14.502 1.317 C-16.139 1.355 -17.775 1.39 -19.412 1.422 C-34.092 1.71 -48.488 2.559 -62.688 6.625 C-63.605 6.883 -64.523 7.141 -65.469 7.407 C-92.037 15.097 -115.822 26.863 -136 46 C-137.535 47.362 -139.076 48.716 -140.625 50.062 C-141.277 50.631 -141.93 51.199 -142.602 51.785 C-143.063 52.186 -143.525 52.587 -144 53 C-145.32 52.34 -146.64 51.68 -148 51 C-139.855 31.151 -108.604 15.955 -90.393 7.932 C-81.19 4.086 -71.702 1.271 -62 -1 C-61.309 -1.165 -60.618 -1.33 -59.907 -1.5 C-40.629 -5.921 -18.803 -6.54 0 0 Z " fill="#919192" transform="translate(493,162)"/>
<path d="M0 0 C3.405 3.02 5.017 5.784 6.688 10 C7.104 11.031 7.52 12.062 7.949 13.125 C14.71 31.622 10.076 53.823 2.137 71.176 C-5.56 86.869 -18.142 98.354 -30.571 110.303 C-41.686 121.017 -51.804 132.113 -57 147 C-57.36 148.024 -57.719 149.047 -58.09 150.102 C-59.414 154.835 -59.216 159.561 -59.125 164.438 C-59.116 165.36 -59.107 166.282 -59.098 167.232 C-59.074 169.489 -59.042 171.744 -59 174 C-64.823 166.911 -63.844 156.739 -63 148 C-59.1 131.639 -45.845 116.699 -33.391 106.117 C-13.665 88.648 2.121 67.906 4.171 40.728 C4.878 28.35 3.266 16.879 0.367 4.859 C0 3 0 3 0 0 Z " fill="#F0EFEF" transform="translate(421,550)"/>
<path d="M0 0 C0 3 0 3 -2 6.125 C-13.001 23.321 -18.873 43.525 -25.246 62.751 C-38.372 101.921 -54.756 149.234 -91 173 C-91.33 172.34 -91.66 171.68 -92 171 C-91.515 170.599 -91.031 170.198 -90.531 169.785 C-77.378 158.63 -68.197 144.782 -59.975 129.77 C-59.025 128.045 -58.05 126.335 -57.074 124.625 C-44.864 102.922 -36.914 78.77 -28.652 55.367 C-13.066 11.279 -13.066 11.279 0 0 Z " fill="#F0EFEF" transform="translate(513,221)"/>
<path d="M0 0 C14.611 11.872 25.566 28.958 28 48 C28.616 58.264 28.728 68.293 25 78 C24.636 78.994 24.273 79.988 23.898 81.012 C21.336 87.6 18.221 93.338 14 99 C13.257 100.011 12.515 101.021 11.75 102.062 C5.756 108.976 -2.698 115.184 -11 119 C-11.66 118.67 -12.32 118.34 -13 118 C-12.359 117.432 -11.719 116.863 -11.059 116.277 C-9.249 114.662 -7.447 113.038 -5.652 111.406 C-4.162 110.054 -2.661 108.711 -1.129 107.406 C11 96.47 19.003 78.914 20.156 62.83 C21.322 39.819 13.108 22.921 0.996 3.785 C0 2 0 2 0 0 Z " fill="#F0EFEF" transform="translate(447,766)"/>
<path d="M0 0 C0.33 0 0.66 0 1 0 C0.593 8.044 -0.489 15.346 -3 23 C-3.343 24.065 -3.686 25.13 -4.039 26.227 C-12.991 51.875 -26.982 76.226 -40.266 99.809 C-47.884 113.404 -54.195 127.158 -59 142 C-59.33 142 -59.66 142 -60 142 C-62.181 118.008 -43.988 93.431 -32.973 73.426 C-23.911 56.938 -15.552 40.232 -8 23 C-7.573 22.039 -7.573 22.039 -7.137 21.059 C-4.079 14.176 -1.773 7.321 0 0 Z " fill="#F0EFEF" transform="translate(286,488)"/>
<path d="M0 0 C0.99 0.495 0.99 0.495 2 1 C1.343 1.808 1.343 1.808 0.672 2.633 C-10.59 17.236 -18.262 34.42 -26.418 50.863 C-53.17 104.633 -53.17 104.633 -74 112 C-73.154 111.01 -72.309 110.02 -71.438 109 C-70.604 108.022 -70.604 108.022 -69.754 107.023 C-68.678 105.782 -67.585 104.554 -66.465 103.352 C-52.221 87.882 -42.072 69.014 -32.594 50.406 C-32.206 49.646 -31.818 48.885 -31.418 48.101 C-29.486 44.308 -27.567 40.509 -25.669 36.698 C-22.045 29.478 -18.234 22.507 -13.766 15.77 C-13.166 14.864 -13.166 14.864 -12.555 13.94 C-8.949 8.649 -4.774 4.255 0 0 Z " fill="#F0EFEF" transform="translate(413,253)"/>
<path d="M0 0 C2.475 0.99 2.475 0.99 5 2 C4.734 2.701 4.469 3.403 4.195 4.125 C-2.808 22.937 -3.289 41.137 -3.125 61 C-3.115 63.143 -3.106 65.286 -3.098 67.43 C-3.076 72.62 -3.042 77.81 -3 83 C-5.475 83.495 -5.475 83.495 -8 84 C-9.716 81.009 -10.255 78.847 -10.275 75.409 C-10.284 74.504 -10.294 73.598 -10.304 72.665 C-10.303 71.689 -10.302 70.713 -10.301 69.707 C-10.305 68.688 -10.309 67.668 -10.314 66.618 C-10.32 64.453 -10.32 62.289 -10.316 60.124 C-10.313 56.87 -10.336 53.616 -10.361 50.361 C-10.475 13.005 -10.475 13.005 0 0 Z " fill="#353334" transform="translate(513,734)"/>
<path d="M0 0 C8.263 1.162 15.118 7.277 20.277 13.582 C33.353 31.936 38.645 52.902 35 75.312 C33.154 83.865 29.486 91.515 25 99 C24.01 99.495 24.01 99.495 23 100 C23.266 98.961 23.531 97.922 23.805 96.852 C24.162 95.443 24.518 94.034 24.875 92.625 C25.136 91.606 25.136 91.606 25.402 90.566 C25.954 88.382 26.481 86.193 27 84 C27.186 83.232 27.372 82.464 27.564 81.673 C31.221 65.314 30.705 47.426 24 32 C23.542 30.917 23.085 29.834 22.613 28.719 C17.948 18.595 11.001 10.636 3 3 C1.998 2.002 0.997 1.003 0 0 Z " fill="#DFE0E0" transform="translate(703,218)"/>
<path d="M0 0 C-1.39 3.654 -3.045 7.048 -4.875 10.5 C-8.064 16.808 -10.12 23.205 -12 30 C-12.357 31.036 -12.714 32.073 -13.082 33.141 C-18.134 54.381 -11.939 73.474 -2 92 C-1.328 93.331 -0.659 94.663 0 96 C-10.659 90.097 -16.45 79.832 -19.812 68.438 C-24.199 48.995 -20.336 27.743 -10.652 10.594 C-3.904 0 -3.904 0 0 0 Z " fill="#F0EFEF" transform="translate(227,752)"/>
<path d="M0 0 C-0.66 1.052 -1.32 2.104 -2 3.188 C-4.846 8.94 -4.924 14.724 -4 21 C-2.689 24.293 -1.075 27.132 1 30 C-10.749 29.708 -21.076 25.026 -31 19 C-23.776 9.569 -12.638 -0.925 0 0 Z " fill="#FEFEFE" transform="translate(551,459)"/>
<path d="M0 0 C1.65 0 3.3 0 5 0 C7.663 4.999 7.314 10.095 7.344 15.609 C7.358 16.65 7.373 17.69 7.388 18.762 C7.434 22.091 7.469 25.42 7.5 28.75 C7.625 41.793 7.751 54.652 9.58 67.583 C9.972 70.775 10.152 73.788 10 77 C9 78 9 78 6.438 78.062 C5.633 78.042 4.829 78.021 4 78 C0.354 68.52 0.809 58.35 0.684 48.34 C0.663 46.94 0.642 45.541 0.621 44.141 C0.566 40.487 0.516 36.832 0.468 33.178 C0.417 29.437 0.362 25.696 0.307 21.955 C0.2 14.637 0.098 7.318 0 0 Z " fill="#353334" transform="translate(547,738)"/>
<path d="M0 0 C2.188 -0.5 2.188 -0.5 5 0 C13.46 8.587 14.823 24.013 17.388 35.336 C18.103 38.447 18.844 41.551 19.586 44.656 C20.141 47 20.695 49.344 21.25 51.688 C21.521 52.811 21.791 53.934 22.07 55.091 C22.32 56.158 22.57 57.225 22.828 58.324 C23.054 59.274 23.28 60.223 23.513 61.202 C24.043 64.246 24.29 66.919 24 70 C21 72 21 72 18 72 C17.121 68.251 16.247 64.501 15.375 60.75 C15.106 59.593 14.836 58.436 14.559 57.244 C13.113 50.983 11.716 44.717 10.406 38.426 C10.021 36.579 10.021 36.579 9.627 34.694 C9.138 32.333 8.656 29.971 8.181 27.606 C6.486 19.437 4.682 11.022 0 4 C0 2.68 0 1.36 0 0 Z " fill="#353334" transform="translate(579,729)"/>
<path d="M0 0 C6.224 5.125 10.354 13.139 12 21 C13.128 33.536 12.597 45.555 7 57 C5.332 58.898 5.332 58.898 4 60 C2.522 49.278 1.609 38.547 0.875 27.75 C0.788 26.496 0.7 25.242 0.61 23.951 C0.088 15.955 -0.106 8.012 0 0 Z " fill="#FEFEFE" transform="translate(714,437)"/>
<path d="M0 0 C0.536 0.248 1.072 0.495 1.625 0.75 C1.303 1.269 0.98 1.789 0.648 2.324 C-1.657 7.789 -1.481 15.496 0.418 21.082 C1.527 23.125 1.527 23.125 3.625 25.75 C4.626 27.083 5.626 28.416 6.625 29.75 C-5.424 28.177 -14.525 24.888 -24.375 17.75 C-23.836 17.541 -23.297 17.332 -22.742 17.117 C-18.868 14.88 -16.033 11.486 -12.973 8.27 C-4.491 -0.473 -4.491 -0.473 0 0 Z " fill="#FEFEFE" transform="translate(666.375,453.25)"/>
<path d="M0 0 C11.921 3.9 21.129 15.546 26.68 26.234 C31.256 35.738 33.393 43.885 33.375 54.375 C33.374 55.766 33.374 55.766 33.372 57.185 C33.221 65.923 31.372 72.089 26 79 C26.159 77.93 26.317 76.86 26.48 75.758 C28.903 56.176 28.339 35.578 15.75 19.394 C13.438 16.557 11.051 13.79 8.637 11.039 C5.542 7.51 2.756 3.799 0 0 Z " fill="#F0EFEF" transform="translate(647,171)"/>
<path d="M0 0 C0.99 0.33 1.98 0.66 3 1 C2.768 4.133 1.85 5.153 -0.375 7.438 C-13.559 17.632 -31.003 18.535 -47 17 C-54.751 15.62 -62.381 13.341 -69 9 C-68.67 7.68 -68.34 6.36 -68 5 C-62.962 5.899 -58.212 7.485 -53.352 9.062 C-46.764 10.905 -40.351 11.182 -33.562 11.188 C-32.351 11.206 -32.351 11.206 -31.115 11.225 C-20.873 11.249 -11.34 8.414 -3.125 2.188 C-2.094 1.466 -1.062 0.744 0 0 Z " fill="#353334" transform="translate(651,593)"/>
<path d="M0 0 C13.991 6.39 21.348 20.305 27.176 33.703 C30.521 47.084 29.331 63.536 22.574 75.531 C18.93 81.332 14.619 86.046 9 90 C10.416 87.041 12.047 84.325 13.812 81.562 C22.018 67.988 25.867 51.736 22.199 36.047 C18.248 23.065 10.951 12.537 1.652 2.793 C0 1 0 1 0 0 Z " fill="#F0EFEF" transform="translate(681,663)"/>
<path d="M0 0 C0 3.94 -1.3 4.942 -3.75 8 C-18.696 27.301 -28.372 47.95 -36 71 C-36.33 71 -36.66 71 -37 71 C-38.411 47.405 -26.38 27.647 -11.312 10.5 C-7.769 6.679 -4.051 3.275 0 0 Z " fill="#919192" transform="translate(196,568)"/>
<path d="M0 0 C11.535 10.518 17.45 24.62 18.359 40.051 C18.848 53.483 17.344 64.573 8.559 75.344 C6.213 77.836 3.722 79.926 1 82 C0.34 81.67 -0.32 81.34 -1 81 C-0.113 80.072 0.774 79.144 1.688 78.188 C12.416 65.659 13.055 49.713 12.29 34.031 C11.26 23.265 6.626 13.148 1.102 3.969 C0 2 0 2 0 0 Z " fill="#F0EFEF" transform="translate(262,673)"/>
<path d="M0 0 C0.66 0 1.32 0 2 0 C6.106 8.213 2.945 21.349 0.339 29.674 C-3.609 41.283 -9.673 56.829 -20 64 C-18.264 58.032 -15.906 52.628 -13.188 47.062 C-6.989 34.262 -1.35 19.798 -0.375 5.5 C-0.3 4.458 -0.225 3.417 -0.148 2.344 C-0.099 1.57 -0.05 0.797 0 0 Z " fill="#F0EFEF" transform="translate(335,748)"/>
<path d="M0 0 C9.421 1.956 16.404 7.678 21.652 15.551 C21.277 18.238 21.277 18.238 20.652 20.551 C17.199 19.4 16.806 18.658 14.84 15.738 C11.453 11.037 8.231 8.41 2.652 6.551 C-0.071 6.319 -2.598 6.42 -5.348 6.551 C-7.696 8.456 -7.696 8.456 -7.535 11.738 C-7.355 15.402 -6.938 18.933 -6.348 22.551 C-7.668 22.551 -8.988 22.551 -10.348 22.551 C-12.832 17.582 -14.646 13.136 -13.348 7.551 C-10.424 1.496 -6.622 -0.508 0 0 Z " fill="#262325" transform="translate(416.34765625,459.44921875)"/>
<path d="M0 0 C8.266 1.162 15.084 7.273 20.27 13.555 C32.274 30.519 32.274 30.519 31.812 38.062 C30.982 41.065 29.914 42.601 28 45 C27.781 44.201 27.562 43.402 27.336 42.578 C22.676 26.439 15.097 14.546 3 3 C1.998 2.002 0.997 1.003 0 0 Z " fill="#919192" transform="translate(703,218)"/>
<path d="M0 0 C9.74 -1.686 18.06 2.784 26 8 C33.178 13.789 37.078 21.341 38.34 30.453 C38.561 35.663 37.357 39.384 35 44 C34.67 44 34.34 44 34 44 C33.996 42.225 33.996 42.225 33.992 40.414 C33.821 30.874 33.4 23.578 27 16 C26.495 15.359 25.989 14.719 25.469 14.059 C19 6.718 9.444 2.816 0 1 C0 0.67 0 0.34 0 0 Z " fill="#F0EFEF" transform="translate(622,215)"/>
<path d="M0 0 C3.865 0.694 7.512 1.741 11.25 2.938 C21.296 6.042 30.467 7.431 41 8 C41 8.99 41 9.98 41 11 C11.211 12.14 11.211 12.14 -1 4 C-0.67 2.68 -0.34 1.36 0 0 Z " fill="#353334" transform="translate(583,598)"/>
<path d="M0 0 C1.32 0.66 2.64 1.32 4 2 C2.498 6.206 -0.286 7.739 -4 10 C-3.602 10.459 -3.203 10.918 -2.793 11.391 C5 20.416 5 20.416 5 24 C1.94 23.665 0.385 23.379 -1.844 21.188 C-2.948 19.729 -4.052 18.271 -5.156 16.812 C-7.385 14.621 -8.94 14.335 -12 14 C-11.748 10.356 -11.153 9.15 -8.496 6.543 C-7.487 5.766 -6.477 4.988 -5.438 4.188 C-4.426 3.397 -3.414 2.607 -2.371 1.793 C-1.589 1.201 -0.806 0.61 0 0 Z " fill="#262325" transform="translate(435,490)"/>
<path d="M0 0 C2.461 9.229 -2.416 17.382 -6.852 25.32 C-8 27 -8 27 -10 28 C-9.602 26.442 -9.602 26.442 -9.195 24.852 C-8.838 23.443 -8.481 22.034 -8.125 20.625 C-7.94 19.898 -7.755 19.171 -7.565 18.421 C-6.35 13.583 -5.334 8.757 -4.59 3.82 C-3.867 1.59 -2.622 0 0 0 Z " fill="#A1A1A1" transform="translate(736,290)"/>
<path d="M0 0 C0 4.079 -1.628 5.436 -4.125 8.625 C-7.979 13.612 -11.588 18.701 -15 24 C-17.475 23.01 -17.475 23.01 -20 22 C-14.814 13.432 -7.754 6.269 0 0 Z " fill="#919192" transform="translate(196,568)"/>
<path d="M0 0 C1.164 0.008 1.164 0.008 2.352 0.016 C3.122 0.01 3.893 0.005 4.688 0 C7.176 0.289 8.819 1.024 10.977 2.266 C10.647 3.256 10.317 4.246 9.977 5.266 C9.373 5.303 8.77 5.34 8.148 5.379 C1.983 5.828 1.983 5.828 -3.023 9.266 C-3.683 8.606 -4.343 7.946 -5.023 7.266 C-4.652 3.55 -4.202 0.552 0 0 Z " fill="#353334" transform="translate(615.0234375,551.734375)"/>
<path d="M0 0 C6.6 0.33 13.2 0.66 20 1 C20 1.99 20 2.98 20 4 C14.39 4 8.78 4 3 4 C3 3.34 3 2.68 3 2 C2.01 1.34 1.02 0.68 0 0 Z " fill="#262325" transform="translate(604,605)"/>
<path d="M0 0 C0.33 0 0.66 0 1 0 C0.538 7.193 -0.251 14.003 -2 21 C-2.66 20.34 -3.32 19.68 -4 19 C-4.66 19.33 -5.32 19.66 -6 20 C-5.818 19.478 -5.636 18.956 -5.449 18.418 C-3.374 12.343 -1.636 6.207 0 0 Z " fill="#CECDCD" transform="translate(286,488)"/>
<path d="M0 0 C0.33 0 0.66 0 1 0 C1.33 3.63 1.66 7.26 2 11 C2.66 10.67 3.32 10.34 4 10 C4.222 11.456 4.427 12.915 4.625 14.375 C4.741 15.187 4.857 15.999 4.977 16.836 C4.984 17.55 4.992 18.264 5 19 C4.34 19.66 3.68 20.32 3 21 C2.67 19.68 2.34 18.36 2 17 C1.34 17.33 0.68 17.66 0 18 C0 12.06 0 6.12 0 0 Z " fill="#C0C0C2" transform="translate(733,274)"/>
<path d="M0 0 C0.33 0 0.66 0 1 0 C1.38 6.199 0.835 10.448 -2 16 C-2.33 16 -2.66 16 -3 16 C-3 11.05 -3 6.1 -3 1 C-2.34 2.32 -1.68 3.64 -1 5 C-0.67 3.35 -0.34 1.7 0 0 Z " fill="#919192" transform="translate(659,243)"/>
<path d="M0 0 C0.66 0 1.32 0 2 0 C3.019 3.891 3.168 5.606 1.562 9.375 C1.047 10.241 0.531 11.108 0 12 C-0.33 12 -0.66 12 -1 12 C-1.223 10.565 -1.428 9.127 -1.625 7.688 C-1.741 6.887 -1.857 6.086 -1.977 5.262 C-2 3 -2 3 0 0 Z " fill="#ADADAE" transform="translate(732,251)"/>
<path d="M0 0 C0 3.803 -1.138 4.777 -3.5 7.688 C-4.15 8.496 -4.799 9.304 -5.469 10.137 C-5.974 10.752 -6.479 11.366 -7 12 C-7.33 11.34 -7.66 10.68 -8 10 C-8.66 9.67 -9.32 9.34 -10 9 C-8.899 7.872 -7.794 6.748 -6.688 5.625 C-6.073 4.999 -5.458 4.372 -4.824 3.727 C-3 2 -3 2 0 0 Z " fill="#898586" transform="translate(196,568)"/>
<path d="M0 0 C0.66 0 1.32 0 2 0 C3.537 2.44 4.021 3.707 3.812 6.625 C3 9 3 9 0 11 C-0.841 6.982 -1.054 3.982 0 0 Z " fill="#A1A1A1" transform="translate(729,244)"/>
<path d="M0 0 C0.66 0.33 1.32 0.66 2 1 C-2.937 8.527 -2.937 8.527 -7.375 10.5 C-8.241 10.665 -9.108 10.83 -10 11 C-6.792 7.194 -3.593 3.454 0 0 Z " fill="#DFE0E0" transform="translate(413,253)"/>
<path d="M0 0 C0.66 0.99 1.32 1.98 2 3 C-2.455 4.485 -2.455 4.485 -7 6 C-7 5.01 -7 4.02 -7 3 C-4.69 2.01 -2.38 1.02 0 0 Z " fill="#353334" transform="translate(687,781)"/>
<path d="M0 0 C4.401 0.503 6.712 2.088 10 5 C9.01 5.66 8.02 6.32 7 7 C5.83 6.024 4.664 5.044 3.5 4.062 C2.85 3.517 2.201 2.972 1.531 2.41 C1.026 1.945 0.521 1.479 0 1 C0 0.67 0 0.34 0 0 Z " fill="#807E7C" transform="translate(703,218)"/>
<path d="M0 0 C2 2 2 2 2.125 4.625 C2.084 5.409 2.043 6.192 2 7 C0.68 7 -0.64 7 -2 7 C-1.125 1.125 -1.125 1.125 0 0 Z " fill="#353334" transform="translate(408,475)"/>
<path d="M0 0 C0.66 0.66 1.32 1.32 2 2 C1.699 6.138 1.321 8.518 -1 12 C-1.027 10.563 -1.046 9.125 -1.062 7.688 C-1.074 6.887 -1.086 6.086 -1.098 5.262 C-1 3 -1 3 0 0 Z " fill="#CECDCD" transform="translate(227,618)"/>
<path d="M0 0 C1.32 0.33 2.64 0.66 4 1 C2.35 3.64 0.7 6.28 -1 9 C-2.6 5.799 -1.032 3.277 0 0 Z " fill="#919192" transform="translate(728,309)"/>
<path d="M0 0 C0.33 0.66 0.66 1.32 1 2 C1.66 2.33 2.32 2.66 3 3 C2.01 5.64 1.02 8.28 0 11 C-0.33 11 -0.66 11 -1 11 C-1.125 3.375 -1.125 3.375 0 0 Z " fill="#DFE0E0" transform="translate(314,648)"/>
<path d="M0 0 C0.33 0.66 0.66 1.32 1 2 C-1.578 4.648 -3.916 6.944 -7 9 C-5.445 5.183 -2.964 2.808 0 0 Z " fill="#CECDCD" transform="translate(697,744)"/>
<path d="M0 0 C0.99 0 1.98 0 3 0 C4.32 2.31 5.64 4.62 7 7 C6.01 7 5.02 7 4 7 C2.02 3.535 2.02 3.535 0 0 Z " fill="#353334" transform="translate(169,704)"/>
<path d="M0 0 C0.66 0.33 1.32 0.66 2 1 C0.25 6.75 0.25 6.75 -2 9 C-2.25 3.375 -2.25 3.375 0 0 Z " fill="#CECDCD" transform="translate(734,257)"/>
<path d="M0 0 C0 4.055 -1.549 5.848 -4 9 C-4.99 9 -5.98 9 -7 9 C-5.445 5.183 -2.964 2.808 0 0 Z " fill="#CECDCD" transform="translate(513,221)"/>
<path d="M0 0 C0.33 0.66 0.66 1.32 1 2 C-1.135 4.455 -2.707 5.681 -6 6 C-6.66 5.34 -7.32 4.68 -8 4 C-5.36 2.68 -2.72 1.36 0 0 Z " fill="#353334" transform="translate(425,900)"/>
<path d="M0 0 C0.66 0 1.32 0 2 0 C0.926 2.915 0.222 4.778 -2 7 C-2.66 6.67 -3.32 6.34 -4 6 C-2.848 3.532 -1.952 1.952 0 0 Z " fill="#CECDCD" transform="translate(225,752)"/>
<path d="M0 0 C0.33 0.99 0.66 1.98 1 3 C0.67 3.66 0.34 4.32 0 5 C-2.562 5.625 -2.562 5.625 -5 6 C-2.25 1.125 -2.25 1.125 0 0 Z " fill="#DFE0E0" transform="translate(507,229)"/>
</svg>