<svg xmlns="http://www.w3.org/2000/svg" xmlns:xlink="http://www.w3.org/1999/xlink" viewBox="0 0 109 154" fill="#fff" fill-rule="evenodd" stroke="#000" stroke-linecap="round" stroke-linejoin="round"><style><![CDATA[.B{stroke:none}.C{fill:#fdcc9b}.D{font-weight:bold}.E{fill:#262626}.F{text-anchor:start}]]></style><use xlink:href="#A" x=".5" y=".5"/><symbol id="A" overflow="visible"><path d="M59.6 80.878c-1.635-3.817-14.661-7.187-19.973 6.393s-2.637 18.339-5.567 23.134 3.986 41.899 20.342 41.778c17.501-.131 21.313-35.621 17.833-42.809S71.804 80.867 59.6 80.878z" class="B E"/><g class="B"><path d="M53.976 152.5H0c0-11.329 28.431-27.989 53.976-27.989s53.976 16.66 53.976 27.989z" fill="#f06292"/><path d="M53.976 124.511c-5.433 0-10.997.76-16.39 2.055.036.048 5.982 7.719 16.39 7.719 9.638 0 16.045-6.569 16.974-7.579-5.575-1.384-11.344-2.195-16.974-2.195z" fill="#007fff"/><path d="M92.952 72.5q9.5 0 9.5 9-1.5 13-13 12 0-21 3.5-21z" class="C"/></g><path d="M13.952 72.5q-9.5 0-9.5 9 1.5 13 13 12 0-21-3.5-21z" class="B C"/><g class="B"><path d="M99.905 53.684c0-17.559-14.212-30.409-45.953-30.409S7.999 36.124 7.999 53.684 4.683 117.5 53.952 117.5s45.953-46.256 45.953-63.816z" class="C"/><path d="M25.524 62.815c2.206 1.103 5.748-3.748 13.856.472 1.478.769 2.36-6.58-6.331-6.58-7.525 0-8.858 5.442-7.525 6.108zm56.904 0c-2.206 1.103-5.748-3.748-13.855.472-1.478.769-2.36-6.58 6.331-6.58 7.524 0 8.857 5.442 7.524 6.108z" class="E"/><path d="M52.827 93.875c-4.61 0-6.237-4.871-6.237-3.205s1.333 4.832 7.386 4.832 7.386-3.165 7.386-4.832-3.285 4.705-7.285 2.58z" fill="#fcbc85"/><path d="M28.822 75.476c0-2.831 1.813-5.109 4.065-5.109s4.065 2.279 4.065 5.109-1.813 5.109-4.065 5.109-4.065-2.279-4.065-5.109zm43.5-.585c0-2.831 1.924-5.109 4.315-5.109s4.315 2.279 4.315 5.109S79.028 80 76.637 80s-4.315-2.279-4.315-5.109z" fill="#000"/><g fill="#646464"><circle cx="31.39" cy="73.938" r="1.438"/><circle cx="74.64" cy="73.688" r="1.438"/></g><path d="M53.462 109.63c-2.425 0-3.282-1.109-3.282-.73s.701 1.1 3.886 1.1 3.886-.721 3.886-1.1-1.728 1.071-3.833.587z" fill="#fcbc85"/><path d="M42.452 115v11.858q12 12.819 22.75-.32v-10.896z" class="C"/></g><g class="B"><path d="M64.77 104.086a.84.84 0 0 0-.697-.019A25.76 25.76 0 0 1 54.521 106c-5.233 0-9.51-1.914-9.552-1.933-.21-.095-.502-.087-.697.019s-.239.283-.103.419c.142.143 3.532 3.496 10.353 3.496s10.212-3.352 10.353-3.496c.135-.137.092-.312-.103-.419" fill="#f7945e"/><g fill="#f9aa8d"><circle cx="26.702" cy="91.25" r="6.25"/><circle cx="83.202" cy="91.25" r="6.25"/></g><path d="M38.597 44.894c-1.059 9.182-1.292 12.621-17.466 12.243C8.428 55.096 9.807 69.4 12.04 80.033 1.14 65.677 2.422 52.041 5.834 38.19 9.548 22.998 24.306 3.062 45.879.306 55.435-.767 69.893.499 85.272 11.99c26.889 20.084 17.891 65.199 10.652 70.51 13.597-54.442-51.505-5.467-55.21-37.096-1.059-5.611-1.588-4.591-2.117-.51z" class="E"/></g></symbol></svg>