<?xml version="1.0" standalone="no"?>
<!DOCTYPE svg PUBLIC "-//W3C//DTD SVG 20010904//EN"
 "http://www.w3.org/TR/2001/REC-SVG-20010904/DTD/svg10.dtd">
<svg version="1.0" xmlns="http://www.w3.org/2000/svg"
 width="225.000000pt" height="225.000000pt" viewBox="0 0 225.000000 225.000000"
 preserveAspectRatio="xMidYMid meet">

<g transform="translate(0.000000,225.000000) scale(0.100000,-0.100000)"
fill="#000000" stroke="none">
<path d="M1165 1755 c-122 -22 -260 -89 -314 -151 -17 -19 -35 -34 -41 -34
-25 0 -72 -33 -90 -63 -21 -34 -27 -77 -10 -77 6 0 10 -24 10 -52 0 -29 11
-92 23 -140 l24 -88 -24 -22 c-32 -30 -33 -111 0 -159 27 -41 82 -79 112 -79
13 0 26 -7 29 -16 3 -9 6 -76 6 -150 0 -164 -20 -270 -53 -284 -36 -14 -313
-291 -340 -340 -30 -53 -44 -100 -29 -100 5 0 13 12 17 27 16 67 60 70 158 12
38 -22 71 -39 74 -36 4 4 -74 51 -145 87 -18 9 53 99 146 189 37 34 54 54 37
43 -34 -23 -127 -118 -169 -175 -32 -42 -66 -66 -66 -45 0 12 277 288 289 288
3 0 15 -14 26 -31 77 -118 358 -266 468 -245 73 14 117 93 98 178 -6 23 -9 43
-8 45 8 8 170 -99 209 -138 44 -44 108 -155 108 -186 0 -7 5 -13 10 -13 37 0
-31 143 -99 209 -26 25 -76 62 -110 81 -34 19 -86 52 -114 73 -28 20 -59 37
-69 37 -26 0 -28 12 -21 94 6 76 6 76 35 76 65 0 132 50 144 109 3 14 12 49
20 76 18 65 22 248 7 405 -10 106 -25 181 -59 297 -4 16 3 30 29 57 57 56 54
127 -7 184 -33 30 -75 45 -61 21 4 -5 -15 1 -42 14 -62 32 -121 39 -208 22z
m-423 -259 c-9 -19 -18 -30 -20 -26 -3 8 26 60 34 60 2 0 -4 -15 -14 -34z
m703 -66 c14 -46 45 -163 45 -174 0 -3 -24 -6 -54 -6 -60 0 -96 -21 -76 -45 8
-9 28 -11 69 -8 l58 6 13 -99 c12 -96 11 -236 -2 -249 -3 -4 -15 2 -26 13 -11
11 -39 23 -62 27 -71 12 -68 -12 5 -35 55 -17 65 -27 65 -67 0 -39 -24 -102
-39 -104 -38 -5 -47 -1 -61 23 -13 24 -13 31 -1 49 11 19 11 21 -4 15 -9 -3
-28 -6 -42 -6 -26 0 -26 0 -8 -20 18 -20 18 -21 -2 -48 -16 -21 -29 -27 -56
-26 -57 2 -85 26 -93 80 -4 27 -3 54 3 63 9 13 138 53 147 44 8 -8 27 27 21
37 -7 12 -20 10 -112 -16 -63 -18 -83 -36 -83 -73 0 -15 -3 -30 -6 -34 -17
-17 -144 98 -198 178 l-27 40 7 -75 c13 -140 29 -169 169 -314 37 -38 86 -75
127 -96 65 -34 67 -35 63 -70 -2 -19 -1 -51 3 -70 l6 -35 6 30 6 30 22 -35
c33 -52 31 -132 -4 -167 -22 -22 -32 -25 -69 -21 -84 10 -240 98 -344 195
l-52 48 26 50 c25 49 26 54 24 245 l-1 195 -39 0 c-33 1 -47 8 -82 43 -39 39
-42 45 -42 98 0 50 3 59 27 77 26 20 30 20 61 5 32 -15 47 -35 67 -90 5 -16
14 -28 20 -28 8 0 9 31 4 100 l-7 101 30 37 c29 36 30 41 22 92 -5 30 -6 71
-3 92 l6 38 192 2 c105 2 208 3 229 3 35 0 38 -2 52 -45z m-592 -1034 c27 -40
172 -150 251 -189 91 -46 169 -64 209 -48 56 22 74 143 32 208 -15 23 -15 23
5 11 39 -24 53 -133 25 -193 -41 -85 -176 -72 -343 31 -116 73 -247 204 -203
204 5 0 16 -11 24 -24z"/>
<path d="M1091 1237 c-33 -12 -80 -61 -69 -72 3 -3 22 2 44 11 29 12 58 15
114 12 41 -3 81 -3 88 -1 19 7 14 41 -7 53 -26 13 -128 12 -170 -3z"/>
<path d="M1337 1177 c-10 -26 0 -61 39 -139 40 -79 41 -93 13 -108 -11 -7 -18
-14 -15 -17 9 -9 56 26 56 42 0 9 -16 47 -36 86 -19 39 -39 90 -43 113 -5 31
-9 36 -14 23z"/>
<path d="M1425 1170 l30 -8 -35 -2 c-19 -1 -38 -2 -42 -1 -5 0 -8 -6 -8 -14 0
-8 4 -15 9 -15 5 0 13 -9 16 -20 9 -28 43 -25 57 5 9 21 14 23 27 13 10 -8 9
-4 -3 10 -11 12 -15 22 -10 22 5 0 2 5 -6 10 -8 5 -26 9 -40 9 -23 -1 -23 -2
5 -9z"/>
<path d="M1165 1163 c-36 -9 -85 -35 -85 -45 0 -6 7 -5 16 3 13 11 19 8 37
-15 26 -32 54 -27 63 10 5 19 9 22 19 14 10 -8 13 -8 11 2 -5 35 -18 41 -61
31z m49 -12 c4 -5 -3 -7 -14 -4 -23 6 -26 13 -6 13 8 0 17 -4 20 -9z"/>
<path d="M762 1098 c-14 -14 -16 -67 -2 -88 7 -10 8 0 4 32 -5 39 -4 49 10 54
21 8 66 -3 66 -17 0 -6 -4 -7 -10 -4 -5 3 -10 1 -10 -4 0 -6 7 -11 16 -11 12
0 15 -6 10 -25 -4 -14 -2 -34 4 -45 8 -15 8 -20 -2 -20 -8 0 -9 -3 -2 -10 11
-11 44 -4 44 10 0 4 -9 15 -19 24 -16 15 -18 22 -9 42 10 20 8 28 -12 49 -25
27 -68 33 -88 13z"/>
<path d="M1260 969 c-12 -21 1 -49 22 -49 6 0 5 7 -3 16 -10 12 -10 20 -1 35
7 11 8 19 2 19 -5 0 -14 -9 -20 -21z"/>
<path d="M1300 940 c0 -5 12 -10 26 -10 14 0 23 4 19 10 -3 6 -15 10 -26 10
-10 0 -19 -4 -19 -10z"/>
<path d="M1315 831 l-70 -6 46 -9 c28 -5 61 -4 87 4 43 11 56 21 25 18 -10 -1
-49 -4 -88 -7z"/>
<path d="M1634 98 c3 -9 8 -33 12 -52 3 -20 10 -38 14 -41 11 -7 -5 67 -19 90
-9 14 -11 15 -7 3z"/>
</g>
</svg>
