<svg xmlns="http://www.w3.org/2000/svg" xmlns:xlink="http://www.w3.org/1999/xlink" viewBox="0 0 65.167 109.167" fill="#fff" fill-rule="evenodd" stroke="#000" stroke-linecap="round" stroke-linejoin="round"><use xlink:href="#A" x="2.083" y="2.083"/><symbol id="A" overflow="visible"><g fill="#9b9b9a" fill-rule="nonzero"><path d="M16.274 38l-6.25 4.167c-19.792 9.115-4.167 62.5-4.167 62.5S24.086 85.396 38.93 83.573 61.586 54.146 57.94 44.25l-4.167-8.333" stroke="#9b9b9a" stroke-width="3.75" stroke-miterlimit="10"/><use xlink:href="#C" stroke="none"/></g><g fill="#a57939"><use xlink:href="#D" stroke="none" fill-rule="nonzero"/><path d="M5.899 100.5S4.07 85.917 9.864 81.75 37.107 60.917 30.857 50.5" stroke="none" fill-rule="nonzero"/></g><g fill="none"><path d="M30.857 23.417s1.042-3.125-6.25-4.167m14.583 4.167s-1.042-3.125 6.25-4.167M32.159 30.563l3.646 3.271 4.167-3.45" stroke-width="3.125"/><g stroke-width="4.167"><path d="M32.941 102.584s2.083-8.333-10.417-6.25v-4.948m20.833 5.729s2.083-8.333-10.417-6.25v-4.948"/><use xlink:href="#C"/><use xlink:href="#D" stroke-miterlimit="10"/><path d="M10.024 42.167c-19.792 9.115-4.167 62.5-4.167 62.5S24.086 85.396 38.93 83.573 61.586 54.146 57.94 44.25"/><path d="M5.857 100.5S4.295 85.917 9.243 81.75 30.857 63 28.774 50.5"/></g></g></symbol><defs ><path id="C" d="M16.274 40.083S2.732 28.625 15.753 9.354c0 0-1.562-6.771-5.729-6.771s10.417-6.25 12.5 2.083c0 0 14.583-6.25 22.917 0 0 0 10.938-7.292 14.844-3.646 0 0-8.594 5.729-4.427 9.896s8.333 20.833-2.083 29.167"/><path id="D" d="M37.107 40.084s-20.833 0-20.833-16.406c0-18.196 17.063-9.867 18.75-6.51 0 0 14.583-12.5 19.01 3.125 4.288 15.135-16.927 19.792-16.927 19.792z"/></defs></svg>