<?xml version="1.0" standalone="no"?>
<!DOCTYPE svg PUBLIC "-//W3C//DTD SVG 20010904//EN"
 "http://www.w3.org/TR/2001/REC-SVG-20010904/DTD/svg10.dtd">
<svg version="1.0" xmlns="http://www.w3.org/2000/svg"
 width="225.000000pt" height="225.000000pt" viewBox="0 0 225.000000 225.000000"
 preserveAspectRatio="xMidYMid meet">

<g transform="translate(0.000000,225.000000) scale(0.100000,-0.100000)"
fill="#000000" stroke="none">
<path d="M411 2144 c-124 -33 -227 -121 -284 -241 l-32 -68 -3 -685 c-3 -502
0 -700 9 -740 36 -171 176 -308 344 -339 76 -14 1331 -15 1395 -1 64 14 118
39 173 78 52 37 120 119 111 133 -3 5 0 9 6 9 6 0 8 5 5 10 -3 6 -1 10 5 10 6
0 8 5 5 10 -3 6 -2 10 4 10 6 0 8 7 5 15 -4 8 -2 15 2 15 17 0 19 82 17 715
-2 704 -5 740 -62 853 -54 108 -165 194 -282 221 -27 7 -293 10 -704 10 -544
0 -669 -3 -714 -15z m1241 -491 l338 -338 0 -346 c0 -206 -4 -369 -11 -404
-30 -161 -143 -270 -306 -295 -44 -7 -259 -10 -598 -8 l-530 3 -60 24 c-81 33
-163 115 -196 196 l-24 60 0 585 0 585 33 67 c21 42 50 82 80 108 107 95 130
99 572 99 l365 1 337 -337z"/>
<path d="M875 1475 c-5 -2 -32 -6 -58 -10 -67 -9 -111 -52 -171 -166 -46 -87
-48 -93 -31 -106 31 -22 42 -16 85 42 47 64 82 85 156 92 65 7 63 16 34 -167
-25 -162 -59 -279 -114 -388 -58 -116 -63 -156 -21 -197 37 -37 88 -34 130 8
56 56 101 246 125 522 6 72 13 149 16 173 l5 42 105 0 c77 0 104 -3 104 -12 0
-7 -7 -107 -15 -223 -26 -371 -20 -430 46 -490 49 -44 96 -53 167 -30 68 21
136 86 176 167 34 69 32 102 -5 106 -23 3 -33 -6 -65 -54 -22 -32 -51 -66 -66
-77 -53 -39 -110 7 -124 103 -7 41 9 370 22 466 l6 41 124 6 c68 3 128 9 134
12 14 9 12 119 -2 133 -9 9 -107 12 -382 11 -204 0 -375 -2 -381 -4z"/>
</g>
</svg>
