<svg width="202" height="317" viewBox="0 0 202 317" fill="none" xmlns="http://www.w3.org/2000/svg">
<path d="M119.183 18.129C119.545 28.5993 112.983 35.3526 103.116 35.6702C93.2422 35.9878 88.5063 29.2931 88.1477 18.8228C87.7833 8.35252 92.721 0.326798 102.591 0.00917207C112.464 -0.308454 118.822 7.66055 119.183 18.129Z" fill="#293657"/>
<path d="M70.8655 83.989C70.8655 83.989 62.4557 63.1392 68.6338 50.0106C79.5987 26.7162 106.317 23.8028 125.584 37.68C143.828 50.8179 130.767 83.989 130.767 83.989L88.6708 66.2058L70.8655 83.989Z" fill="#293657"/>
<path d="M117.417 142.698L100.84 157.904L84.2656 143.132L87.1832 108.247H114.499L117.417 142.698Z" fill="#CE7676"/>
<path d="M73.5495 78.3041C73.5495 78.3041 69.8834 76.0202 67.0501 79.6654C64.2128 83.3124 66.1017 96.9911 73.1909 96.9911C80.2801 96.9911 73.5495 78.3041 73.5495 78.3041Z" fill="#D77D79"/>
<path d="M128.345 78.3041C128.345 78.3041 132.011 76.0202 134.846 79.6654C137.68 83.3124 135.793 96.9911 128.704 96.9911C121.614 96.9911 128.345 78.3041 128.345 78.3041Z" fill="#D77D79"/>
<path d="M129.904 71.2265C128.37 48.1816 100.872 48.1816 100.872 48.1816H100.813C100.813 48.1816 73.3143 48.1816 71.7801 71.2265C71.7801 71.2265 70.2458 86.2816 71.1217 90.1706C71.9976 94.0597 74.8466 107.226 80.1056 113.569C84.7749 119.201 92.6597 127.675 100.811 127.675H100.87C109.066 127.675 116.906 119.201 121.575 113.569C126.834 107.226 129.681 94.0597 130.559 90.1706C131.435 86.2816 129.902 71.2265 129.902 71.2265H129.904Z" fill="#E3847C"/>
<path d="M69.2745 99.1684C69.2628 99.1684 69.2491 99.1684 69.2373 99.1684C68.8846 99.1495 68.6142 98.8565 68.6338 98.5143L68.9532 93.143C68.9728 92.8027 69.2765 92.5456 69.6312 92.5607C69.9838 92.5796 70.2542 92.8727 70.2346 93.2149L69.9133 98.5861C69.8937 98.9151 69.6116 99.1684 69.2745 99.1684Z" fill="white"/>
<path d="M132.5 99.1684C132.512 99.1684 132.526 99.1684 132.537 99.1684C132.89 99.1495 133.16 98.8565 133.141 98.5143L132.82 93.143C132.8 92.8027 132.496 92.5456 132.144 92.5607C131.791 92.5796 131.52 92.8727 131.54 93.2149L131.861 98.5861C131.881 98.9151 132.163 99.1684 132.5 99.1684Z" fill="white"/>
<path d="M95.5234 101.37H106.318L100.92 103.376L95.5234 101.37Z" fill="#CD7978"/>
<path d="M102.926 44.932C102.926 44.932 105.595 61.7737 84.6133 69.3097C84.6133 69.3097 100.943 61.4164 100.322 48.0213C99.7028 34.6261 102.924 44.932 102.924 44.932H102.926Z" fill="#293657"/>
<path d="M90.168 110.152C90.168 110.152 95.2938 108.178 97.1572 107.684C98.8639 107.231 102.248 107.236 103.956 107.684C106.084 108.242 111.671 110.152 111.671 110.152C111.671 110.152 106.308 116.498 104.246 117.058C102.471 117.54 98.6562 117.623 96.9064 117.058C94.949 116.427 90.1699 110.152 90.1699 110.152H90.168Z" fill="#CC7272"/>
<path d="M98.8635 110.84L93.3359 110.878C95.4462 111.434 98.0738 112.58 100.85 112.58C103.627 112.58 106.235 111.425 108.365 110.85L102.481 110.842H98.8635V110.84Z" fill="#B76565"/>
<path d="M99.142 110.405L94.4531 111.012C96.244 111.484 98.4268 111.762 100.782 111.762C103.137 111.762 105.395 111.475 107.203 110.987L102.212 110.405H99.144H99.142Z" fill="white"/>
<path opacity="0.7" d="M94.1797 79.4014C94.1797 79.4014 97.5891 87.1605 97.5891 89.59C97.5891 92.0194 96.0137 96.0068 96.0137 96.0068L94.1797 79.4014Z" fill="#CD7978"/>
<path opacity="0.7" d="M107.659 79.4014C107.659 79.4014 104.25 87.1605 104.25 89.59C104.25 92.0194 105.825 96.0068 105.825 96.0068L107.659 79.4014Z" fill="#CD7978"/>
<path d="M106.912 73.7811C106.912 73.7811 118.771 73.1658 121.038 73.4775C124.814 73.9996 125.516 76.4076 126.04 77.7234C126.221 78.1761 110.537 78.9618 108.306 78.0706C106.075 77.1793 106.912 73.7811 106.912 73.7811Z" fill="#293657"/>
<path d="M94.9151 73.6991C94.9151 73.6991 83.0512 73.1879 80.7878 73.5195C77.0162 74.0747 76.3368 76.4888 75.825 77.8091C75.6487 78.2634 91.3392 78.9114 93.5618 78.0006C95.7845 77.0898 94.9151 73.6991 94.9151 73.6991Z" fill="#293657"/>
<path d="M108.446 75.953V73.2513L107.508 72.9355L108.446 75.953Z" fill="#E3847C"/>
<path d="M86.5157 89.6345C89.0936 89.5667 90.9804 87.5277 90.7288 85.0803C90.724 85.033 90.7134 84.9858 90.7069 84.9405C89.3758 84.2498 87.8503 83.6097 86.5608 83.4717C84.3139 83.2283 82.6329 83.6818 81.4108 84.329C81.3659 84.6505 81.3545 84.983 81.3897 85.3262C81.6413 87.7735 83.936 89.7024 86.5157 89.6345Z" fill="#293657"/>
<path d="M83.4514 86.3564L78.1726 84.2824L84.1645 83.7302L83.4514 86.3564Z" fill="#293657"/>
<path d="M89.378 85.7872C89.44 86.4002 89.2033 86.9037 88.8475 86.9133C88.4916 86.9228 88.1546 86.4347 88.0926 85.8217C88.0306 85.2087 88.2673 84.7052 88.6232 84.6956C88.979 84.6861 89.316 85.1742 89.378 85.7872Z" fill="white"/>
<path d="M89.6295 82.9716C89.6295 82.9716 84.4483 79.1068 80.6359 83.2283C84.0058 81.1756 89.6295 82.9716 89.6295 82.9716Z" fill="#CD7978"/>
<path d="M116.947 89.5883C114.28 89.5883 112.121 87.6863 112.121 85.34C112.121 85.2947 112.127 85.2493 112.129 85.2058C113.428 84.5119 114.933 83.8616 116.248 83.6971C118.538 83.4078 120.321 83.7992 121.65 84.3872C121.73 84.6934 121.775 85.0111 121.775 85.34C121.775 87.6863 119.614 89.5883 116.949 89.5883H116.947Z" fill="#293657"/>
<path d="M120.154 86.147L125.323 84.0767L119.156 83.71L120.154 86.147Z" fill="#293657"/>
<path d="M120.544 86.0216C120.544 86.6247 120.232 87.1125 119.85 87.1125C119.468 87.1125 119.156 86.6247 119.156 86.0216C119.156 85.4184 119.466 84.9307 119.85 84.9307C120.234 84.9307 120.544 85.4184 120.544 86.0216Z" fill="white"/>
<path d="M112.961 83.0091C112.961 83.0091 117.807 79.5114 122.051 83.0091C118.457 81.3038 112.961 83.0091 112.961 83.0091Z" fill="#CD7978"/>
<path d="M143.531 56.5973C145.722 43.9301 135.631 31.7015 120.925 29.2437C115.178 28.2832 109.574 28.9582 104.738 30.8904C106.682 31.0114 108.632 31.4141 110.648 31.5673C128.1 32.902 141.734 45.1136 143.531 56.5954V56.5973Z" fill="#293657"/>
<path d="M189.168 203.435C184.832 190.911 176.779 169.129 167.227 157.971C161.48 151.257 133.809 141.343 118.718 136.486C115.788 149.82 86.3851 149.839 83.0482 137.061C69.7359 141.642 43.1544 151.687 34.1234 159.119C13.9198 175.747 8.31394 216.798 7.13045 222.676C3.47025 240.832 -3.36223 279.096 1.94976 288.457C4.96139 293.764 8.88806 300.4 20.3683 305.937L27.5437 307.321V316.149H192.188C197.224 312.381 201.064 298.242 201.113 288.457C201.207 269.477 196.13 223.53 189.172 203.435H189.168Z" fill="#4D5CB0"/>
<path d="M79.758 291.366C78.3218 291.194 77.3029 289.931 77.4812 288.54L89.9607 192.193C90.1371 190.808 91.4499 189.823 92.8881 189.996L156.381 197.654C157.817 197.826 158.836 199.092 158.658 200.476C158.658 200.476 152.529 247.78 150.707 261.876C150.454 263.809 158.149 273.757 157.9 275.687C156.855 283.749 155.025 297.889 155.025 297.889C154.847 299.279 153.536 300.26 152.098 300.088L79.76 291.364L79.758 291.366Z" fill="#E5DE53"/>
<path d="M120.779 215.917C119.342 215.741 118.035 216.724 117.851 218.114L108.934 286.948C108.758 288.332 109.776 289.597 111.215 289.769L149.035 294.331C150.474 294.501 151.784 293.52 151.965 292.134L160.878 223.3C161.054 221.916 160.038 220.649 158.599 220.475L120.779 215.917Z" fill="#FFF6E4"/>
<path d="M92.8885 189.998C91.4503 189.824 90.1375 190.81 89.9611 192.195L77.4816 288.542C77.3013 289.931 78.3222 291.196 79.7584 291.368L143.252 299.025C144.692 299.197 146.003 298.216 146.181 296.828C146.181 296.828 152.306 249.523 154.134 235.43C154.383 233.498 164.38 225.684 164.629 223.752C165.671 215.69 167.505 201.55 167.505 201.55C167.684 200.164 166.665 198.899 165.226 198.727L92.8905 190.002L92.8885 189.998Z" fill="#FFD139"/>
<path d="M138.022 292.458C139.472 292.586 140.759 291.558 140.894 290.157L151.436 179.591C151.571 178.19 150.501 176.952 149.053 176.823L74.4952 170.202C73.0452 170.074 71.7598 171.104 71.6246 172.505L61.077 283.069C60.9477 284.468 62.0117 285.708 63.4636 285.835L138.022 292.458Z" fill="#DBE5EE"/>
<path d="M114.353 233.589C121.417 236.028 126.153 252.378 123.829 259.26C120.748 261.808 49.7802 296.307 49.7802 296.307L16.0586 258.386C16.0586 258.386 104.818 235.336 114.353 233.589Z" fill="#4D5CB0"/>
<path d="M113.972 237.998C113.972 237.998 123.836 232.587 127.575 227.88C131.313 223.17 134.221 219.164 136.194 218.062C138.167 216.959 152.6 208.043 153.847 207.743C155.093 207.442 156.131 213.051 151.77 216.158C147.408 219.264 142.215 222.866 142.215 222.866C142.215 222.866 150.108 223.261 153.948 222.866C157.791 222.471 161.216 222.37 163.189 222.471C165.162 222.571 167.551 225.276 166.201 226.679C164.851 228.082 160.387 229.385 160.387 229.385C160.387 229.385 165.268 229.485 165.372 232.09C165.476 234.695 160.595 236.8 160.595 236.8C160.595 236.8 165.58 236.8 165.164 239.706C164.749 242.611 159.868 243.914 159.868 243.914C159.868 243.914 164.126 245.918 162.672 248.423C161.218 250.928 149.277 252.131 149.277 252.131C149.277 252.131 133.909 252.231 130.794 252.632C127.678 253.033 121.761 254.335 121.761 254.335C121.761 254.335 113.557 246.922 113.972 238.004V237.998Z" fill="#E3847C"/>
</svg>
