<svg width="600" height="369" viewBox="0 0 600 369" fill="none" xmlns="http://www.w3.org/2000/svg">
<rect width="599.984" height="368" rx="30" fill="url(#paint0_linear_3496_4849)"/>
<path d="M448.632 245.915L445.259 244.359C445.259 244.359 486.873 73.6804 338.311 68.424C204.6 63.7151 196.474 193.438 196.474 193.438C192.964 193.947 189.505 194.76 186.136 195.869C96.1189 224.188 91.9575 368.301 185.72 368.301H423.247C486.719 368.301 506.519 274.014 448.632 245.915ZM413.851 158.308C413.276 154.259 411.387 150.51 408.475 147.638C405.563 144.765 401.789 142.928 397.732 142.408C401.789 141.887 405.563 140.05 408.475 137.178C411.387 134.305 413.276 130.557 413.851 126.507C414.419 130.556 416.303 134.306 419.211 137.18C422.12 140.053 425.894 141.89 429.949 142.408C425.9 142.923 422.132 144.754 419.223 147.618C416.315 150.483 414.428 154.223 413.851 158.264V158.308Z" fill="url(#paint1_linear_3496_4849)"/>
<path d="M174.093 137.545C173.54 141.626 171.664 145.413 168.752 148.324C165.84 151.236 162.053 153.112 157.973 153.665C162.053 154.209 165.841 156.08 168.754 158.989C171.667 161.897 173.543 165.683 174.093 169.763C174.641 165.686 176.514 161.903 179.422 158.995C182.331 156.086 186.114 154.214 190.191 153.665C186.114 153.108 182.332 151.23 179.424 148.318C176.517 145.407 174.644 141.623 174.093 137.545Z" fill="#48C7F4"/>
<path d="M204.598 102.982C201.15 101.981 198.012 100.125 195.473 97.5863C192.934 95.0478 191.078 91.9091 190.077 88.4615L187.383 79L184.623 88.4615C183.622 91.9091 181.766 95.0478 179.227 97.5863C176.689 100.125 173.55 101.981 170.102 102.982L160.641 105.742L170.102 108.501C173.546 109.51 176.681 111.369 179.219 113.906C181.756 116.444 183.615 119.578 184.623 123.022L187.383 132.484L190.143 123.022C191.145 119.586 192.994 116.456 195.519 113.919C198.045 111.382 201.166 109.52 204.598 108.501L214.06 105.742L204.598 102.982Z" fill="#48C7F4"/>
<mask id="mask0_3496_4849" style="mask-type:luminance" maskUnits="userSpaceOnUse" x="171" y="26" width="267" height="343">
<path d="M437.919 26H171.064V368.3H437.919V26Z" fill="white"/>
</mask>
<g mask="url(#mask0_3496_4849)">
<path d="M348.384 232.095C352.765 235.446 385.289 240.133 404.41 245.236C423.53 250.339 435.379 274.168 431.634 298.326C427.889 322.483 416.5 384.728 416.5 384.728H177.768C177.768 384.728 196.012 277.059 213.096 259.889C230.179 242.718 279.568 238.951 283.664 230.913C286.161 225.985 292.709 251.018 308.413 252.814C318.488 254.085 346.654 230.803 348.384 232.095Z" fill="#010101"/>
<path d="M354.605 50.6162C354.605 50.6162 368.031 45.0313 382.421 78.3217C392.824 102.413 391.182 168.6 395.562 182.048C399.943 195.495 436.168 231.304 409.689 256.513L314.766 255.002L324.118 89.5134L354.605 50.6162Z" fill="#010101"/>
<path opacity="0.5" d="M373.047 190.943C371.704 200.153 373.642 209.541 378.522 217.466C386.735 230.804 395.058 248.128 395.058 248.128L380.975 245.018C380.975 245.018 362.643 211.312 373.047 190.943Z" fill="#1C1D1D"/>
<path d="M350.113 80.0325C350.113 80.0325 379.09 102.46 385.31 123.288C391.53 144.117 373.22 180.429 375.016 199.615C376.812 218.801 403.905 252.179 403.905 252.179C403.905 252.179 417.046 236.125 411.877 221.823C406.708 207.522 391.311 186.934 391.048 176.881C390.785 166.828 391.18 113.608 384.193 95.3417C379.812 84.2642 372.451 74.6147 362.926 67.4609C361.865 70.3807 360.164 73.0255 357.947 75.2011C355.729 77.3767 353.053 79.0276 350.113 80.0325Z" fill="url(#paint2_linear_3496_4849)"/>
<path d="M380.47 166.172C380.47 166.172 371.447 191.403 376.374 204.281C381.302 217.159 406.271 259.516 406.271 259.516C406.271 259.516 419.237 239.345 413.652 223.116C408.067 206.887 380.47 166.172 380.47 166.172Z" fill="#1C1D1D"/>
<path d="M347.465 78.784C347.465 78.784 365.293 47.1581 344.771 37.7404C327.512 29.8777 315.006 36.7548 315.006 36.7548C315.006 36.7548 304.055 34.4114 285.35 39.6897C266.646 44.9679 237.166 88.136 234.976 117.944C232.786 147.752 201.772 178.677 204.444 197.841C207.116 217.005 222.119 224.495 215.921 236.454C209.723 248.412 214.41 263.174 214.41 263.174C233.955 263.292 253.3 259.232 271.15 251.267C288.999 243.302 304.94 231.615 317.905 216.989C330.871 202.362 340.561 185.134 346.328 166.459C352.094 147.783 353.803 128.091 351.341 108.702L347.465 78.784Z" fill="#010101"/>
<path d="M345.426 196.327C345.426 196.327 342.316 232.224 346.587 235.509C350.858 238.794 384.675 245.474 403.029 250.402C421.382 255.33 430.034 274.494 426.42 298.192C422.806 321.889 408 382.644 408 382.644H185.104C185.104 382.644 200.698 277.363 217.08 260.63C233.463 243.898 279.173 253.009 289.357 237.458C294.635 229.464 286.838 191.246 286.838 191.246L345.426 196.327Z" fill="#CD8860"/>
<path d="M258.496 277.871C258.496 277.871 265.68 295.392 332.678 283.259L304.534 378.969L246.297 376.779L258.496 277.871Z" fill="#C7E2F6"/>
<path d="M267.542 286.434C267.542 286.434 290.057 296.137 345.754 284.551L316.931 385.911L258.672 385.605L267.542 286.434Z" fill="#E8F6FE"/>
<path d="M237.56 287.834C242.466 272.864 248.803 258.4 256.483 244.645C241.152 248.74 223.63 253.931 215.045 262.67C198.662 279.402 183.09 384.661 183.09 384.661H227.617C222.667 358.708 225.624 323.863 237.56 287.834Z" fill="#4D80C2"/>
<path d="M415.91 254.393C406.317 248.873 377.275 242.675 364.638 240.244C367.047 264.643 363.433 294.998 353.117 326.076C346.394 346.833 336.811 366.552 324.645 384.663H410.062C410.062 384.663 424.89 321.784 428.504 298.196C432.118 274.608 423.16 258.554 415.91 254.393Z" fill="#4D80C2"/>
<path d="M245.226 290.485C250.285 275.154 248.884 258.377 255.87 245.762C243.167 249.682 229.413 254.698 221.594 262.67C205.189 279.403 189.639 384.662 189.639 384.662H227.617C222.667 358.708 233.289 326.513 245.226 290.485Z" fill="#4068B1"/>
<path d="M415.91 254.392C412.647 249.135 373.267 239.98 360.63 237.527C363.039 261.926 363.433 294.91 353.117 326.075C346.394 346.832 336.811 366.551 324.645 384.662H360.98C360.98 384.662 370.836 321.542 379.597 299.246C394.096 262.539 415.91 254.392 415.91 254.392Z" fill="#4068B1"/>
<path d="M224.793 334.812C224.793 331.242 224.946 327.738 225.231 324.277C218.507 331.22 212.44 338.601 210.185 346.661C203.417 370.753 208.739 384.616 208.739 384.616H235.372C228.208 369.001 224.595 351.991 224.793 334.812Z" fill="#010101"/>
<path d="M393.898 250.578C392.978 250.578 352.152 290.001 356.27 313.699C357.483 320.685 358.092 327.764 358.088 334.855C358.185 352.057 354.444 369.064 347.137 384.638H357.299L366.739 328.833C366.739 328.833 359.993 317.312 367.221 293.045C372.016 276.346 381.834 261.526 395.343 250.6C394.862 250.642 394.377 250.635 393.898 250.578Z" fill="#010101"/>
<path d="M398.21 248.586C397.241 249.208 396.305 249.881 395.406 250.601C398.254 250.404 398.21 248.586 398.21 248.586Z" fill="#101628"/>
<path d="M213.163 384.66C213.163 384.66 207.052 372.308 212.725 346.53C218.398 320.751 238.504 307.107 245.95 293.199C253.397 279.292 246.826 241.402 251.185 240.088C255.543 238.774 284.476 234.35 284.476 234.35L265.202 278.722C258.21 294.809 253.684 311.857 251.776 329.293L245.709 384.682H308.152C308.152 384.682 357.344 238.774 361.702 239.212C366.061 239.65 404.674 249.922 404.674 249.922C404.674 249.922 386.123 248.892 370.178 295.543C359.753 326.052 362.447 336.63 362.447 336.63L352.766 384.704L213.163 384.66Z" fill="#4068B1"/>
<path d="M289.489 233.277C289.19 236.099 288.113 238.783 286.379 241.03C283.422 244.863 278.056 253.623 270.719 272.875C259.111 303.318 258.279 358.795 259.001 384.573H248.401C236.108 356.271 230.79 325.43 232.894 294.645L248.795 284.943L235.041 280.059C241.895 266.398 251.429 254.257 263.075 244.359C281.254 229.685 290.299 225.305 290.299 225.305L289.489 233.277Z" fill="#010101"/>
<path d="M287.67 229.686C286.146 230.218 284.843 231.243 283.968 232.599C281.209 237.155 275.558 247.733 267.564 268.715C255.977 299.158 255.123 358.884 255.846 384.618H245.705C245.705 384.618 233.462 329.864 234.908 293.573L251.663 282.25L237.711 277.278C243.714 264.158 252.61 252.567 263.731 243.375C281.909 228.81 288.108 227.496 288.108 227.496L287.67 229.686Z" fill="#4D80C2"/>
<path d="M345.603 190.262L345.034 204.06C344.899 207.472 344.05 210.819 342.541 213.882C341.032 216.946 338.896 219.658 336.273 221.844C331.63 225.59 323.854 231.459 318.488 232.379C310.122 233.869 303.157 227.189 296.586 221.735C292.206 218.033 290.235 210.149 289.359 204.52L288.373 194.204L345.603 190.262Z" fill="#B9774F"/>
<path d="M316.296 223.573C321.823 223.452 327.121 221.337 331.211 217.616C338.899 211.199 352.193 197.905 356.858 185.815C361.523 173.725 362.399 164.198 363.56 159.533C366.137 150.694 367.189 141.48 366.67 132.287C365.86 119.015 362.071 115.511 357.603 109.554C353.135 103.596 344.462 88.7471 343.848 85.8123C343.235 82.8775 334.606 88.0024 326.064 86.4255C326.064 86.4255 320.523 89.0318 317.435 87.3016C316.078 88.0201 314.586 88.4454 313.054 88.55C311.625 88.276 310.255 87.7573 309.002 87.0169C309.002 87.0169 308.411 88.3529 305.191 87.7834C301.972 87.214 298.073 85.5933 294.087 86.2503C290.101 86.9073 275.558 116.08 272.601 119.606C269.644 123.133 264.3 133.426 264.694 142.581C265.089 151.736 266.031 163.541 269.841 169.016C269.841 169.016 274.988 189.889 277.135 193.7C281.669 201.715 300.241 217.266 302.213 218.864C306.114 222.21 311.167 223.899 316.296 223.573Z" fill="#010101"/>
<path d="M360.256 165.32C360.256 165.32 362.95 172.679 369.017 170.336C375.084 167.992 378.763 153.909 378.763 153.909C378.763 153.909 376.879 149.003 373.375 148.215C371.19 150.586 368.743 152.702 366.082 154.523C363.935 155.443 360.256 165.32 360.256 165.32Z" fill="#CD8860"/>
<path d="M277.267 169.065C277.267 169.065 273.96 176.6 267.783 174.563C261.607 172.526 257.029 159.866 257.029 159.866C257.029 159.866 261.87 148.477 265.352 147.514C267.644 149.774 270.187 151.765 272.93 153.449C275.142 154.259 277.267 169.065 277.267 169.065Z" fill="#CD8860"/>
<path d="M267.5 132.836L267.369 161.79C264.319 160.693 261.656 158.728 259.71 156.136C257.764 153.544 256.62 150.439 256.417 147.204C255.782 135.771 267.5 132.836 267.5 132.836Z" fill="#010101"/>
<path d="M316.844 220.396C322.495 220.271 327.922 218.162 332.175 214.439C340.038 208 353.639 194.728 358.458 182.616C363.276 170.505 364.13 160.999 365.335 156.203C367.978 147.413 369.075 138.232 368.576 129.067C367.744 115.816 363.889 112.29 359.312 106.355C354.734 100.42 344.966 86.6435 342.382 85.2199C338.176 82.7669 335.811 84.8037 327.05 83.2268C327.05 83.2268 321.378 85.8331 318.289 84.1029C316.93 84.8173 315.44 85.2494 313.909 85.3732C312.455 85.0917 311.056 84.5738 309.769 83.8401C309.769 83.8401 309.156 85.1542 305.849 84.5847C302.542 84.0153 298.599 82.3946 294.504 83.0735C290.408 83.7525 275.252 112.925 272.229 116.43C269.207 119.934 263.731 130.25 264.126 139.426C264.52 148.603 265.462 160.386 269.382 165.862C269.382 165.862 274.836 187.04 276.916 190.917C281.034 198.67 300.461 214.089 302.454 215.688C306.473 219.038 311.622 220.723 316.844 220.396Z" fill="#CD8860"/>
<path d="M316.845 220.398C322.496 220.273 327.923 218.164 332.176 214.441C340.039 208.002 353.64 194.73 358.459 182.618C363.277 170.507 363.058 163.805 364.197 157.212C365.265 148.394 365.36 139.485 364.482 130.646C363.65 117.395 359.795 113.869 355.217 107.934C350.64 101.998 345.252 91.7484 343.434 89.3612C338.353 82.7907 333.315 87.609 327.051 84.0391C327.051 84.0391 321.554 86.8206 318.291 85.0903C316.762 85.8574 315.107 86.3398 313.406 86.5139C311.895 86.2469 310.423 85.7907 309.026 85.156C309.026 85.156 308.895 86.3168 305.609 85.7474C302.681 84.902 299.615 84.6415 296.586 84.9808C292.49 85.5941 285.635 108.722 275.472 120.943C269.318 128.346 267.806 150.226 279.524 189.868C281.495 196.548 300.484 214.091 302.477 215.69C306.49 219.034 311.63 220.719 316.845 220.398Z" fill="#E6AA77"/>
<path d="M305.873 196.416C306.749 198.463 308.201 200.213 310.051 201.453C311.901 202.693 314.071 203.37 316.298 203.402C324.227 203.556 328.366 195.408 328.366 195.408L305.873 196.416Z" fill="#CD8860"/>
<path d="M294.682 184.347C294.682 184.347 301.559 200.664 315.401 200.861C331.105 201.08 337.938 183.777 337.938 183.777L316.452 187.26L294.682 184.347Z" fill="#BE3C45"/>
<path d="M295.512 184.852C295.512 184.852 301.272 198.3 315.727 198.387C331.628 198.497 337.126 184.129 337.126 184.129L313.888 191.707L295.512 184.852Z" fill="url(#paint3_linear_3496_4849)"/>
<path d="M297.133 185.598C299.478 188.597 302.702 190.787 306.354 191.862C315.881 194.205 322.911 193.132 327.555 191.161C330.667 189.678 333.39 187.488 335.505 184.766C331.747 185.653 327.889 186.051 324.028 185.948C317.107 185.948 317.918 187.438 316.034 187.569C314.151 187.7 312.333 185.379 307.273 185.992C303.889 186.254 300.486 186.122 297.133 185.598Z" fill="#BE3C45"/>
<path d="M299.936 186.146C302.936 193.33 327.247 194.469 331.628 185.664L299.936 186.146Z" fill="#FDFCEC"/>
<path d="M321.094 183.692C320.415 183.845 318.225 184.699 317.305 184.962C315.834 185.235 314.317 185.091 312.924 184.546C311.876 184.2 310.808 183.914 309.727 183.692C307.865 183.539 300.44 184.261 296.804 184.261C295.173 184.129 293.597 183.611 292.205 182.75C293.278 183.884 294.484 184.884 295.797 185.729C300.703 188.379 316.297 188.729 316.297 188.729C316.297 188.729 332.395 187.744 337.52 184.59C338.707 183.752 339.801 182.79 340.784 181.721C339.07 182.646 337.234 183.324 335.33 183.736C329.285 183.955 322.715 183.32 321.094 183.692Z" fill="#740F2A"/>
<path d="M340.59 181.916C340.59 181.916 341.203 181.127 340.13 180.448C339.057 179.769 342.846 180.076 342.32 181.981C341.772 181.742 341.154 181.718 340.59 181.916Z" fill="#740F2A"/>
<path d="M292.754 183.234C292.754 183.234 292.097 182.467 293.126 181.722C294.156 180.978 290.454 181.722 290.936 183.387C291.499 183.102 292.151 183.047 292.754 183.234Z" fill="#740F2A"/>
<path d="M308.677 168.228C309.487 165.795 309.994 163.272 310.188 160.716C311.017 152.254 309.675 143.721 306.29 135.923L305.348 133.886C303.958 130.877 301.865 128.247 299.247 126.216C296.628 124.184 293.561 122.811 290.301 122.212C285.745 121.358 284.344 124.096 284.344 124.096C284.344 124.096 306.092 132.988 306.947 153.028C307.188 158.766 308.677 168.228 308.677 168.228Z" fill="url(#paint4_linear_3496_4849)"/>
<path d="M355.239 139.736C355.239 139.736 352.852 130.208 341.704 131.763C331.957 133.121 326.876 142.211 327.796 144.467C329.614 149 354.648 152.724 355.239 139.736Z" fill="#CD8860"/>
<path d="M362.291 136.448C353.53 136.448 333.994 126.089 327.686 143.326C327.515 143.831 327.534 144.381 327.74 144.873C327.945 145.364 328.323 145.764 328.803 145.998C332.309 147.796 336.186 148.756 340.126 148.801C351.077 148.998 354.034 143.523 354.538 141.113C356.083 140.917 357.571 140.401 358.906 139.598C360.241 138.794 361.394 137.722 362.291 136.448Z" fill="#010101"/>
<path d="M328.168 143.964C330.095 139.934 342.426 130.823 352.26 139.146C352.26 139.146 352.501 147.907 340.674 148.958C336.693 149.391 332.679 148.514 329.241 146.461L328.343 145.848C327.795 145.388 327.861 144.621 328.168 143.964Z" fill="#D3D1BA"/>
<path d="M329.572 145.322C330.601 142.037 340.763 135.641 349.086 140.109C349.72 140.459 350.201 141.031 350.436 141.715C350.67 142.399 350.642 143.146 350.357 143.811C349.415 146.001 346.984 148.739 340.654 149.286C335.595 149.724 328.936 147.359 329.572 145.322Z" fill="#FDFCEC"/>
<path d="M340.584 149.115C344.51 148.912 347.528 145.574 347.326 141.66C347.124 137.746 343.777 134.738 339.851 134.941C335.925 135.144 332.906 138.481 333.109 142.395C333.311 146.309 336.658 149.318 340.584 149.115Z" fill="#010101"/>
<path opacity="0.83" d="M345.889 142.498C345.901 143.178 345.778 143.854 345.528 144.487C345.277 145.12 344.904 145.698 344.43 146.186C343.956 146.674 343.39 147.064 342.764 147.333C342.139 147.603 341.467 147.745 340.786 147.754C339.631 147.9 338.459 147.676 337.439 147.113C336.42 146.55 335.605 145.678 335.114 144.622C334.971 144.276 334.934 143.896 335.008 143.529C335.082 143.163 335.264 142.826 335.53 142.563C337.29 141.008 339.468 140.003 341.794 139.672C344.926 139.015 345.648 139.891 345.889 142.498Z" fill="#90A63C"/>
<path d="M342.341 144.387C343.817 143.394 344.213 141.402 343.227 139.937C342.241 138.472 340.246 138.089 338.771 139.081C337.295 140.074 336.899 142.067 337.885 143.532C338.871 144.997 340.866 145.38 342.341 144.387Z" fill="#010101"/>
<path d="M337.503 143.556C338.326 143.204 338.739 142.324 338.426 141.59C338.112 140.856 337.191 140.545 336.368 140.897C335.544 141.248 335.131 142.128 335.445 142.863C335.758 143.597 336.68 143.907 337.503 143.556Z" fill="white"/>
<path d="M343.554 141.123C344.177 140.857 344.49 140.19 344.252 139.634C344.015 139.078 343.317 138.842 342.694 139.108C342.071 139.374 341.759 140.041 341.996 140.597C342.234 141.153 342.931 141.389 343.554 141.123Z" fill="white"/>
<path d="M273.764 141.487C273.764 141.487 275.954 131.937 287.255 133.23C297.067 134.347 302.411 143.283 301.557 145.56C299.827 150.16 274.684 154.475 273.764 141.487Z" fill="#CD8860"/>
<path d="M266.822 138.445C275.583 138.116 293.105 126.968 301.581 144.446C302.391 146.154 300.529 147.162 300.529 147.162C297.076 149.056 293.23 150.121 289.294 150.272C278.343 150.754 275.255 145.322 274.685 142.935C273.133 142.778 271.632 142.297 270.277 141.524C268.923 140.751 267.746 139.702 266.822 138.445Z" fill="#010101"/>
<path d="M301.14 145.189C299.125 141.246 286.553 132.573 276.916 141.027C276.916 141.027 276.916 149.657 288.743 150.379C292.749 150.693 296.75 149.71 300.154 147.576L301.03 146.963C301.578 146.459 301.468 145.802 301.14 145.189Z" fill="#D3D1BA"/>
<path d="M299.806 146.46C298.689 143.218 288.373 137.064 280.094 141.773C279.463 142.129 278.991 142.711 278.771 143.402C278.552 144.093 278.602 144.841 278.912 145.496C279.897 147.686 282.416 150.336 288.746 150.709C293.893 151.015 300.485 148.496 299.806 146.46Z" fill="#FDFCEC"/>
<path d="M296.18 143.647C296.282 139.73 293.178 136.471 289.248 136.368C285.319 136.266 282.05 139.359 281.948 143.277C281.846 147.195 284.95 150.454 288.879 150.556C292.809 150.658 296.078 147.565 296.18 143.647Z" fill="#010101"/>
<path opacity="0.83" d="M294.572 144.754C294.346 146.126 293.59 147.353 292.468 148.172C291.345 148.991 289.946 149.337 288.571 149.135C287.379 149.108 286.225 148.71 285.271 147.995C284.317 147.28 283.61 146.285 283.249 145.149C283.166 144.783 283.192 144.401 283.324 144.051C283.457 143.7 283.689 143.396 283.994 143.178C286.045 141.91 288.416 141.256 290.827 141.294C294.134 141.184 294.726 142.082 294.572 144.754Z" fill="#90A63C"/>
<path d="M291.454 144.928C292.402 143.439 291.955 141.457 290.455 140.502C288.955 139.547 286.97 139.981 286.022 141.47C285.074 142.96 285.521 144.942 287.021 145.897C288.521 146.852 290.506 146.418 291.454 144.928Z" fill="#010101"/>
<path d="M285.476 144.5C286.314 144.184 286.764 143.322 286.483 142.575C286.201 141.829 285.293 141.479 284.456 141.795C283.618 142.111 283.168 142.973 283.45 143.72C283.732 144.467 284.639 144.816 285.476 144.5Z" fill="white"/>
<path d="M292.616 142.995C293.25 142.756 293.59 142.104 293.377 141.538C293.164 140.972 292.477 140.707 291.843 140.946C291.209 141.185 290.868 141.838 291.082 142.404C291.295 142.969 291.982 143.234 292.616 142.995Z" fill="white"/>
<path d="M304.184 172.524C304.184 172.524 303.79 173.488 306.703 172.853C308.864 172.712 311.005 173.341 312.748 174.627C313.641 175.098 314.648 175.309 315.655 175.235C316.662 175.161 317.628 174.806 318.443 174.211C320.283 172.521 322.714 171.624 325.21 171.714C327.181 171.933 327.028 171.057 327.028 171.057C327.028 171.057 327.97 175.722 324.838 177.167C318.486 180.036 320.217 183.738 316.296 184.023C311.368 184.373 313.755 180.978 306.966 178.153C305.879 177.737 304.988 176.927 304.472 175.883C303.957 174.84 303.854 173.64 304.184 172.524Z" fill="#CD8860"/>
<path d="M318.749 176.839C318.928 176.046 319.324 175.32 319.893 174.74C320.462 174.159 321.18 173.749 321.969 173.553C324.882 172.721 325.407 173.4 324.991 174.101C324.575 174.802 326.962 173.466 327.028 171.057C327.028 171.057 328.167 174.605 323.217 175.678C318.267 176.751 318.749 176.839 318.749 176.839Z" fill="#9B5744"/>
<path d="M312.663 176.993C312.442 176.21 312.007 175.505 311.407 174.956C310.808 174.406 310.067 174.035 309.269 173.882C306.334 173.203 305.83 173.882 306.29 174.561C306.75 175.24 304.275 174.036 304.1 171.648C304.1 171.648 303.136 175.24 308.152 176.029C313.167 176.817 312.663 176.993 312.663 176.993Z" fill="#9B5744"/>
<path d="M314.109 172.57C314.571 172.787 315.076 172.9 315.587 172.9C316.098 172.9 316.603 172.787 317.066 172.57C318.467 171.957 320.395 170.862 320.745 169.329C321.271 166.898 317.372 161.378 315.27 161.575C312.028 161.86 309.553 168.409 310.889 170.205C311.749 171.248 312.856 172.061 314.109 172.57Z" fill="url(#paint5_linear_3496_4849)"/>
<path d="M325.648 80.7547C325.648 80.7547 328.342 66.6938 315.201 65.7083C302.059 64.7227 284.231 86.0767 270.783 107.037C257.335 127.996 233.703 144.707 233.703 144.707C238.881 124.983 248.636 106.757 262.176 91.5083C253.994 99.3666 246.457 107.87 239.639 116.936C239.639 116.936 248.947 69.9134 275.12 50.4429C301.293 30.9723 322.1 42.7335 328.451 50.4429C333.335 56.4001 337.519 66.3434 325.648 80.7547Z" fill="#010101"/>
<path opacity="0.5" d="M318.751 80.7556C318.751 80.7556 323.548 66.6507 306.793 70.5712C307.713 71.1625 311.327 72.2576 318.751 80.7556Z" fill="#1C1D1D"/>
<path opacity="0.5" d="M306.969 73.2441C306.969 73.2441 313.277 75.7191 314.284 81.3698C314.284 81.3698 312.532 80.9756 306.969 73.2441Z" fill="#1C1D1D"/>
<path d="M214.891 178.787C214.891 178.787 228.032 174.538 242.29 155.79C268.529 121.448 285.634 69.8042 307.799 67.1104C329.964 64.4165 325.649 80.755 325.649 80.755C325.649 80.755 334.804 63.0367 309.792 59.7295C287.54 56.6633 281.757 74.7759 270.018 94.3121C258.279 113.848 250.591 138.51 214.891 178.787Z" fill="url(#paint6_linear_3496_4849)"/>
<path d="M243.256 107.671C243.256 107.671 261.829 81.8274 281.541 65.5983C301.252 49.3692 324.907 51.8003 328.192 60.4733C328.192 60.4733 328.564 41.2218 310.67 39.9296C292.776 38.6375 286.184 42.295 279.328 47.2886C272.473 52.2821 265.224 59.882 255.959 74.1837C246.694 88.4855 243.256 107.671 243.256 107.671Z" fill="url(#paint7_linear_3496_4849)"/>
<path d="M262.639 61.7033C262.639 61.7033 280.971 38.8157 304.734 45.2111C328.498 51.6065 331.805 65.1858 329.549 79.2469C329.549 79.2469 342.296 47.7518 298.427 42.3201C273.458 39.1443 262.639 61.7033 262.639 61.7033Z" fill="#010101"/>
<path d="M325.846 36.9531C325.846 36.9531 346.675 48.2327 339.294 67.6159C339.294 67.6159 366.671 40.2603 325.846 36.9531Z" fill="url(#paint8_linear_3496_4849)"/>
<path d="M353.793 86.9316C353.793 86.9316 380.995 108.527 380.294 132.159C380.294 132.159 381.915 127.319 371.534 113.148C361.152 98.9778 357.582 99.0654 353.793 86.9316Z" fill="#1C1D1D"/>
<path d="M352.414 67.7266C352.414 67.7266 384.544 93.2862 389.078 116.634C389.078 116.634 384.194 81.5686 352.414 67.7266Z" fill="#010101"/>
<path d="M277.511 199.395C283.052 208.812 300.245 225.436 276.963 248.607C270.546 254.981 278.256 263.939 282.067 277.079C292.142 312.122 236.62 324.387 221.135 320.883C204.424 317.094 208.826 300.974 213.163 299.594C213.163 299.594 209.045 308.968 223.413 306.515C237.781 304.062 232.021 284.373 223.588 279.532C215.156 274.692 186.07 266.085 206.789 239.847C220.022 223.567 236.508 210.229 255.193 200.687L277.511 199.395Z" fill="#010101"/>
<path d="M234.404 206.69C234.404 206.69 206.173 231.11 200.807 243.922C195.441 256.735 206.786 271.978 225.665 275.68C225.665 275.68 198.529 274.738 194.455 252.354C192.111 239.454 201.026 226.072 209.129 216.896C212.296 213.394 216.216 210.655 220.594 208.888C224.972 207.12 229.694 206.368 234.404 206.69Z" fill="#010101"/>
<path opacity="0.5" d="M212.634 209.973C212.634 209.973 248.4 187.546 250.174 156.008C250.174 156.008 243.122 171.054 222.381 181.217C201.64 191.379 212.634 209.973 212.634 209.973Z" fill="#1C1D1D"/>
<path d="M247.921 186.232C245.132 200.22 238.788 213.253 229.501 224.078C213.798 242.826 191.589 255.025 220.215 270.926C248.841 286.826 265.684 296.792 251.535 311.707C251.535 311.707 275.058 306.954 275.802 286.98C276.547 267.006 260.12 257.434 251.71 254.324C243.3 251.214 234.889 244.359 240.912 236.256C246.935 228.152 257.492 219.676 247.921 186.232Z" fill="url(#paint9_linear_3496_4849)"/>
<path d="M221.023 230.738C221.023 230.738 205.998 241.251 206.765 254.699C207.531 268.146 221.658 272.439 233.617 278.462C245.575 284.485 255.212 297.385 250.941 306.671C247.218 314.775 242.005 316.176 242.005 316.176C242.005 316.176 268.594 313.811 269.032 296.093C269.47 278.374 236.53 273.337 219.928 257.327C209.897 247.624 213.773 238.097 221.023 230.738Z" fill="#010101"/>
<path d="M221.023 230.738C221.023 230.738 205.998 241.251 206.765 254.699C207.531 268.146 221.658 272.439 233.617 278.462C245.575 284.485 255.212 297.385 250.941 306.671C247.218 314.775 242.005 316.176 242.005 316.176C242.005 316.176 264.236 313.986 264.674 296.202C265.112 278.418 232.171 273.49 215.547 257.436C205.538 247.734 211.32 241.076 221.023 230.738Z" fill="#1C1D1D"/>
<path opacity="0.5" d="M247.283 300.866C247.283 300.866 248.619 316.197 227.134 318.606C210.619 320.446 213.357 307.108 213.357 307.108C213.357 307.108 213.16 316.898 230.594 311.269C245.597 306.451 239.683 286.301 239.683 286.301C244.035 289.966 246.766 295.2 247.283 300.866Z" fill="#1C1D1D"/>
<path d="M351.08 224.646C351.08 224.646 354.694 232.662 348.167 244.358C341.64 256.053 305.633 340.944 302.742 384.638H319.169C319.169 384.638 353.204 320.028 366.63 303.229L347.313 292.848L367.528 289.015C367.528 289.015 364.331 247.621 362.622 241.489C360.823 234.716 356.748 228.768 351.08 224.646Z" fill="#010101"/>
<path d="M346.721 224.891C346.721 224.891 354.694 232.666 348.167 244.317C341.64 255.969 305.633 340.947 302.742 384.641H317.241C317.241 384.641 343.655 329.887 365.163 301.218L343.677 290.486L364.791 285.383C364.791 285.383 361.002 246.946 359.512 240.769C358.023 234.593 346.721 224.891 346.721 224.891Z" fill="#174376"/>
<path d="M346.72 224.891C346.416 226.178 346.5 227.527 346.961 228.767C347.793 231.461 345.384 241.908 342.362 248.238C336.536 260.349 303.945 340.947 300.967 384.641H315.094C315.094 384.641 344.398 325.507 362.161 299.947L340.675 288.602L363.891 282.251C363.891 282.251 362.95 247.515 361.701 241.295C359.533 230.454 346.72 224.891 346.72 224.891Z" fill="#4D80C2"/>
<path d="M351.343 122.807C356.358 121.777 360.454 124.69 360.104 123.551C359.753 122.412 357.256 120.726 352.898 119.609C344.553 117.419 333.471 121.799 330.295 123.135C329.498 123.459 328.85 124.068 328.477 124.843C328.19 125.438 328.041 126.089 328.041 126.749C328.041 127.409 328.19 128.06 328.477 128.654C329.222 130.231 331.741 129.662 333.361 129.005C338.202 127.034 350.313 123.026 351.343 122.807Z" fill="#010101"/>
<path d="M279.065 124.206C274.685 123.089 270.94 125.958 271.268 124.819C271.597 123.68 273.853 122.038 277.839 120.986C285.285 118.95 295.054 123.439 297.857 124.841C298.566 125.214 299.117 125.827 299.412 126.571C299.671 127.173 299.805 127.822 299.805 128.477C299.805 129.132 299.671 129.781 299.412 130.382C298.733 131.959 296.499 131.368 295.032 130.667C290.608 128.63 279.963 124.556 279.065 124.206Z" fill="#010101"/>
</g>
<defs>
<linearGradient id="paint0_linear_3496_4849" x1="299.972" y1="368.025" x2="299.972" y2="0.0114941" gradientUnits="userSpaceOnUse">
<stop offset="0.1095" stop-color="#ADE0F9"/>
<stop offset="0.8707" stop-color="#D1E7F7"/>
</linearGradient>
<linearGradient id="paint1_linear_3496_4849" x1="300.005" y1="368.301" x2="300.005" y2="68.3145" gradientUnits="userSpaceOnUse">
<stop offset="0.11" stop-color="#ADE0F9"/>
<stop offset="0.87" stop-color="#48C7F4"/>
</linearGradient>
<linearGradient id="paint2_linear_3496_4849" x1="352.159" y1="160.611" x2="411.319" y2="159.103" gradientUnits="userSpaceOnUse">
<stop offset="0.08" stop-color="#1C1D1D" stop-opacity="0.41"/>
<stop offset="0.53" stop-color="#1C1D1D" stop-opacity="0.85"/>
<stop offset="0.95" stop-color="#1C1D1D"/>
</linearGradient>
<linearGradient id="paint3_linear_3496_4849" x1="295.969" y1="191.055" x2="337.694" y2="190.597" gradientUnits="userSpaceOnUse">
<stop offset="0.07" stop-color="#CE4E4F"/>
<stop offset="0.53" stop-color="#EA7153"/>
<stop offset="0.95" stop-color="#CE4E4F"/>
</linearGradient>
<linearGradient id="paint4_linear_3496_4849" x1="284.996" y1="145.472" x2="310.154" y2="144.831" gradientUnits="userSpaceOnUse">
<stop offset="0.28" stop-color="#CD8860"/>
<stop offset="1" stop-color="#CD8860" stop-opacity="0.5"/>
</linearGradient>
<linearGradient id="paint5_linear_3496_4849" x1="315.777" y1="172.912" x2="315.49" y2="161.636" gradientUnits="userSpaceOnUse">
<stop offset="0.13" stop-color="#FCBD84"/>
<stop offset="1" stop-color="#E6AA77"/>
</linearGradient>
<linearGradient id="paint6_linear_3496_4849" x1="213.409" y1="120.22" x2="328.401" y2="117.289" gradientUnits="userSpaceOnUse">
<stop offset="0.08" stop-color="#1C1D1D" stop-opacity="0.41"/>
<stop offset="0.53" stop-color="#1C1D1D" stop-opacity="0.85"/>
<stop offset="0.95" stop-color="#1C1D1D"/>
</linearGradient>
<linearGradient id="paint7_linear_3496_4849" x1="242.413" y1="74.4356" x2="328.504" y2="72.2413" gradientUnits="userSpaceOnUse">
<stop offset="0.08" stop-color="#1C1D1D" stop-opacity="0.41"/>
<stop offset="0.53" stop-color="#1C1D1D" stop-opacity="0.85"/>
<stop offset="0.95" stop-color="#1C1D1D"/>
</linearGradient>
<linearGradient id="paint8_linear_3496_4849" x1="337.652" y1="67.6511" x2="336.861" y2="36.626" gradientUnits="userSpaceOnUse">
<stop offset="0.08" stop-color="#1C1D1D" stop-opacity="0.41"/>
<stop offset="0.53" stop-color="#1C1D1D" stop-opacity="0.85"/>
<stop offset="0.95" stop-color="#1C1D1D"/>
</linearGradient>
<linearGradient id="paint9_linear_3496_4849" x1="238.146" y1="185.09" x2="241.896" y2="310.095" gradientUnits="userSpaceOnUse">
<stop offset="0.08" stop-color="#1C1D1D" stop-opacity="0.41"/>
<stop offset="0.53" stop-color="#1C1D1D" stop-opacity="0.85"/>
<stop offset="0.95" stop-color="#1C1D1D"/>
</linearGradient>
</defs>
</svg>
